<svg xmlns="http://www.w3.org/2000/svg" width="35" height="35" viewBox="0 0 35 35">
  <g id="Group_139207" data-name="Group 139207" transform="translate(-31 -705)">
    <g id="Group_15763" data-name="Group 15763">
      <circle id="Ellipse_106" data-name="Ellipse 106" cx="17.5" cy="17.5" r="17.5" transform="translate(31 705)" fill="#fff" opacity="0.25"/>
      <g id="Group_15762" data-name="Group 15762" transform="translate(2875.087 -1631.786)">
        <path id="Path_11887" data-name="Path 11887" d="M158.3,173.165a1.675,1.675,0,0,1,1.409-1.7,11.228,11.228,0,0,1,3.595-.668,3.028,3.028,0,0,1,2.909,2.167,5.228,5.228,0,0,1-.1,2.351c-.439,1.838-1.1,3.616-1.5,5.464a5.581,5.581,0,0,0-.142,1.217,1.075,1.075,0,0,0,.959,1.191,3.922,3.922,0,0,0,1.843-.081c.187-.05.37-.114.591-.182a6.3,6.3,0,0,1-.255,1.133c-.029.113-.138.129-.231.161a17.82,17.82,0,0,1-2.644.884,4.819,4.819,0,0,1-3.826-.558,2.606,2.606,0,0,1-1.14-2.4,18.187,18.187,0,0,1,.937-4.113,28.856,28.856,0,0,0,.838-3.232,3.89,3.89,0,0,0,.046-.463c.045-1.177-.468-1.642-1.658-1.545a8.177,8.177,0,0,0-1.626.382" transform="translate(-2989.385 2180.274)" fill="#fff"/>
        <path id="Path_11888" data-name="Path 11888" d="M201.37,102.269a2.64,2.64,0,0,1,2.794,2.6,2.541,2.541,0,0,1-1.981,2.342,2.894,2.894,0,0,1-3.3-1.329,2.525,2.525,0,0,1,2.2-3.6c.112-.01.225-.012.293-.016" transform="translate(-3025.421 2241.517)" fill="#fff"/>
      </g>
    </g>
  </g>
</svg>
