<svg xmlns="http://www.w3.org/2000/svg" xmlns:xlink="http://www.w3.org/1999/xlink" width="35" height="35" viewBox="0 0 35 35">
  <defs>
    <clipPath id="clip-path">
      <rect id="Rectangle_19651" data-name="Rectangle 19651" width="21" height="21" transform="translate(0.152 0.152)" fill="#fff"/>
    </clipPath>
  </defs>
  <g id="Group_139206" data-name="Group 139206" transform="translate(-31 -644)">
    <path id="Path_11885" data-name="Path 11885" d="M17.5,0A17.5,17.5,0,1,1,0,17.5,17.5,17.5,0,0,1,17.5,0Z" transform="translate(31 644)" fill="#fff" opacity="0.25"/>
    <g id="Group_12127" data-name="Group 12127" transform="translate(37.848 650.848)">
      <g id="Group_12126" data-name="Group 12126" transform="translate(0 0)" clip-path="url(#clip-path)">
        <path id="Path_10911" data-name="Path 10911" d="M21,9.86v1.227c-.054.4-.093.8-.164,1.191a10.009,10.009,0,0,1-3.7,6.293,10.022,10.022,0,0,1-10.571,1.58A10.074,10.074,0,0,1,.024,10.913a9.655,9.655,0,0,1,1.462-5.8A10.331,10.331,0,0,1,8.693.162C9.087.088,9.488.052,9.886,0h1.23a1.1,1.1,0,0,0,.158.034,9.882,9.882,0,0,1,4.174,1.206,10.318,10.318,0,0,1,5.388,7.433c.074.392.109.792.163,1.188M14.567,7.571a2.926,2.926,0,0,0-.9-2.122A3.829,3.829,0,0,0,11.446,4.4a4.6,4.6,0,0,0-3.823.974A3.167,3.167,0,0,0,6.44,7.623a1,1,0,0,0,.534.965,1.026,1.026,0,0,0,1.517-.571c.124-.3.23-.613.373-.905a1.691,1.691,0,0,1,.79-.88,2.155,2.155,0,0,1,1.637-.071,1.446,1.446,0,0,1,.728,2.271,3.617,3.617,0,0,1-.358.392c-.5.473-1.02.928-1.509,1.413a2.827,2.827,0,0,0-.834,2.249.953.953,0,0,0,.921.966.912.912,0,0,0,1.029-.785c.03-.119.064-.237.086-.357a1.936,1.936,0,0,1,.614-1.1c.534-.489,1.067-.977,1.59-1.477a2.845,2.845,0,0,0,1.007-2.156m-2.955,7.86A1.186,1.186,0,0,0,10.435,14.2,1.205,1.205,0,0,0,9.169,15.39a1.222,1.222,0,0,0,2.443.041" transform="translate(0.152 0.153)" fill="#fff"/>
      </g>
    </g>
  </g>
</svg>
