<svg xmlns="http://www.w3.org/2000/svg" width="23.373" height="18.525" viewBox="0 0 23.373 18.525">
  <defs>
    <style>
      .cls-1 {
        opacity: 0.75;
      }

      .cls-2 {
        fill: #2d2c29;
      }
    </style>
  </defs>
  <g id="credit-card" class="cls-1" transform="translate(0 -53.1)">
    <path id="Path_11726" data-name="Path 11726" class="cls-2" d="M22.957,55.1a1.744,1.744,0,0,0-1.194-.616L5.3,53.106a1.755,1.755,0,0,0-1.895,1.6L3.078,57.81H1.755A1.757,1.757,0,0,0,0,59.566v10.3a1.757,1.757,0,0,0,1.755,1.755H18.272a1.757,1.757,0,0,0,1.756-1.755V68.2l.586.049q.074.006.147.006a1.758,1.758,0,0,0,1.748-1.609l.857-10.268a1.744,1.744,0,0,0-.409-1.28Zm-21.2,3.627H18.272a.843.843,0,0,1,.843.842V60.5H.913v-.939a.843.843,0,0,1,.842-.842ZM.913,61.417h18.2v1.894H.913Zm17.359,9.294H1.755a.843.843,0,0,1-.842-.842V64.224h18.2v5.644A.843.843,0,0,1,18.272,70.711ZM22.457,56.3,21.6,66.567a.843.843,0,0,1-.91.769l-.662-.055V59.566a1.757,1.757,0,0,0-1.756-1.755H4L4.317,54.8v-.01a.843.843,0,0,1,.91-.769L21.687,55.39a.843.843,0,0,1,.769.91Z" transform="translate(0 0)"/>
    <path id="Path_11727" data-name="Path 11727" class="cls-2" d="M275.481,326.532h-4.393a.456.456,0,0,0-.456.457v2.866a.457.457,0,0,0,.456.457h4.393a.457.457,0,0,0,.457-.457v-2.866A.456.456,0,0,0,275.481,326.532Zm-.456,2.866h-3.48v-1.953h3.48Z" transform="translate(-258.277 -260.95)"/>
  </g>
</svg>
