<svg xmlns="http://www.w3.org/2000/svg" width="25.007" height="23.735" viewBox="0 0 25.007 23.735">
  <defs>
    <style>
      .cls-1 {
        fill: none;
        stroke: #2d2c29;
        opacity: 0.75;
      }
    </style>
  </defs>
  <path id="Path_11838" data-name="Path 11838" class="cls-1" d="M157.68,12.453a3.607,3.607,0,0,1-.229.479,1.237,1.237,0,0,1-1.11.53c-.515,0-1.03,0-1.545.007-.014,0-.028.011-.066.028v.263q0,4.655,0,9.309c0,.63-.245.876-.874.877h-5.575c-.613,0-.861-.251-.862-.866V17.324H143.95v.268q0,2.753,0,5.506c0,.6-.253.847-.856.847q-2.8,0-5.6,0c-.6,0-.856-.251-.857-.846V13.459c-.368,0-.717,0-1.065,0-.249,0-.5.006-.749-.014a1.149,1.149,0,0,1-1.054-.795,1.127,1.127,0,0,1,.29-1.285c.581-.554,1.183-1.085,1.778-1.625l8.9-8.077a1.257,1.257,0,0,1,1.892,0l2.333,2.119c0-.161,0-.271,0-.381a.686.686,0,0,1,.711-.708q2.425-.009,4.849,0a.688.688,0,0,1,.725.764q0,2.893,0,5.786a.5.5,0,0,0,.19.417c.572.506,1.129,1.03,1.7,1.534a1.912,1.912,0,0,1,.544.793Z" transform="translate(-133.173 -0.711)"/>
</svg>
