<svg xmlns="http://www.w3.org/2000/svg" width="35" height="35" viewBox="0 0 35 35">
  <g id="Group_15749" data-name="Group 15749" transform="translate(-31 -460)">
    <circle id="Ellipse_106" data-name="Ellipse 106" cx="17.5" cy="17.5" r="17.5" transform="translate(31 460)" fill="#fff" opacity="0.25"/>
    <path id="Path_11831" data-name="Path 11831" d="M15.845,13.93V11.809A4.495,4.495,0,0,1,13.359,3.69,12.8,12.8,0,0,0,11.25,2.349a2.314,2.314,0,0,0,.033-.238,2.156,2.156,0,0,0-4.311,0,2.876,2.876,0,0,0,.015.386c-1.107.533-4.56,2.429-4.56,5.355v6.076l-2.291,2.3A.481.481,0,0,0,0,16.566V18.16a.476.476,0,0,0,.475.477H6.183a3.014,3.014,0,0,0,2.963,2.54h.01a3.014,3.014,0,0,0,2.963-2.54h5.638a.224.224,0,0,0,.04,0h0a.478.478,0,0,0,.474-.477V16.57a.48.48,0,0,0-.138-.337ZM9.229,20.141a2.08,2.08,0,0,1-1.481-.548,2.051,2.051,0,0,1-.58-.957H11.13a2.069,2.069,0,0,1-1.9,1.5" transform="translate(38 467)" fill="#fff"/>
    <path id="Path_11832" data-name="Path 11832" d="M154.895,42.348A4.909,4.909,0,1,1,159.8,37.44a4.914,4.914,0,0,1-4.909,4.909m0-8.992a4.084,4.084,0,1,0,4.084,4.084,4.088,4.088,0,0,0-4.084-4.084" transform="translate(-100.88 436.878)" fill="#fff"/>
    <path id="Path_11833" data-name="Path 11833" d="M154.895,32.53a4.909,4.909,0,1,0,4.909,4.909,4.914,4.914,0,0,0-4.909-4.909m0,8.992a4.084,4.084,0,1,1,4.084-4.084,4.088,4.088,0,0,1-4.084,4.084" transform="translate(-100.88 436.879)" fill="#fc0909"/>
    <path id="Path_11834" data-name="Path 11834" d="M205.133,70.428h.626v4.207h-.907V71.36l-.726.178-.192-.754Z" transform="translate(-150.833 401.787)" fill="#fff"/>
  </g>
</svg>
