<svg xmlns="http://www.w3.org/2000/svg" xmlns:xlink="http://www.w3.org/1999/xlink" width="35" height="35" viewBox="0 0 35 35">
  <defs>
    <clipPath id="clip-path">
      <rect id="Rectangle_19648" data-name="Rectangle 19648" width="20.981" height="21" fill="#fff"/>
    </clipPath>
  </defs>
  <g id="Group_15690" data-name="Group 15690" transform="translate(-31 -461)">
    <circle id="Ellipse_62" data-name="Ellipse 62" cx="17.5" cy="17.5" r="17.5" transform="translate(31 461)" fill="#fff" opacity="0.25"/>
    <g id="Group_12121" data-name="Group 12121" transform="translate(38 468)">
      <g id="Group_12120" data-name="Group 12120" clip-path="url(#clip-path)">
        <path id="Path_10888" data-name="Path 10888" d="M66.547,59.957a6.746,6.746,0,1,1-6.738,6.706,6.755,6.755,0,0,1,6.738-6.706m.758,6.344v-.256c0-1.015,0-2.03,0-3.045a.75.75,0,1,0-1.5-.007c0,1.226,0,2.451,0,3.677a.745.745,0,0,0,.339.657c.745.5,1.486,1.006,2.244,1.485a.906.906,0,0,0,.553.108.666.666,0,0,0,.59-.584.715.715,0,0,0-.33-.769c-.627-.423-1.257-.841-1.9-1.267" transform="translate(-56.067 -56.204)" fill="#fff"/>
        <path id="Path_10889" data-name="Path 10889" d="M5.608,3c.137,0,.266,0,.4,0a.752.752,0,0,1,.737.755.741.741,0,0,1-.727.739q-1.147.015-2.3,0A.728.728,0,0,1,3,3.757Q2.985,2.633,3,1.509A.744.744,0,0,1,3.733.755a.753.753,0,0,1,.76.757c0,.109,0,.218,0,.355.072-.038.126-.062.174-.094a10.5,10.5,0,1,1-4.385,11.1A17.29,17.29,0,0,1,0,10.581.733.733,0,0,1,.727,9.75a.76.76,0,0,1,.769.819,9.008,9.008,0,1,0,11.156-8.8A8.8,8.8,0,0,0,5.768,2.853c-.047.028-.093.058-.137.089-.009.007-.01.025-.023.061" transform="translate(0 0)" fill="#fff"/>
      </g>
    </g>
  </g>
</svg>
