<svg xmlns="http://www.w3.org/2000/svg" xmlns:xlink="http://www.w3.org/1999/xlink" width="35" height="35" viewBox="0 0 35 35">
  <defs>
    <style>
      .cls-1 {
        fill: none;
      }

      .cls-2, .cls-4 {
        fill: #fff;
      }

      .cls-2 {
        opacity: 0.25;
      }

      .cls-3 {
        clip-path: url(#clip-path);
      }
    </style>
    <clipPath id="clip-path">
      <rect id="Rectangle_19923" data-name="Rectangle 19923" class="cls-1" width="20.544" height="20.543" transform="translate(0 0)"/>
    </clipPath>
  </defs>
  <g id="Group_15826" data-name="Group 15826" transform="translate(-31 -338)">
    <circle id="Ellipse_105" data-name="Ellipse 105" class="cls-2" cx="17.5" cy="17.5" r="17.5" transform="translate(31 338)"/>
    <g id="Group_15770" data-name="Group 15770" transform="translate(38 345)">
      <g id="Group_15770-2" data-name="Group 15770" class="cls-3">
        <path id="Path_11888" data-name="Path 11888" class="cls-4" d="M20.54,9.1a1.606,1.606,0,0,0-.428-.754,1.779,1.779,0,0,0-1.061-.364q-.547-.069-1.1-.131a.2.2,0,0,1-.2-.157,5.724,5.724,0,0,0-.384-.923.185.185,0,0,1,.032-.232q.441-.558.875-1.124a1.27,1.27,0,0,0-.11-1.774q-.633-.64-1.276-1.276a1.271,1.271,0,0,0-1.775-.109c-.365.282-.731.562-1.091.851a.233.233,0,0,1-.3.036,4.659,4.659,0,0,0-.849-.351.252.252,0,0,1-.2-.253c-.049-.472-.1-.944-.176-1.412a1.252,1.252,0,0,0-.993-1.1A.417.417,0,0,1,11.437,0H9.109a.391.391,0,0,1-.075.034,1.266,1.266,0,0,0-1,1.14q-.095.684-.169,1.372a.251.251,0,0,1-.2.256,4.438,4.438,0,0,0-.85.351.238.238,0,0,1-.3-.037q-.546-.438-1.106-.863a1.262,1.262,0,0,0-1.757.119q-.641.635-1.276,1.276a1.268,1.268,0,0,0-.112,1.774c.284.371.569.742.862,1.107a.224.224,0,0,1,.028.284,5.14,5.14,0,0,0-.36.868.227.227,0,0,1-.224.181c-.46.051-.916.11-1.374.168A1.287,1.287,0,0,0,0,9.376v1.8a1.29,1.29,0,0,0,1.18,1.34c.464.057.928.118,1.392.169a.23.23,0,0,1,.222.186,5.059,5.059,0,0,0,.36.868.222.222,0,0,1-.033.284q-.435.549-.862,1.107A1.266,1.266,0,0,0,2.379,16.9q.63.633,1.262,1.262a1.27,1.27,0,0,0,1.773.124q.569-.429,1.123-.875a.211.211,0,0,1,.267-.025,5.488,5.488,0,0,0,.887.367.218.218,0,0,1,.171.213c.052.458.112.915.167,1.372a1.291,1.291,0,0,0,1.354,1.2c.615,0,1.231.006,1.845,0a1.251,1.251,0,0,0,1.255-1.053c.085-.49.139-.99.2-1.49a.255.255,0,0,1,.2-.255,4.7,4.7,0,0,0,.868-.361.211.211,0,0,1,.267.033q.552.435,1.107.862a1.267,1.267,0,0,0,1.774-.107q.641-.635,1.276-1.276a1.271,1.271,0,0,0,.111-1.775q-.426-.557-.863-1.107a.21.21,0,0,1-.036-.267,5.083,5.083,0,0,0,.369-.886.228.228,0,0,1,.227-.18q.688-.077,1.372-.168a1.278,1.278,0,0,0,1.156-.985.789.789,0,0,1,.037-.091ZM14.55,10.41a4.421,4.421,0,1,1,0-.012v.012"/>
      </g>
    </g>
  </g>
</svg>
