<svg xmlns="http://www.w3.org/2000/svg" xmlns:xlink="http://www.w3.org/1999/xlink" width="26.354" height="30.264" viewBox="0 0 26.354 30.264">
  <defs>
    <clipPath id="clip-path">
      <rect id="Rectangle_19918" data-name="Rectangle 19918" width="26.354" height="30.264" fill="#fff"/>
    </clipPath>
  </defs>
  <g id="Group_15757" data-name="Group 15757" opacity="0.75">
    <g id="Group_15755" data-name="Group 15755" clip-path="url(#clip-path)">
      <path id="Path_11884" data-name="Path 11884" d="M21.937,0c.238.055.477.1.713.166A4.949,4.949,0,0,1,22.1,9.853,4.785,4.785,0,0,1,17.957,8.5a.341.341,0,0,0-.511-.046q-3.822,2.38-7.656,4.742a.26.26,0,0,0-.138.37,4.729,4.729,0,0,1,0,3.129.26.26,0,0,0,.139.37q3.859,2.377,7.707,4.772c.195.121.285.081.437-.059a4.757,4.757,0,0,1,5.022-1.154,4.737,4.737,0,0,1,3.336,3.963,4.943,4.943,0,0,1-4.161,5.618c-.067.01-.14,0-.193.057H20.874a7.823,7.823,0,0,1-1.548-.455,4.939,4.939,0,0,1-2.649-5.974.359.359,0,0,0-.186-.509Q12.665,20.98,8.86,18.6a.28.28,0,0,0-.419.043,4.76,4.76,0,0,1-4.96,1.2A4.757,4.757,0,0,1,.093,16.026a4.95,4.95,0,0,1,4.278-5.809,4.879,4.879,0,0,1,4.091,1.421.249.249,0,0,0,.372.039q3.859-2.4,7.728-4.788a.263.263,0,0,0,.135-.374A4.94,4.94,0,0,1,20.736.048.8.8,0,0,0,20.874,0Zm-.55,28.451a3.143,3.143,0,1,0-3.133-3.164,3.141,3.141,0,0,0,3.133,3.164M21.4,1.813a3.143,3.143,0,1,0,3.138,3.162A3.133,3.133,0,0,0,21.4,1.813M1.82,15.138a3.143,3.143,0,1,0,3.121-3.147A3.135,3.135,0,0,0,1.82,15.138" transform="translate(0)" fill="#fff"/>
    </g>
  </g>
</svg>
