<svg xmlns="http://www.w3.org/2000/svg" width="8" height="76">
    <defs>
        <clipPath id="clip-path">
            <path style="fill:none" d="M0 0h4v49H0z"/>
        </clipPath>
        <style>
            .cls-3{fill:#2d2c29}
        </style>
    </defs>
    <g id="Group_16252" data-name="Group 16252" transform="translate(-32 -139)">
        <g id="line" transform="translate(34 153)" style="opacity:.75;clip-path:url(#clip-path)">
            <g transform="translate(-128 -133)">
                <rect id="round" class="cls-3" width="3" height="3" rx="1.5" transform="translate(128 133)"/>
            </g>
            <g transform="translate(-128 -124)">
                <rect id="round-2" data-name="round" class="cls-3" width="3" height="3" rx="1.5" transform="translate(128 133)"/>
            </g>
            <g transform="translate(-128 -115)">
                <rect id="round-3" data-name="round" class="cls-3" width="3" height="3" rx="1.5" transform="translate(128 133)"/>
            </g>
            <g transform="translate(-128 -106)">
                <rect id="round-4" data-name="round" class="cls-3" width="3" height="3" rx="1.5" transform="translate(128 133)"/>
            </g>
            <g transform="translate(-128 -97)">
                <rect id="round-5" data-name="round" class="cls-3" width="3" height="3" rx="1.5" transform="translate(128 133)"/>
            </g>
            <g transform="translate(-128 -88)">
                <rect id="round-6" data-name="round" class="cls-3" width="3" height="3" rx="1.5" transform="translate(128 133)"/>
            </g>
        </g>
        <rect id="pin" width="8" height="8" rx="4" transform="translate(32 139)" style="fill:#2dbb54"/>
        <rect id="pin-2" data-name="pin" width="8" height="8" rx="4" transform="translate(32 207)" style="fill:red"/>
    </g>
</svg>
