<svg xmlns="http://www.w3.org/2000/svg" xmlns:xlink="http://www.w3.org/1999/xlink" width="35" height="35" viewBox="0 0 35 35">
  <defs>
    <clipPath id="clip-path">
      <rect id="Rectangle_19656" data-name="Rectangle 19656" width="19.593" height="19.642" fill="#fff"/>
    </clipPath>
  </defs>
  <g id="Group_139205" data-name="Group 139205" transform="translate(-31 -583)">
    <g id="Group_15760" data-name="Group 15760" transform="translate(0 245)">
      <circle id="Ellipse_58" data-name="Ellipse 58" cx="17.5" cy="17.5" r="17.5" transform="translate(31 338)" fill="#fff" opacity="0.25"/>
      <g id="Group_12157" data-name="Group 12157" transform="translate(39 346)">
        <g id="Group_12157-2" data-name="Group 12157" clip-path="url(#clip-path)">
          <path id="Path_10925" data-name="Path 10925" d="M0,9.791Q0,5.633,0,1.475A1.432,1.432,0,0,1,.248.723a1.474,1.474,0,0,1,.727-.6A1.276,1.276,0,0,1,1.461,0q6.5,0,13,0A1.626,1.626,0,0,1,15.3.3a1.8,1.8,0,0,1,.46.516,1.756,1.756,0,0,1,.151.407,1.278,1.278,0,0,1,.042.453q0,4.553,0,9.106a.364.364,0,0,0,.019.206c.081-.026.138.045.216.05a2.15,2.15,0,0,1,.536.146,4.135,4.135,0,0,1,1.087.575,3.683,3.683,0,0,1,.658.576,4.522,4.522,0,0,1,.6.861,4.789,4.789,0,0,1,.365.875.885.885,0,0,1,.057.273c0,.077.06.122.051.2s-.024.141.04.2c0,0,0,.014,0,.021,0,.335.021.672-.009,1a2.6,2.6,0,0,1-.1.533c-.053.171-.082.351-.152.514a4.639,4.639,0,0,1-.439.844,4.4,4.4,0,0,1-.635.762,5.276,5.276,0,0,1-.835.615,4.65,4.65,0,0,1-.963.411,2.484,2.484,0,0,1-.515.1,1.161,1.161,0,0,1-.281.05.576.576,0,0,0-.262.032.286.286,0,0,1-.263-.022c-.027-.02-.054-.011-.081-.012-.043,0-.085,0-.128,0q-6.723,0-13.446,0a1.426,1.426,0,0,1-.753-.247,1.462,1.462,0,0,1-.605-.726A1.3,1.3,0,0,1,0,18.128q0-4.168,0-8.337m18.215,5.464c-.019-.141.039-.313-.043-.472a.6.6,0,0,0-.047-.3A3.6,3.6,0,0,0,18,14.127a3.219,3.219,0,0,0-.308-.556,3.438,3.438,0,0,0-.452-.5,2.64,2.64,0,0,0-.593-.425,2.176,2.176,0,0,0-.6-.24,3.09,3.09,0,0,0-1.529,0,2.929,2.929,0,0,0-.592.217,3.716,3.716,0,0,0-.342.208,4.1,4.1,0,0,0-.661.618,3.486,3.486,0,0,0-.217.335,1.99,1.99,0,0,0-.177.376,3,3,0,0,0-.21.831,1.371,1.371,0,0,0,0,.341c.011.115-.049.24.04.346A.952.952,0,0,0,12.4,16c.05.213.155.407.217.615a1.267,1.267,0,0,1,.209.32,2.721,2.721,0,0,0,.628.673,2.513,2.513,0,0,0,.687.4,2.921,2.921,0,0,0,.916.209,2.136,2.136,0,0,0,.688-.037c.135-.039.279-.046.412-.091a2.648,2.648,0,0,0,.564-.236,3.736,3.736,0,0,0,.751-.615,2.87,2.87,0,0,0,.441-.631,2.554,2.554,0,0,0,.2-.517,2.672,2.672,0,0,0,.107-.6c0-.071,0-.142,0-.237M7.957,8.639c1.382,0,2.764,0,4.145,0a.622.622,0,0,0,.6-.446c.078-.084.032-.187.042-.282a.483.483,0,0,0-.164-.4A.79.79,0,0,0,12,7.27q-4.017,0-8.034,0a1.531,1.531,0,0,0-.36.064c-.1.025-.158.133-.242.19-.135.092-.137.245-.189.372a.4.4,0,0,0,.038.259.692.692,0,0,0,.647.491c1.367-.012,2.735-.005,4.1-.005m.011-5c-1.353,0-2.707,0-4.06,0a.89.89,0,0,0-.371.086.685.685,0,0,0,.346,1.285q4.06,0,8.12,0a.741.741,0,0,0,.626-.3.621.621,0,0,0,.091-.6.71.71,0,0,0-.691-.475c-1.353.007-2.707,0-4.06,0M6.825,10.948q-1.506,0-3.012,0a.569.569,0,0,0-.2.033.673.673,0,0,0-.393.413.338.338,0,0,0-.055.212c.022.091.033.185.06.274a.423.423,0,0,0,.134.18c.042.038.078.083.122.12s.088.086.133.087c.119,0,.224.053.345.052q2.777-.008,5.554,0a1.542,1.542,0,0,0,.453-.039.633.633,0,0,0,.37-.233.686.686,0,0,0,.1-.651.777.777,0,0,0-.267-.335.53.53,0,0,0-.337-.114c-1,.007-2.008,0-3.012,0m-.451,5c.847,0,1.695,0,2.542,0a.666.666,0,0,0,.434-.186.81.81,0,0,0,.218-.42c.023-.083-.022-.144-.026-.212a.542.542,0,0,0-.225-.4.7.7,0,0,0-.445-.16q-2.51.009-5.02,0a.831.831,0,0,0-.459.183.425.425,0,0,0-.173.268.536.536,0,0,0-.02.372.9.9,0,0,0,.231.378.723.723,0,0,0,.443.173c.833-.007,1.666,0,2.5,0" transform="translate(0 0)" fill="#fff"/>
          <path id="Path_10926" data-name="Path 10926" d="M233.029,242.662a.544.544,0,0,1-.473-.195c-.306-.308-.607-.622-.923-.919a.711.711,0,0,1,0-.94.719.719,0,0,1,.823-.129.583.583,0,0,1,.115.082c.127.124.251.252.378.376.088.086.117.086.206,0q.62-.618,1.239-1.237a1.11,1.11,0,0,1,.142-.117.693.693,0,0,1,.809.11.713.713,0,0,1,.207.514.942.942,0,0,1-.2.452q-.9.907-1.812,1.811a.6.6,0,0,1-.517.193" transform="translate(-218.235 -225.816)" fill="#fff"/>
        </g>
      </g>
    </g>
  </g>
</svg>
