<svg xmlns="http://www.w3.org/2000/svg" xmlns:xlink="http://www.w3.org/1999/xlink" width="35" height="35" viewBox="0 0 35 35">
  <defs>
    <clipPath id="clip-path">
      <rect id="Rectangle_19919" data-name="Rectangle 19919" width="19.174" height="19.177" fill="#fff"/>
    </clipPath>
  </defs>
  <g id="Group_15765" data-name="Group 15765" transform="translate(-31 -460)">
    <circle id="Ellipse_106" data-name="Ellipse 106" cx="17.5" cy="17.5" r="17.5" transform="translate(31 460)" fill="#fff" opacity="0.25"/>
    <g id="Group_15764" data-name="Group 15764" transform="translate(39 468)">
      <g id="Group_15764-2" data-name="Group 15764" clip-path="url(#clip-path)">
        <path id="Path_11889" data-name="Path 11889" d="M0,219.845q0-1.7,0-3.395c0-.341.1-.441.437-.441q.859,0,1.717,0c.288,0,.4.112.4.4a2.229,2.229,0,0,1,0,.339c-.028.192.049.247.235.257a7.438,7.438,0,0,1,2.508.6c.184.077.363.166.55.234a1.793,1.793,0,0,0,.628.093q1.478-.005,2.956,0A1.278,1.278,0,0,1,9.7,220.46a1.781,1.781,0,0,1-.357.025q-1.618,0-3.235,0c-.174,0-.321.04-.385.219-.08.226.083.42.354.421.832,0,1.664.006,2.5,0a7,7,0,0,0,1.235-.036,1.908,1.908,0,0,0,1.548-2.062.171.171,0,0,1,.117-.212c1.2-.517,2.4-1.046,3.606-1.557a1.087,1.087,0,0,1,1.537,1.034,1.058,1.058,0,0,1-.589.912q-2.682,1.5-5.362,3l-1.654.925a1.8,1.8,0,0,1-1.076.219c-1.417-.133-2.836-.259-4.254-.387-.318-.029-.637-.048-.954-.088-.153-.02-.184.034-.17.168a2.134,2.134,0,0,1,0,.3.316.316,0,0,1-.337.339q-.939.007-1.877,0c-.232,0-.34-.134-.34-.4q0-1.718,0-3.435" transform="translate(0 -204.503)" fill="#fff"/>
        <path id="Path_11890" data-name="Path 11890" d="M169.2,7.12a7.186,7.186,0,0,1-1.257.755c0-.072-.009-.127-.009-.183,0-.805,0-1.611,0-2.416a.235.235,0,0,1,.132-.254.306.306,0,0,0,.141-.453.324.324,0,0,0-.472-.084,1.754,1.754,0,0,1-1.608.137c-.124-.049-.17.019-.234.083-.735.734-1.466,1.471-2.2,2.2a1.24,1.24,0,0,1-1.759.028,1.2,1.2,0,0,1,.012-1.733c.637-.652,1.288-1.292,1.932-1.937.094-.094.192-.185.28-.284a.314.314,0,0,0,.008-.463.32.32,0,0,0-.464.02c-.3.288-.584.583-.877.874-.051.05-.094.105-.181.105-.711,0-1.421,0-2.136,0,0-.085.061-.111.1-.15.672-.674,1.348-1.344,2.017-2.021a2.3,2.3,0,0,1,1.718-.707c1.551.007,3.1,0,4.653.007.188,0,.232-.054.224-.231-.012-.3.105-.412.4-.413q.559,0,1.118,0c.276,0,.393.114.393.385q0,3.445,0,6.889c0,.283-.115.393-.4.394-.353,0-.706,0-1.058,0s-.444-.087-.455-.445c0-.025-.005-.05-.011-.106" transform="translate(-151.95 0)" fill="#fff"/>
        <path id="Path_11891" data-name="Path 11891" d="M55.539,78.068c-.163.156-.328.31-.489.468a1.857,1.857,0,0,0-.436.614.214.214,0,0,1-.24.147c-1.225,0-2.45,0-3.674,0-.348,0-.415.058-.465.4a.65.65,0,0,1-.59.559c-.272.031-.363.127-.364.4q0,.729,0,1.458c0,.255.1.358.354.385a.644.644,0,0,1,.6.61c.027.245.13.347.372.347q3.784,0,7.568,0c.24,0,.344-.1.37-.349a.645.645,0,0,1,.6-.608c.254-.027.352-.131.353-.387q0-.739,0-1.478c0-.242-.1-.345-.345-.375a.654.654,0,0,1-.1-.014c-.1-.027-.222-.045-.255-.136s.094-.144.154-.207c.2-.212.414-.414.619-.624a.2.2,0,0,1,.208-.067,2,2,0,0,0,.852.013c.115-.025.147.012.147.129,0,1.671,0,3.341,0,5.012,0,.26-.125.369-.409.369h-11.9c-.382,0-.471-.089-.471-.468q0-2.9,0-5.791c0-.356.1-.452.446-.452h7.064l.026.051" transform="translate(-45.446 -73.861)" fill="#fff"/>
        <path id="Path_11892" data-name="Path 11892" d="M88.419,116.865c-1.125,0-2.249,0-3.374,0a.2.2,0,0,1-.232-.15,1.192,1.192,0,0,0-.727-.722.174.174,0,0,1-.139-.2c.009-.253.007-.506,0-.758a.152.152,0,0,1,.118-.173,1.22,1.22,0,0,0,.761-.765.154.154,0,0,1,.177-.113q1.647,0,3.294,0c.1,0,.152.017.161.138a1.763,1.763,0,0,0,1.176,1.59,1.789,1.789,0,0,0,1.932-.357,9.268,9.268,0,0,0,.668-.658c.081-.085.141-.1.226-.011a.312.312,0,0,0,.149.1c.276.058.325.243.288.484a.407.407,0,0,0,0,.1c.032.338.036.634-.389.771a.844.844,0,0,0-.471.568c-.047.139-.118.16-.245.16-1.125,0-2.249,0-3.374,0" transform="translate(-79.476 -107.916)" fill="#fff"/>
      </g>
    </g>
  </g>
</svg>
