<?xml version="1.0" encoding="UTF-8"?><svg id="Layer_1" xmlns="http://www.w3.org/2000/svg" viewBox="0 0 30 30"><path d="M24.58,11.24c.05-.22.05-.44.01-.66H5.17c-.05.22-.04.45.03.66h19.38Z"/><path d="M24.56,13.04c.07-.21.06-.45-.03-.65H5.19c-.08.21-.07.45.05.65h19.33Z"/><path d="M5.16,20.33h5.51c.03-.22.03-.44,0-.66h-5.52c-.03.22-.02.44,0,.66Z"/><path d="M26.39,8.14s.04-.32-.32-.32H3.92c-.26,0-.3.16-.31.26v12.82c0,.12,0,.25.03.37.09.54.54.92,1.07.92.02,0,.05,0,.07,0,2.61,0,5.25,0,7.92,0,4.1,0,8.27,0,12.45,0,.7,0,1.24,0,1.24-.91v-13.13h0ZM4.17,8.7c0-.07.06-.13.13-.13h21.43c.07,0,.13.06.13.13v8.52c0,.07-.06.13-.13.13h-3.68c-.04.18-.05.36-.03.55,0,.45-.14.8-.39,1.02-.18.17-.41.25-.68.25-.03,0-.06,0-.09,0-.61-.11-1.02-.65-.96-1.25.01-.18,0-.36-.02-.55H4.3c-.07,0-.13-.06-.13-.13v-8.53ZM25.85,20.88c0,.4-.18.58-.57.58H4.78c-.06,0-.13,0-.19,0-.21-.02-.38-.19-.4-.4-.02-.11-.03-.23-.03-.35v-2.19c-.01-.1,0-.22.05-.33.02-.05.07-.08.12-.08h14.87c.07,0,.12.05.13.11.2,1.03.71,1.59,1.51,1.67.9.08,1.48-.46,1.78-1.68.01-.06.06-.1.12-.1h2.96s.09.02.11.07c.03.04.05.08.05.12,0,.29,0,.57,0,.86,0,.57,0,1.15,0,1.72Z"/></svg>