<?xml version="1.0" encoding="UTF-8"?>
<svg xmlns="http://www.w3.org/2000/svg" version="1.1" viewBox="0 0 30 30">
  <!-- Generator: Adobe Illustrator 28.7.1, SVG Export Plug-In . SVG Version: 1.2.0 Build 142)  -->
  <g>
    <g id="Layer_1">
      <path d="M23.9,11.2v-.7h-14.9v.7h14.9Z"/>
      <path d="M21.6,13v-.7h-12.6v.7h12.6Z"/>
      <path d="M5.2,19.7h0v.7h7.5v-.7h-7.5Z"/>
      <path d="M26.3,8.2s0-.4-.2-.4H3.9c-.3,0-.3.2-.3.3v13.2c0,.5.5.9,1.1.9s0,0,0,0h20.4c.8,0,1.2,0,1.2-.9v-13.1h0ZM4.3,8.6h21.3s.1,0,.1.1v8.5s0,.1-.1.1h-3.7v.5c0,.4-.1.8-.4,1-.2.2-.4.3-.7.3s0,0,0,0c-.6-.1-1-.6-1-1.3v-.5H4.3v-8.6h0ZM25.8,21c0,.4-.1.5-.5.5H4.6c-.2,0-.4-.2-.4-.4v-2.9h15s.1,0,.1.1c.2,1,.7,1.6,1.5,1.7.9,0,1.5-.5,1.8-1.7h3.2v2.7h0Z"/>
      <path d="M6.5,13.1c-.7,0-1.3-.6-1.3-1.3s.6-1.3,1.3-1.3,1.3.6,1.3,1.3-.6,1.3-1.3,1.3ZM6.5,11.2c-.3,0-.6.3-.6.6s.3.6.6.6.6-.3.6-.6-.3-.6-.6-.6Z"/>
    </g>
  </g>
</svg>