<?xml version="1.0" encoding="UTF-8"?><svg id="Layer_1" xmlns="http://www.w3.org/2000/svg" viewBox="0 0 30 30"><path d="M24.05,23H5.95c-1.29,0-2.34-1.05-2.34-2.35v-11.3c0-1.29,1.05-2.35,2.34-2.35h18.1c1.29,0,2.34,1.05,2.34,2.35v11.3c0,1.29-1.05,2.35-2.34,2.35ZM5.95,7.7c-.91,0-1.65.74-1.65,1.65v11.3c0,.91.74,1.65,1.65,1.65h18.1c.91,0,1.65-.74,1.65-1.65v-11.3c0-.91-.74-1.65-1.65-1.65H5.95Z"/><path d="M12.96,20.03v-1.43c.04-1.03-.46-2.01-1.38-2.67-.04-.03-.08-.07-.12-.1l-.31-.27.23-.29c.84-.97.74-2.29-.24-3.15-.42-.36-.98-.54-1.54-.54s-1.07.17-1.49.5c-1.01.85-1.14,2.22-.29,3.2l.27.33-.36.24c-.81.54-1.34,1.34-1.45,2.21-.05.44-.06.9-.04,1.36,0,.11,0,.2,0,.3,0,.1,0,.21,0,.31-.01.14.03.26.12.36.07.05.19.09.32.08h5.81c.27,0,.45-.08.46-.44h-.01ZM7.97,13.79c0-.38.16-.76.48-1.06h0c.29-.28.71-.45,1.15-.45.97.05,1.67.72,1.63,1.52,0,.38-.16.76-.47,1.06-.29.28-.72.45-1.16.45-.96-.05-1.68-.73-1.64-1.51ZM12.24,19.75h-5.18l-.06-.35c-.35-2.15.81-2.96,1.84-3.27.72-.21,1.52-.12,2.14.26.67.41,1.11,1.04,1.2,1.73.04.3.05.59.04.89h0v.74Z"/><rect x="14.65" y="13.46" width="9.18" height=".65"/><rect x="14.65" y="15.33" width="9.18" height=".65"/></svg>