<?xml version="1.0" encoding="UTF-8"?><svg id="Layer_1" xmlns="http://www.w3.org/2000/svg" viewBox="0 0 30 30"><path d="M15,25.76c-5.93,0-10.76-4.83-10.76-10.76S9.07,4.24,15,4.24s10.76,4.83,10.76,10.76-4.83,10.76-10.76,10.76ZM15,4.75c-5.65,0-10.25,4.6-10.25,10.25s4.6,10.25,10.25,10.25,10.25-4.6,10.25-10.25-4.6-10.25-10.25-10.25Z"/><polygon points="14.02 15.96 14.06 21.34 16.04 21.33 15.99 15.95 21.34 15.9 21.32 13.95 15.98 13.99 15.94 8.66 13.96 8.67 14 14.01 8.66 14.05 8.68 16.01 14.02 15.96"/></svg>