<?xml version="1.0" encoding="UTF-8"?><svg id="Layer_1" xmlns="http://www.w3.org/2000/svg" viewBox="0 0 30 30"><path d="M15,4.07c-2.75,2.39-5.47,4.75-8.3,7.21-.94.82-1.89,1.64-2.83,2.45.1.12.21.24.31.36l.02.03c.07.08.13.15.2.23l.71-.62c.1-.08.22-.13.34-.13.08,0,.15.02.22.05.19.08.31.27.31.48v.34c0,2.89,0,5.78,0,8.67,0,.06,0,.11,0,.16.02.61.27,1.17.72,1.59.42.39.95.6,1.52.6.03,0,.05,0,.08,0h2.08c-.23-.26-.45-.53-.67-.8h-1.29c-.09.02-.24.02-.39,0-.39-.06-.74-.27-.98-.59-.24-.32-.33-.72-.27-1.11v-10.46c0-.15.06-.3.17-.4l7.69-6.68c.2-.17.49-.17.69,0l7.69,6.67c.09.08.15.18.17.29,0,.03.02.14.02.18,0,3.53,0,7.06,0,10.59,0,.03,0,.1,0,.16-.03.39-.21.74-.5,1-.3.26-.67.38-1.05.35h-1.38c-.21.26-.43.53-.66.8h.04c.8,0,1.57,0,2.35,0,.16,0,.33-.04.49-.11.94-.33,1.56-1.22,1.53-2.21v-9.02c0-.2.12-.39.31-.48.19-.08.41-.05.56.08l.71.62.53-.61L15,4.07Z"/><path d="M10.22,18.07c-.1,1.25.22,2.52.91,3.58.82,1.29,1.82,2.47,2.96,3.49.29.28.6.54.91.79.89-.73,1.73-1.54,2.48-2.41.83-.9,1.49-1.92,1.97-3.04.45-1.1.49-2.32.1-3.45-.66-1.96-2.49-3.28-4.55-3.28-.25,0-.5.02-.75.06-2.13.36-3.79,2.11-4.03,4.26ZM13.65,14.81h0c.37-.13.74-.2,1.11-.23,1.09-.05,2.11.3,2.9,1,.8.71,1.27,1.69,1.34,2.76.04,1.05-.25,2.06-.83,2.92-.77,1.19-1.69,2.28-2.75,3.24,0,0-.01.01-.01.02-.1.12-.25.18-.4.18-.13,0-.25-.05-.34-.13-1.35-1.17-2.44-2.57-3.26-4.16-.06-.12-.11-.24-.16-.37-.38-1.02-.34-2.13.12-3.12.46-.99,1.27-1.75,2.29-2.13Z"/><path d="M15,17.53c-.27,0-.52.11-.71.3-.19.19-.3.45-.29.72,0,.56.46,1.01,1.01,1.01.55,0,1.01-.46,1.01-1.02h0c0-.56-.46-1.01-1.02-1.01Z"/></svg>