<?xml version="1.0" encoding="UTF-8"?><svg id="Layer_1" xmlns="http://www.w3.org/2000/svg" viewBox="0 0 30 30"><path d="M9.06,17.51h5.94s.01,0,.02,0h5.63c.1,0,.2,0,.3,0,.05,0,.09,0,.14,0,.18,0,.33-.07.44-.18.11-.12.17-.27.16-.43,0-.19,0-.38,0-.56,0-.02,0-.03,0-.03,0-.33-.28-.59-.6-.59-.01,0-.02,0-.04,0-.05,0-.11,0-.16.01-.16.02-.33.04-.45-.08-.11-.12-.09-.29-.07-.45,0-.06.01-.12.01-.17.02-.34-.23-.64-.56-.66-.09-.01-.23-.04-.24-.23-.09-1.71-.09-3.43-.01-5.1.01-.25.16-.28.31-.28.37,0,.78,0,1.24,0,.17,0,.3-.06.4-.16s.16-.24.16-.38c0-.23,0-.46,0-.68,0-.17-.06-.3-.16-.4-.1-.1-.23-.15-.37-.15h-.01c-.22,0-.41,0-.6,0-.01,0-.03,0-.04,0-.18,0-.36-.05-.52-.14-.59-.32-1.17-.65-1.76-.97-.99-.55-1.99-1.1-2.98-1.65-.14-.09-.32-.09-.45,0-.51.28-1.01.56-1.52.84-.89.49-1.81,1-2.71,1.51-.47.32-1.06.47-1.64.43-.04,0-.08,0-.11,0-.29.02-.51.25-.51.53,0,.14,0,.27,0,.41v.21s0,.08,0,.12c.03.3.31.53.6.5.42,0,.86,0,1.29,0,.06,0,.16,0,.22.07.06.06.07.15.07.22,0,.27.01.54.02.82,0,.27.02.55.02.82.02,1.12,0,2.27-.06,3.4,0,.01,0,.02,0,.04,0,.07,0,.23-.22.26-.49.06-.65.26-.65.78s-.04.59-.58.59h-.16c-.3.01-.56.26-.57.57,0,.1,0,.2,0,.3v.16c0,.54.21.75.75.75ZM11.21,6.68h.02c1.19-.67,2.39-1.33,3.58-1.99.09-.08.25-.1.38-.02,1.24.69,2.47,1.37,3.71,2.06.04.03.07.05.09.08.03.03.04.07.02.11s-.05.06-.09.06h-7.78s-.06-.01-.08-.04c-.02-.02-.02-.06-.02-.09.03-.11.11-.15.16-.17ZM9.07,8.34c-.12,0-.21-.01-.27-.08-.07-.07-.07-.17-.07-.26v-.03c.02-.52.06-.56.6-.56h11.55c.34,0,.39.04.39.38,0,.5-.05.54-.55.54h-5.73s-.01,0-.02,0h-1.16c-1.58,0-3.15,0-4.73,0ZM18.43,11.39l-.02-.55c-.02-.54-.03-1.15-.06-1.76,0-.1,0-.19.06-.25.06-.06.15-.07.23-.07.24,0,.35,0,.42.08.07.08.07.19.06.4-.07,1.76-.06,3.28.02,4.67,0,.19.02.3-.06.38-.07.07-.18.07-.36.07-.06,0-.09,0-.13,0-.02,0-.04,0-.06,0-.07,0-.12,0-.17-.05-.06-.06-.05-.13-.04-.29v-.08c.04-.52.05-1.06.06-1.63,0-.29.01-.6.02-.92,0,0,0-.01,0-.02ZM17.96,11.57c.03.81.03,1.66-.02,2.53,0,.18-.09.26-.28.26h-.06c-.43,0-.47-.06-.5-.5-.08-1.42-.08-2.93-.02-4.75,0-.1.02-.22.1-.3.08-.07.2-.08.3-.07h.04c.36.02.43.06.43.46,0,.53,0,1.05,0,1.58v.76s0,.01,0,.02ZM15.87,9.08c0-.09,0-.19.07-.25.07-.07.16-.07.25-.07h.03c.4.01.44.06.44.45v.03c0,.52,0,1.03,0,1.55v.77s0,.01,0,.02c-.03.82-.02,1.65.03,2.47,0,.08,0,.18-.06.25-.06.06-.15.07-.23.07h-.03c-.25,0-.36,0-.44-.09-.08-.08-.07-.2-.06-.44.08-1.58.08-3.18,0-4.76ZM15.46,14.09c-.01.2-.1.28-.29.28-.48,0-.53-.05-.55-.51-.08-1.49-.08-3.06,0-4.81,0-.2.1-.29.31-.29.48,0,.56.04.56.53.01.54,0,1.08,0,1.61,0,.22,0,.45,0,.67.03.81.02,1.66-.02,2.53ZM13.46,10.85c0-.58,0-1.17-.05-1.76,0-.08,0-.18.06-.25s.16-.07.25-.07c.22,0,.33,0,.4.09.07.08.07.19.06.4-.07,1.6-.06,3.21.03,4.79,0,.09,0,.19-.07.26-.06.06-.14.07-.23.07-.01,0-.02,0-.04,0h-.03c-.21,0-.32-.01-.4-.09-.08-.08-.07-.21-.06-.41.03-.56.04-1.11.05-1.7,0-.22,0-.43.01-.66,0-.21,0-.44,0-.66ZM12.99,11.55c.03.73.03,1.53-.02,2.51,0,.19-.06.31-.31.31h-.03c-.44,0-.49-.06-.51-.51-.08-1.55-.08-3.12,0-4.81,0-.21.1-.3.3-.3.48,0,.56.04.57.52,0,.51,0,1.01,0,1.52,0,.24,0,.49,0,.73,0,0,0,.02,0,.02ZM10.91,9.09c0-.08,0-.19.07-.26.07-.07.17-.07.26-.07h.03c.39.01.43.06.42.46,0,.2-.01.4-.02.6-.02.58-.04,1.12-.03,1.55,0,.01,0,.02,0,.03,0,1.12.03,1.92.08,2.68,0,.08,0,.16-.06.22-.07.08-.19.07-.28.07-.22,0-.33,0-.41-.08-.08-.09-.08-.22-.07-.45.08-1.62.08-3.22,0-4.75ZM10.66,14.78h8.9c.36,0,.41.05.41.4,0,.25,0,.37-.08.46s-.21.08-.45.08h-4.4s-.02,0-.03,0h-1.55c-1.04,0-2.07,0-3.1,0h0c-.08,0-.18,0-.24-.07-.07-.07-.07-.16-.07-.25,0-.58.05-.63.63-.63ZM8.79,16.21c.06-.06.15-.06.31-.06.05,0,.1,0,.16,0h11.61c.35,0,.4.05.4.4,0,.06,0,.11,0,.16,0,.16,0,.25-.06.32-.05.05-.12.06-.24.06-.03,0-.06,0-.09,0h-.14s-5.76,0-5.76,0h-5.83c-.37,0-.42-.05-.42-.41,0-.06,0-.12,0-.17,0-.16,0-.25.06-.31Z"/><path d="M22.08,22.67c.51.97,1.09,1.93,1.7,2.84.06.1.14.16.22.16h0c.1,0,.2-.07.28-.19.43-.67.86-1.36,1.28-2.05.29-.48.52-.99.68-1.52.05-.13.08-.25.11-.36.12-.59,0-1.19-.33-1.69-.34-.5-.85-.84-1.46-.96-.19-.05-.27-.15-.27-.34v-1.08c0-.45-.04-.5-.51-.5h-8.21c-.08,0-.16-.02-.21-.06-.07-.07-.08-.16-.08-.23,0-.14,0-.28,0-.42v-.21c0-.15-.05-.33-.27-.34h0c-.07,0-.13.02-.17.06-.06.06-.1.16-.1.29-.01.14-.01.28,0,.41.02.11.02.27-.08.37-.1.11-.26.13-.41.13-.98-.01-1.96-.01-2.92,0h-1.1s-.03,0-.05,0h-4c-.41,0-.48.06-.48.45,0,.12,0,.23,0,.35,0,.23,0,.46,0,.69,0,.24-.09.37-.34.43-1.18.27-1.93,1.39-1.71,2.56.07.44.21.86.41,1.26.31.66.71,1.28,1.1,1.89.19.3.39.6.57.91.04.07.11.15.22.15h0c.1,0,.21-.08.29-.21.36-.57.73-1.14,1.08-1.71.41-.63.72-1.31.91-2.03.37-1.09-.19-2.26-1.28-2.66,0,0-.03,0-.05-.01-.24-.07-.45-.22-.57-.44-.13-.22-.16-.47-.09-.71.02-.28.14-.39.44-.39,2.35,0,4.71,0,7.06,0h0c.08,0,.16,0,.24-.02.23-.03.5-.05.66.12.15.15.12.38.1.59-.01.1-.02.2-.01.28.03.28-.14.37-.32.41-1.2.27-1.95,1.4-1.72,2.58.08.45.22.88.43,1.28.31.64.7,1.26,1.08,1.85.19.3.38.6.57.9.03.07.08.12.15.14.07.03.14.03.2,0,.06-.03.11-.08.14-.14.18-.3.37-.59.55-.87.31-.48.63-.98.91-1.49.25-.46.45-.94.57-1.44.36-1.08-.2-2.24-1.28-2.64-.73-.25-.76-.67-.73-1.16.02-.33.18-.39.43-.39h4.67c.99,0,1.98,0,2.97,0h.01c.12,0,.25.01.33.1.09.09.08.23.07.32-.02.17-.02.34,0,.51.02.26-.08.39-.34.46-1.11.25-1.85,1.27-1.74,2.37.06.48.2.95.42,1.39ZM6.99,19.67c.6.35.91,1.04.76,1.71-.06.38-.18.75-.36,1.1-.39.77-.83,1.51-1.31,2.21-.03.04-.07.06-.11.06-.01,0-.02,0-.04,0-.03,0-.06-.02-.08-.05-.75-1-1.31-2.11-1.67-3.3-.17-.69.14-1.38.76-1.73.6-.41,1.43-.42,2.04,0ZM15.65,19.47c.44.16.8.47,1,.89.2.42.22.89.06,1.32-.22.7-.53,1.36-.94,1.97-.1.16-.21.33-.31.5-.08.12-.16.24-.23.37-.04.07-.1.17-.22.17h0c-.12,0-.19-.11-.21-.15-.5-.74-.95-1.53-1.33-2.33-.1-.25-.18-.5-.23-.76-.03-.14-.04-.28-.04-.43.04-.92.81-1.64,1.75-1.64.02,0,.05,0,.07,0,.23,0,.44.03.64.1ZM22.98,19.67c.62-.42,1.44-.42,2.07,0,.61.37.9,1.07.73,1.76-.06.32-.16.64-.3.94-.39.8-.85,1.58-1.36,2.32,0,.02-.02.03-.04.04-.02.02-.05.02-.08.02-.04,0-.08-.02-.1-.05-.74-.99-1.3-2.08-1.66-3.25-.18-.69.11-1.4.72-1.77Z"/><path d="M14.98,21.71h0c.36,0,.66-.29.66-.64,0-.35-.29-.64-.65-.65-.17,0-.34.06-.47.18s-.2.28-.2.45c0,.35.28.65.64.65Z"/><path d="M24.03,20.45h-.02c-.36,0-.65.28-.66.62.01.33.29.6.64.62,0,0,.02,0,.03,0,.17,0,.33-.06.45-.17.13-.12.2-.28.21-.45-.02-.34-.29-.61-.64-.62Z"/><path d="M5.31,21.08c0,.17.07.33.2.45.12.12.29.18.46.18h0c.36,0,.65-.3.65-.65,0-.35-.3-.63-.65-.63h-.01c-.17,0-.34.07-.46.19-.12.12-.19.28-.19.46Z"/></svg>