<svg id="Group_15635" data-name="Group 15635" xmlns="http://www.w3.org/2000/svg" xmlns:xlink="http://www.w3.org/1999/xlink" width="40" height="26" viewBox="0 0 40 26">
  <defs>
    <clipPath id="clip-path">
      <rect id="Rectangle_19903" data-name="Rectangle 19903" width="40" height="26" fill="none"/>
    </clipPath>
  </defs>
  <rect id="Rectangle_19902" data-name="Rectangle 19902" width="40" height="26" fill="#d0edb5"/>
  <g id="Group_15634" data-name="Group 15634">
    <g id="Group_15633" data-name="Group 15633" clip-path="url(#clip-path)">
      <path id="Path_11728" data-name="Path 11728" d="M36.523,9.964V4.257A1.127,1.127,0,0,0,35.45,3.078H4.3A1.127,1.127,0,0,0,3.078,4.095a1.217,1.217,0,0,0,0,.191v17.1a1.119,1.119,0,0,0,1.082,1.155H34.59c.233.008.469-.012.7,0a1.181,1.181,0,0,0,1.238-1.121c0-.034,0-.069,0-.1-.017-3.786-.008-7.571-.008-11.357m-2.577,10.3H5.626c-.278,0-.28,0-.28-.279V5.614c0-.25,0-.25.253-.25H33.9c.365,0,.356-.062.356.358V19.958c0,.312,0,.307-.312.306" fill="#00c569"/>
      <path id="Path_11729" data-name="Path 11729" d="M18.469,10.912a.882.882,0,0,0,.24.642,1.748,1.748,0,0,0,.694.4V9.883a1.13,1.13,0,0,0-.683.323.983.983,0,0,0-.251.706" fill="#00c569"/>
      <path id="Path_11730" data-name="Path 11730" d="M20.169,13.642v2.1a1.215,1.215,0,0,0,.712-.372,1,1,0,0,0,.258-.694.835.835,0,0,0-.252-.635,1.9,1.9,0,0,0-.718-.395" fill="#00c569"/>
      <path id="Path_11731" data-name="Path 11731" d="M19.814,6.3a6.506,6.506,0,0,0-.032,13.012h.052A6.506,6.506,0,0,0,19.814,6.3m2.744,9.462a2.474,2.474,0,0,1-.934.9,3.38,3.38,0,0,1-1.455.412v.97H19.4v-.982a3.364,3.364,0,0,1-1.927-.725,2.137,2.137,0,0,1-.755-1.669h1.8a1.053,1.053,0,0,0,.886,1.041V13.426a10.635,10.635,0,0,1-1.388-.431,2.242,2.242,0,0,1-.91-.694,2.032,2.032,0,0,1-.384-1.3,2.164,2.164,0,0,1,.748-1.7A3.243,3.243,0,0,1,19.4,8.541V7.572h.766v.969a3.114,3.114,0,0,1,1.838.694,2.339,2.339,0,0,1,.772,1.653H20.972a1.108,1.108,0,0,0-.8-.97v2.263a11.381,11.381,0,0,1,1.419.437,2.209,2.209,0,0,1,.9.683,2,2,0,0,1,.384,1.3,2.285,2.285,0,0,1-.317,1.168" fill="#00c569"/>
    </g>
  </g>
</svg>
