<?xml version="1.0" encoding="UTF-8"?><svg id="Layer_1" xmlns="http://www.w3.org/2000/svg" viewBox="0 0 30 30"><path d="M3.72,20.34c0,1.42,1.15,2.57,2.57,2.57h17.43c1.42,0,2.57-1.15,2.57-2.57v-10.68c0-1.42-1.15-2.57-2.57-2.57H6.28c-1.42,0-2.57,1.15-2.57,2.57v10.68ZM4.35,9.66c0-1.06.87-1.93,1.93-1.93h17.43c1.06,0,1.93.87,1.93,1.93v10.68c0,1.06-.87,1.93-1.93,1.93H6.28c-1.06,0-1.93-.87-1.93-1.93v-10.68Z"/><path d="M10.92,17.47c-.05.44-.06.9-.04,1.34h0c0,.07,0,.14,0,.2v.14c0,.09,0,.18,0,.27-.01.13.03.25.11.35.07.06.19.1.3.08h7.39c.29,0,.42-.12.43-.41v-.03s0-1.41,0-1.41c.03-.89-1.12-1.76-1.97-2.4-.11-.08-.21-.16-.31-.24-.04-.03-.08-.06-.11-.09l-.29-.27.22-.29c.77-.95.67-2.26-.23-3.1-.38-.35-.89-.54-1.43-.54s-1.01.18-1.39.5c-.94.84-1.06,2.19-.27,3.15l.25.33-.33.24c-.13.09-.29.2-.46.31-.76.5-1.81,1.19-1.89,1.88ZM13.5,13.26c0-.38.15-.75.44-1.05l.05-.05h0c.26-.24.62-.38,1-.39.88.05,1.54.71,1.5,1.5,0,.38-.15.75-.43,1.04-.27.28-.66.44-1.07.44-.86-.05-1.54-.72-1.5-1.49ZM14.31,15.57h0c.66-.21,1.4-.11,1.97.26.13.09.31.19.5.29.69.38,1.54.86,1.62,1.41.03.28.05.55.04.82v.06s0,.73,0,.73h-6.79l-.05-.35c-.25-1.67,1.3-2.78,2.7-3.23Z"/></svg>