<?xml version="1.0" encoding="UTF-8"?><svg id="Layer_1" xmlns="http://www.w3.org/2000/svg" viewBox="0 0 30 30"><path d="M25.62,13.48c-.41-2.91-2.02-5.55-4.42-7.25-1.56-1.12-3.39-1.79-5.31-1.93h-1.66c-.25,0-.5.02-.75.06-5.86.83-9.95,6.27-9.12,12.13.4,2.84,1.89,5.35,4.18,7.07,2.29,1.72,5.12,2.45,7.95,2.05,5.86-.83,9.95-6.27,9.12-12.13ZM22.68,8.6c.11.02.16.1.2.17,0,.01.02.03.03.04h0c.91,1.16,1.57,2.54,1.89,3.98.1.48.17.97.22,1.44.01.1.02.23-.07.32-.07.08-.18.1-.3.1h-.03c-.37,0-.74,0-1.12,0-.19,0-.37,0-.56,0h-1.68c-.2,0-.38-.04-.39-.36-.03-1.44-.18-2.89-.46-4.31-.03-.13-.07-.36.24-.45.64-.19,1.25-.47,1.79-.86.08-.06.16-.08.23-.07ZM19.48,6.04c.93.44,1.77,1.02,2.51,1.74l-.09.09h0s0,0,0,0l.09-.09s.11.1.1.21c0,.11-.11.17-.15.2-.46.29-.95.52-1.47.68-.02,0-.06.02-.11.02-.03,0-.07,0-.11-.03-.08-.04-.11-.13-.12-.19-.22-.84-.5-1.68-.81-2.48l-.12-.29.29.13ZM15.32,7.27h.12s0,0,0,0h-.12v-.65c0-.43,0-.86,0-1.29,0-.1.01-.22.09-.3.08-.08.2-.08.29-.07.72.06,1.44.2,2.13.39.17.04.33.16.41.32.5.99.9,2.05,1.18,3.13.02.07.04.19-.01.28-.06.09-.16.12-.26.14-1.13.23-2.29.36-3.44.4-.01,0-.03,0-.04,0-.09,0-.19-.01-.26-.08-.09-.08-.09-.21-.09-.3,0-.44,0-.88,0-1.31,0-.22,0-.44,0-.66ZM12.15,5.35c.69-.2,1.41-.33,2.13-.39.08,0,.2,0,.28.07.08.07.09.19.09.29,0,.45,0,.89,0,1.34v.66s0,.64,0,.64c0,.43,0,.85,0,1.28,0,.12-.01.24-.09.32-.07.07-.17.08-.25.08-.01,0-.03,0-.04,0-1.15-.04-2.31-.17-3.44-.4-.11-.02-.22-.05-.27-.15-.06-.09-.04-.21-.01-.29h0c.28-1.06.67-2.09,1.16-3.07.09-.18.25-.32.45-.37ZM7.97,7.79c.76-.74,1.62-1.35,2.57-1.82l.29-.14-.39,1.02c-.22.58-.42,1.18-.57,1.78-.02.08-.05.19-.15.24-.04.02-.07.03-.11.03-.05,0-.1-.01-.14-.03-.49-.16-.96-.38-1.41-.66l-.03-.02c-.06-.03-.14-.08-.15-.19-.01-.1.07-.18.09-.21l.09.09h0s0,0,0,0l-.09-.09ZM4.96,14.25c.15-1.98.88-3.86,2.1-5.43.15-.19.3-.28.56-.09.5.35,1.05.61,1.63.77.19.06.38.16.31.49-.28,1.4-.43,2.84-.46,4.28,0,.08,0,.21-.09.29-.08.07-.18.09-.28.09h-.03c-.37,0-.74,0-1.12,0-.19,0-.38,0-.56,0h-.56c-.37,0-.75,0-1.12,0-.11,0-.23,0-.31-.09-.08-.08-.08-.21-.07-.3h0ZM7.55,21.29c-.08.06-.14.08-.2.08-.13,0-.21-.11-.26-.17l.09-.09s0,0,0,0h0s0,0,0,0l-.1.08c-.99-1.25-1.67-2.73-1.96-4.3-.04-.23-.07-.47-.1-.69-.02-.16-.04-.32-.06-.48-.01-.08-.02-.2.06-.29.08-.09.19-.1.28-.1.38,0,.77,0,1.16,0,.19,0,.39,0,.58,0h.56c.37,0,.75,0,1.12,0,.2,0,.38.04.39.36.03,1.45.18,2.9.46,4.31.05.25-.03.39-.27.46-.62.18-1.21.46-1.74.83ZM10.55,23.99c-.94-.46-1.8-1.07-2.55-1.79h0s-.12-.11-.11-.22.11-.18.17-.21c.45-.28.94-.5,1.45-.67.06-.02.14-.04.22,0,.08.04.11.12.13.18.22.86.52,1.72.87,2.54l.13.31-.3-.15ZM14.65,22.7h-.13s.13,0,.13,0v.65c0,.43,0,.86,0,1.29,0,.11-.01.22-.09.3-.06.06-.14.07-.22.07-.03,0-.05,0-.07,0-.72-.06-1.44-.2-2.13-.39-.19-.05-.34-.18-.42-.35-.5-.98-.89-2.03-1.17-3.1-.02-.08-.04-.19.01-.28.06-.09.16-.12.26-.14,1.14-.23,2.31-.37,3.47-.4.09,0,.2,0,.28.08.08.08.09.2.09.3,0,.44,0,.88,0,1.31,0,.22,0,.44,0,.66ZM14.65,19.31c0,.31-.18.35-.36.36-1.23.03-2.46.17-3.67.42-.04,0-.08.02-.12.02-.05,0-.1-.01-.15-.04-.09-.06-.11-.16-.13-.25-.26-1.37-.41-2.77-.45-4.15,0-.12.02-.2.08-.26.08-.09.21-.09.3-.09h2.75c.46,0,.92,0,1.38,0,.09,0,.2,0,.28.09.08.08.09.18.09.27,0,1.2,0,2.42,0,3.63ZM14.65,14.23h-.13s0,0,0,0c0,0,0,0,0,0h.13c0,.11-.01.23-.1.32-.08.08-.19.09-.28.09h-.03c-.48,0-.97,0-1.46,0h-.57s-.68,0-.68,0c-.46,0-.92,0-1.38,0-.09,0-.21-.01-.29-.09-.08-.08-.08-.2-.08-.29.04-1.36.19-2.74.44-4.09.02-.09.05-.2.15-.27s.21-.05.32-.03c1.17.25,2.38.39,3.58.41.29,0,.41.13.4.41-.01,1.17-.01,2.36,0,3.54ZM15.32,10.7h0c0-.19.05-.39.38-.4,1.21-.02,2.43-.16,3.61-.41.08-.02.21-.04.3.03.1.06.12.18.15.29.18.95.3,1.92.37,2.88.01.16.02.32.03.49,0,.21.02.42.04.63.01.11.01.25-.08.35-.08.09-.21.1-.31.1h-.03c-.48-.01-.97,0-1.44,0-.2,0-.39,0-.59,0h-.68c-.44,0-.88,0-1.33,0-.11,0-.23,0-.31-.09-.08-.08-.09-.21-.09-.29,0-1.18,0-2.38,0-3.57ZM20.2,15.7c-.04,1.37-.19,2.76-.44,4.12-.02.09-.05.19-.13.25-.05.03-.1.04-.15.04-.04,0-.09,0-.13-.02-1.19-.25-2.42-.39-3.63-.42h0c-.26,0-.37-.12-.37-.38,0-1.2,0-2.4,0-3.6,0-.08,0-.2.09-.28.08-.08.19-.09.29-.09.46,0,.92,0,1.38,0h.69s.69,0,.69,0c.46,0,.92,0,1.38,0,.09,0,.2,0,.28.09.08.08.08.19.08.28ZM17.83,24.63c-.69.2-1.41.33-2.13.39-.02,0-.05,0-.07,0-.07,0-.15-.01-.22-.07-.08-.08-.09-.19-.09-.28,0-.45,0-.89,0-1.33v-.67s0-.65,0-.65c0-.43,0-.87,0-1.29,0-.1.01-.22.09-.29.08-.08.2-.08.29-.08,1.16.04,2.33.17,3.47.4.09.02.2.05.25.14.06.09.04.2.01.29h0c-.28,1.07-.67,2.11-1.17,3.09-.08.17-.24.3-.43.35ZM21.98,22.21h0c-.75.72-1.61,1.33-2.55,1.79l-.3.15.13-.31c.35-.82.64-1.68.87-2.54.01-.06.04-.14.12-.19.09-.05.19-.01.23,0,.5.16.99.38,1.44.66.06.04.16.1.17.21s-.08.2-.11.22ZM22.62,21.36c-.08,0-.17-.03-.27-.11-.5-.35-1.05-.61-1.63-.77-.33-.1-.33-.31-.29-.51.27-1.39.43-2.83.45-4.25,0-.1.01-.21.09-.29s.19-.09.28-.09h0c1.13,0,2.29,0,3.42,0,.1,0,.24.01.31.11.08.1.05.22.03.3,0,.03-.02.07-.02.09l-.11.05h.12c-.17,1.93-.89,3.74-2.07,5.26-.09.12-.19.21-.32.21Z"/></svg>