<?xml version="1.0" encoding="UTF-8"?><svg id="Layer_1" xmlns="http://www.w3.org/2000/svg" viewBox="0 0 30 30"><path d="M26.39,9.06c.04-.4-.09-.81-.35-1.12h0s0-.01,0-.01c-.26-.32-.65-.52-1.06-.55l-16.31-1.36s-.09,0-.13,0c-.8,0-1.48.62-1.55,1.43l-.32,3.08c0,.09-.09.16-.18.16h-1.31c-.86,0-1.56.7-1.56,1.56v10.2c0,.86.7,1.56,1.56,1.56h16.36c.86,0,1.56-.7,1.56-1.56v-1.65s.02-.1.06-.13c.04-.03.09-.05.14-.05l.58.05s.09,0,.13,0c.82,0,1.49-.62,1.55-1.43l.85-10.17ZM22.53,22.43c0,.56-.45,1.01-1.01,1.01H5.17c-.56,0-1.01-.45-1.01-1.01v-5.59c0-.1.08-.18.18-.18h18.02c.1,0,.18.08.18.18v5.59ZM22.53,15.94c0,.1-.08.18-.18.18H4.33c-.1,0-.18-.08-.18-.18v-1.88c0-.1.08-.18.18-.18h18.02c.1,0,.18.08.18.18v1.88ZM22.54,13.16c0,.1-.08.18-.18.18H4.33c-.1,0-.18-.08-.18-.18v-.93c0-.56.45-1.01,1.01-1.01.02,0,.04,0,.05,0h16.3c.56,0,1.01.45,1.01,1.01v.92ZM25,19.18c-.04.52-.49.93-1.01.93-.03,0-.06,0-.08,0l-.66-.05c-.09,0-.16-.09-.16-.18v-7.64c0-.86-.7-1.56-1.56-1.56H7.39c-.05,0-.1-.02-.13-.06s-.05-.09-.04-.14l.31-2.98c.02-.28.15-.53.36-.71.18-.15.4-.23.63-.23.03,0,.07,0,.1,0l16.3,1.36c.55.05.96.53.93,1.07,0,0,0,.01,0,.02l-.85,10.17Z"/><path d="M20.71,18.64c0-.07-.02-.13-.07-.18-.05-.05-.11-.07-.17-.07h-4.35c-.14,0-.25.11-.25.25v2.84c0,.14.11.25.25.25h4.35c.14,0,.25-.11.25-.25v-2.84ZM20.22,21.03c0,.11-.09.2-.2.2h-3.45c-.11,0-.2-.09-.2-.2v-1.93c0-.11.09-.2.2-.2h3.45c.11,0,.2.09.2.2v1.93Z"/></svg>