<?xml version="1.0" encoding="UTF-8"?><svg id="Layer_1" xmlns="http://www.w3.org/2000/svg" viewBox="0 0 30 30"><path d="M21.18,25c2.99-.62,5.08-3.2,5.08-6.26,0-2.98,0-5.97,0-8.95v-2.98c0-1.18-.77-1.94-1.96-1.94H5.72c-1.22,0-1.99.76-1.99,1.98v11.77c0,1.22.76,1.98,1.99,1.98h1.66c2.03,0,4.07,0,6.1,0,.22,0,.35.05.44.3,1.04,2.99,4.17,4.75,7.26,4.1ZM4.37,6.73c0-.72.51-1.23,1.24-1.23,1.36,0,2.72,0,4.08,0h1.63s12.95,0,12.95,0c.89,0,1.36.47,1.36,1.35,0,.07,0,.15,0,.22,0,.17,0,.34,0,.5,0,.08,0,.18-.05.24-.05.05-.12.07-.24.07h0c-1.02,0-2.05,0-3.04,0h-9.03c-2.81,0-5.71,0-8.57,0-.13,0-.21-.02-.26-.08-.06-.07-.07-.17-.06-.26,0-.17,0-.35,0-.52,0-.1,0-.2,0-.3ZM4.37,8.76c0-.07,0-.14.05-.19.05-.05.12-.06.19-.05.55,0,1.09,0,1.64,0h3.67c5.04,0,10.25,0,15.37,0,.1,0,.2,0,.27.08.06.07.07.17.07.27-.01.54-.02,1.11,0,1.74,0,.08,0,.18-.06.24-.06.06-.15.07-.24.07h0c-2.76,0-5.52,0-8.28,0h-4.27c-2.69,0-5.39,0-8.08,0h0c-.13,0-.2-.02-.25-.07-.06-.06-.07-.16-.07-.26.01-.63,0-1.27,0-1.81ZM13.64,17.75c-.12.64-.12,1.3,0,1.97.01.06.02.14-.03.19-.04.05-.12.06-.19.06h0c-2.61,0-5.22,0-7.83,0-.68,0-1.2-.52-1.2-1.2,0-1.23,0-2.46,0-3.7,0-1.09,0-2.19,0-3.29,0-.07,0-.15.06-.2.04-.04.1-.06.19-.05.16,0,.32,0,.48,0,.07,0,.13,0,.2,0h2c5.89,0,11.99,0,17.98,0,.14,0,.23.02.28.08.06.07.08.16.08.29,0,.94,0,1.89,0,2.81v1.12l-.11-.15c-.06-.08-.11-.16-.17-.23-.23-.33-.45-.64-.72-.92-1.85-1.94-4.04-2.56-6.51-1.84-2.47.72-3.98,2.42-4.49,5.06ZM19.89,24.5c-1.51,0-2.94-.59-4.02-1.67-1.09-1.08-1.68-2.52-1.68-4.05,0-1.53.6-2.97,1.68-4.05,1.08-1.08,2.52-1.67,4.05-1.67h0c1.52,0,2.96.6,4.04,1.68,1.08,1.08,1.67,2.52,1.67,4.04,0,3.15-2.58,5.72-5.74,5.72h0Z"/><path d="M20.73,17.18c-.02.06-.05.12-.07.18-.01.03-.02.07-.04.1l-.65,1.73h-.14s-.01-.05-.01-.05l-.15-.4c-.19-.5-.38-1.01-.57-1.51-.05-.14-.13-.23-.22-.27-.03-.01-.07-.02-.1-.02-.04,0-.08,0-.12.02-.18.08-.24.25-.16.47.19.5.38,1,.56,1.51.17.46.35.92.52,1.38.07.18.17.26.32.27h0c.15,0,.25-.08.32-.26.05-.15.11-.29.17-.44.05-.13.1-.26.15-.4l.13-.36c.22-.58.43-1.16.65-1.74.07-.2,0-.38-.18-.44-.17-.06-.33.02-.41.22Z"/><path d="M21.89,17.4s.02.06.03.08l.37,1c.23.6.45,1.2.68,1.81.07.19.15.32.34.32h.01c.18,0,.26-.12.33-.32.22-.6.45-1.19.67-1.79l.35-.94c.15-.41.02-.53-.12-.58-.08-.03-.15-.03-.21,0-.1.04-.19.17-.26.37l-.76,2.03-.1-.25c-.03-.07-.04-.11-.06-.15-.08-.21-.16-.42-.23-.63-.14-.39-.29-.77-.44-1.16-.06-.15-.17-.23-.3-.23-.04,0-.08,0-.11.02-.17.07-.24.23-.18.43Z"/><path d="M16.89,16.95c-.16,0-.32.03-.48.08-.47.16-.82.54-.93,1.02-.07.28-.06.57-.05.85,0,.09,0,.19,0,.28,0,.61.42,1.17,1.02,1.35.5.15.95.05,1.36-.28.16-.13.19-.31.08-.46-.11-.14-.29-.16-.46-.04-.02,0-.03.02-.04.03-.02.01-.03.03-.05.04-.25.17-.56.19-.82.05-.26-.13-.43-.39-.44-.69,0-.09,0-.19,0-.28,0-.02,0-.04,0-.07h0v-.17c0-.07,0-.15,0-.22,0-.36.14-.62.43-.77.3-.16.6-.13.9.09.2.14.38.13.5-.03.11-.15.07-.33-.12-.49-.26-.2-.57-.31-.89-.31Z"/><path d="M11.18,15.44c-1.22,0-2.45,0-3.68,0-.41,0-.79.15-1.07.42-.28.27-.43.64-.43,1.03,0,.82.65,1.44,1.51,1.45.43,0,.87,0,1.3,0h1.08c.43,0,.87,0,1.3,0,.85,0,1.49-.63,1.49-1.44,0-.39-.14-.75-.41-1.02-.28-.28-.67-.44-1.09-.44ZM11.15,17.7c-.61,0-1.21,0-1.82,0s-1.21,0-1.82,0c-.51,0-.88-.34-.89-.81,0-.22.08-.42.22-.57.16-.16.4-.25.67-.25.45,0,.91,0,1.36,0h.45s.52,0,.52,0c.44,0,.87,0,1.3,0,.26,0,.49.09.65.25.15.15.23.35.22.56,0,.47-.38.81-.88.81Z"/></svg>