<?xml version="1.0" encoding="UTF-8"?><svg id="Layer_1" xmlns="http://www.w3.org/2000/svg" viewBox="0 0 51.68 51.53"><path d="M49.9,9.81c.67-1.23.88-2.67.57-4.05-.38-2.33-2.09-4.17-4.25-4.58-2.14-.58-4.38.34-5.6,2.28-1.35,1.87-1.48,4.46-.33,6.46.75,1.46,1.52,2.92,2.28,4.33.32.6.64,1.21.96,1.81.15.29.24.45.15.63-.09.18-.26.19-.58.21-2.24.13-4.48.5-6.66,1.09-2.19.53-4.22,1.49-6.05,2.88-1,.76-1.82,1.79-2.35,2.98-.53,1.16-.4,2.56.35,3.58.42.59.91,1.1,1.48,1.51,1.18.85,2.45,1.57,3.77,2.14.83.39,1.68.75,2.5,1.11,1.32.57,2.68,1.15,3.99,1.84.81.39,1.57.9,2.27,1.5.53.49.77.87.79,1.27.02.41-.17.82-.64,1.37-.54.61-1.15,1.14-1.82,1.59-1.65,1.12-3.41,2.08-5.22,2.84-6.32,2.74-12.95,4.73-19.68,5.91-.53.1-1.07.18-1.62.26l-.75.12s-.05,0-.08,0c-.03,0-.06-.01-.08-.03-.06-.03-.11-.1-.12-.18,0-.03,0-.07,0-.1.03-.21.1-.41.23-.58,2.5-4.74,5.02-9.52,7.55-14.29.85-1.6,1.33-3.41,1.37-5.25.06-2.05-.4-4.07-1.33-5.86-1.94-3.74-5.58-5.86-9.32-5.86-1.75,0-3.51.46-5.14,1.43-2.48,1.48-4.28,3.9-5.06,6.83-.78,2.92-.45,6,.93,8.66l8.61,16.3c.16.45.57.67.97.54,3.13-.38,6.25-.94,9.29-1.68,5.3-1.21,10.51-2.97,15.5-5.24,2.04-.89,3.97-2.06,5.74-3.47.71-.54,1.29-1.22,1.72-2.03.49-.88.42-1.99-.19-2.78-.49-.66-1.07-1.21-1.75-1.64-1.37-.87-2.82-1.62-4.31-2.22-2.18-.87-4.34-1.89-6.41-3.04-.72-.4-1.36-.92-1.91-1.55-.71-.71-.82-1.9-.26-2.75.43-.79,1-1.48,1.7-2.04,1.18-.95,2.49-1.67,3.9-2.15,3.19-1.08,6.51-1.64,9.86-1.68.36.03.7-.17.86-.5.67-1.28,1.35-2.56,2.02-3.83.72-1.36,1.44-2.73,2.16-4.1ZM11.7,34.56h0c-1.57,0-3.04-.65-4.15-1.84-1.11-1.19-1.72-2.77-1.72-4.45v-.02c.01-3.47,2.65-6.29,5.89-6.29h.02c3.22.02,5.85,2.84,5.85,6.29,0,3.47-2.63,6.3-5.87,6.3ZM47.6,7.03c0,1.48-1.14,2.7-2.53,2.71h0c-1.4,0-2.53-1.22-2.53-2.71,0-1.49,1.13-2.71,2.53-2.71h0c1.39,0,2.53,1.22,2.53,2.71h0Z"/></svg>