<?xml version="1.0" encoding="UTF-8"?><svg id="Layer_1" xmlns="http://www.w3.org/2000/svg" viewBox="0 0 30 30"><path d="M3.61,9.55v12.04c0,1.14.37,2.07,2.09,2.07h18.62c1.71,0,2.09-.93,2.09-2.07v-12.04c0-1.14-.87-1.57-2.58-1.57h-3.34v-1.22c-.08-.27-.4-.45-.7-.43-.44-.03-.74.18-.79.48v1.17s-7.99,0-7.99,0v-1.22c-.08-.27-.4-.45-.7-.43-.45-.03-.74.18-.79.48v1.17s-3.39,0-3.39,0c-1.71,0-2.53.43-2.53,1.57ZM25.66,21.6c0,1.02-.47,1.33-1.68,1.33H6.12c-.05,0-.77.01-.82.01-.71,0-.97-.55-.96-1.28v-.06s0-7.99,0-7.99h21.33v7.99ZM10.22,10.48c.44.03.74-.18.79-.48v-1.17s7.99,0,7.99,0v1.22c.08.27.36.44.7.43.44.03.74-.18.79-.48v-1.17s3.56,0,3.56,0c1.11,0,1.62.08,1.62,1.17v2.93s-21.33,0-21.33,0v-2.87c0-.87.56-1.22,1.68-1.22h3.52s0,1.22,0,1.22c.08.27.37.44.7.43Z"/></svg>