<?xml version="1.0" encoding="UTF-8"?><svg id="Layer_1" xmlns="http://www.w3.org/2000/svg" viewBox="0 0 30 30"><path id="Path_12216" d="M6.74,16.53v-7.44c-.1-.83.48-1.58,1.3-1.72,3.43-.99,6.87-1.97,10.3-2.96.79-.29,1.67.12,1.96.91.02.07.04.14.06.21.15.53.32,1.07.46,1.61.01.15.14.26.28.25.02,0,.03,0,.05,0,.23-.01.46-.01.69,0,.73.04,1.32.61,1.4,1.33.01.11.02.22.02.33v14.95c.07.78-.46,1.49-1.23,1.65-.13.02-.27.03-.4.03h-13.25c-.84.06-1.57-.57-1.63-1.41,0-.07,0-.15,0-.22v-7.51M7.39,16.5v7.51c-.07.49.27.94.76,1.01.08.01.17.01.25,0h13.18c.49.07.95-.27,1.02-.77.01-.09.01-.18,0-.26v-14.97c.07-.49-.27-.94-.76-1.01-.08-.01-.17-.01-.25,0h-13.18c-.49-.07-.95.26-1.02.75-.01.09-.01.18,0,.28,0,2.49,0,4.97,0,7.46M10.58,7.32v.05h6.37c1.01,0,2.02,0,3.04,0,.2,0,.22-.05.17-.23-.15-.47-.28-.95-.41-1.42-.07-.49-.53-.82-1.01-.75-.08.01-.15.03-.22.06-1.93.55-3.86,1.11-5.79,1.66l-2.15.62"/><path id="Path_12218" d="M15.02,15.56h4.49c.67,0,.96.29.96.97v.65c.01.43-.31.79-.74.82-.04,0-.08,0-.12,0h-9.18c-.29.02-.58-.12-.74-.37-.2-.55-.2-1.16,0-1.71.17-.25.46-.39.76-.36,1.2,0,2.39,0,3.59,0h.99M15.01,16.2h-4.44c-.35,0-.37.02-.37.38v.38c0,.37,0,.38.37.38h8.67c.1,0,.21,0,.31,0,.21.02.29-.08.28-.28,0-.18,0-.35,0-.53,0-.31-.03-.34-.35-.34h-4.47"/><path id="Path_12219" d="M15.03,22.46h4.92c.08,0,.16,0,.24,0,.16.02.27.16.26.32,0,.15-.1.28-.25.31-.08.02-.16.02-.24.02h-9.94c-.08,0-.16,0-.24-.02-.15-.03-.25-.16-.24-.31,0-.15.1-.28.25-.31.08-.01.16-.02.24-.01h4.99"/><path id="Path_12220" d="M14.98,20.55h-4.95c-.08,0-.16,0-.24,0-.15-.02-.26-.16-.25-.31-.01-.15.1-.29.25-.31.09-.01.19-.02.29-.01h10.03c.17-.02.32.11.34.28,0,.01,0,.03,0,.04,0,.19-.13.31-.34.32h-5.14"/><path id="Path_12220-2" d="M14.98,13.97h-4.95c-.08,0-.16,0-.24,0-.15-.02-.26-.16-.25-.31-.01-.15.1-.29.25-.31.09-.01.19-.02.29-.01h10.03c.17-.02.32.11.34.28,0,.01,0,.03,0,.04,0,.19-.13.31-.34.32h-5.14"/><path id="Path_12220-3" d="M14.98,11.17h-4.95c-.08,0-.16,0-.24,0-.15-.02-.26-.16-.25-.31-.01-.15.1-.29.25-.31.09-.01.19-.02.29-.01h10.03c.17-.02.32.11.34.28,0,.01,0,.03,0,.04,0,.19-.13.31-.34.32h-5.14"/></svg>