<?xml version="1.0" encoding="UTF-8"?><svg id="Layer_1" xmlns="http://www.w3.org/2000/svg" viewBox="0 0 30 30"><defs><style>.cls-1{fill:#2d2c29;}</style></defs><path class="cls-1" d="M24.86,7.01s-.07,0-.11,0H5.29c-.77-.09-1.5.42-1.68,1.17v13.61c.05.14.1.26.16.39.29.53.88.84,1.48.8h19.69c.8,0,1.45-.65,1.46-1.45v-13.07c0-.25-.07-.5-.21-.71-.29-.46-.79-.74-1.33-.74ZM4.14,8.58c-.02-.26.07-.5.23-.68.16-.19.39-.29.64-.31.11-.01.24-.02.36-.02h19.23c.15,0,.31,0,.46.03.44.07.77.46.77.91,0,.15,0,.3,0,.45,0,.22,0,.44,0,.66,0,.1,0,.22-.08.3s-.2.09-.3.09h-10.45s-.01,0-.02,0H4.56c-.18,0-.28,0-.35-.07-.07-.07-.07-.17-.07-.36v-1.01ZM25.85,21.56c-.07.51-.51.88-1.01.88-.04,0-.09,0-.13,0H5.26c-.08,0-.17,0-.26-.02,0,0-.03,0-.03,0-.5-.05-.87-.5-.82-1,0-3.49,0-6.98,0-10.48,0-.08,0-.2.08-.27.08-.08.19-.09.3-.09h10.47s.01,0,.02,0h10.4c.38,0,.42.04.42.43v2.49c0,2.56,0,5.21,0,7.82,0,.08,0,.17,0,.25Z"/><path class="cls-1" d="M12.43,11.81h-6.52c-.37,0-.43.06-.43.44v7.15s0,.04,0,.06c0,.08.03.15.09.2.05.05.12.08.19.08h0c.12.01.24.02.34.02h4.72c.52,0,1.04,0,1.56,0,.4,0,.48-.08.48-.48v-3.5s0-.02,0-.02v-3.52c0-.36-.06-.43-.43-.43ZM12.29,15.79c0,.34,0,.67,0,1.01,0,.67,0,1.34,0,2.02,0,.1,0,.2-.08.28-.07.07-.18.08-.28.08-1.84,0-3.7,0-5.54,0h-.01c-.09,0-.19-.01-.27-.08-.08-.07-.09-.19-.09-.27,0-2.02,0-4.07,0-6.1,0-.26.1-.36.36-.36,1.84,0,3.7,0,5.54,0h0c.09,0,.2.01.27.08.07.07.08.19.08.3v3.05Z"/><path class="cls-1" d="M24.38,14.06c-1.1,0-2.2,0-3.3,0-.28,0-.37.1-.37.37v2.2c0,.27.09.36.35.36h1.66s.02,0,.03,0h1.65c.26,0,.36-.1.36-.36,0-.73,0-1.45,0-2.18,0-.28-.11-.39-.39-.39ZM24.18,16.12c0,.07,0,.17-.07.24s-.17.08-.24.08c-.26,0-.52,0-.78,0h-.36s-.01,0-.02,0c-.25,0-.5,0-.75,0-.12,0-.25,0-.37,0h-.02c-.07,0-.16,0-.22-.07-.07-.07-.08-.17-.08-.24,0-.37,0-.75,0-1.16,0-.21.1-.31.3-.31.77,0,1.54,0,2.31,0,.21,0,.3.1.3.3,0,.42,0,.8,0,1.16Z"/><path class="cls-1" d="M19.62,14.65c0-.08-.02-.14-.07-.19-.06-.06-.15-.09-.27-.09h-5.2c-.13,0-.22.03-.28.09-.05.05-.07.12-.07.2,0,.14.05.26.35.26h5.2c.1,0,.34-.03.34-.27Z"/><path class="cls-1" d="M18.08,18h-4.03c-.11,0-.2.03-.25.09-.05.05-.07.12-.07.2,0,.12.04.26.33.26h4.03c.28,0,.32-.13.32-.26,0-.09-.02-.15-.07-.2-.05-.06-.14-.09-.26-.09Z"/><path class="cls-1" d="M20.71,18.3c0,.12.05.26.33.26h1.65s0,0,.01,0h1.64c.21,0,.33-.1.33-.27-.01-.17-.14-.29-.29-.29,0,0-.02,0-.02,0-1.11,0-2.22,0-3.32,0-.02,0-.04,0-.05,0h-.02c-.15.01-.26.14-.25.29Z"/><path class="cls-1" d="M6.63,18.1c-.02.17,0,.29.07.36.06.07.16.1.32.1h2.12s0,0,.01,0h2.15c.17,0,.27-.02.32-.08.05-.05.07-.16.07-.32,0-.68-.31-1.31-.83-1.73-.47-.42-1.07-.63-1.68-.63-.35,0-.7.07-1.02.22-.89.33-1.49,1.15-1.53,2.1ZM9.31,16.37c.76.04,1.43.52,1.71,1.23.05.11.09.23.03.31s-.17.09-.3.09h-1.59s-.02,0-.03,0h-1.57c-.15,0-.26,0-.32-.08-.06-.08-.02-.18.04-.34.32-.8,1.14-1.31,2.01-1.22Z"/><path class="cls-1" d="M9.19,13.01h-.02c-.33,0-.64.13-.88.36-.24.24-.38.55-.39.89,0,0,0,.01,0,.02,0,.7.56,1.27,1.26,1.27h.01c.69,0,1.25-.56,1.27-1.25.01-.7-.55-1.28-1.25-1.29ZM9.87,14.31c0,.18-.09.35-.23.47-.13.12-.29.18-.46.18,0,0-.02,0-.03,0h-.06c-.18,0-.35-.08-.47-.22-.12-.13-.19-.31-.18-.49,0-.38.32-.7.71-.7h0c.19,0,.37.08.5.22s.2.32.2.51c0,0,0,.02,0,.03Z"/></svg>