<?xml version="1.0" encoding="UTF-8"?><svg id="Layer_1" xmlns="http://www.w3.org/2000/svg" viewBox="0 0 30 30"><path d="M23.93,23.07H6.07c-1.38,0-2.5-1.12-2.5-2.5v-11.14c0-1.38,1.12-2.5,2.5-2.5h17.85c1.38,0,2.5,1.12,2.5,2.5v11.14c0,1.38-1.12,2.5-2.5,2.5ZM6.07,7.43c-1.1,0-2,.9-2,2v11.14c0,1.1.9,2,2,2h17.85c1.1,0,2-.9,2-2v-11.14c0-1.1-.9-2-2-2H6.07Z"/><path d="M12.49,19.64h-6.67v-7.62h6.67v7.62ZM6.32,19.14h5.67v-6.62h-5.67v6.62Z"/><path d="M24.15,14.94h-9.69v-2.87h9.69v2.87ZM14.97,14.44h8.69v-1.87h-8.69v1.87Z"/><rect x="14.72" y="17.23" width="8.27" height=".5"/><rect x="14.72" y="19.14" width="7.08" height=".5"/><path d="M10.85,19.64h-3.34v-1.21c0-.92.75-1.67,1.67-1.67s1.67.75,1.67,1.67v1.21ZM8.01,19.14h2.34v-.71c0-.65-.53-1.17-1.17-1.17s-1.17.53-1.17,1.17v.71Z"/><path d="M9.18,16.34c-.7,0-1.28-.57-1.28-1.28s.57-1.28,1.28-1.28,1.28.57,1.28,1.28-.57,1.28-1.28,1.28ZM9.18,14.29c-.43,0-.78.35-.78.78s.35.78.78.78.78-.35.78-.78-.35-.78-.78-.78Z"/><path d="M16.34,10.83h-1.02v-1.52h.39v1.33h.63v.19Z"/><path d="M16.91,10.83h-.39v-1.52h.39v1.52Z"/><path d="M18.53,9.69l-.17.08s-.03-.09-.05-.13c-.02-.04-.05-.07-.08-.1s-.07-.05-.1-.06c-.04-.01-.08-.02-.13-.02-.05,0-.1,0-.14.03-.04.02-.08.04-.11.07-.03.03-.06.07-.09.11-.02.04-.04.08-.06.13s-.03.09-.04.14c0,.05-.01.1-.01.14,0,.07,0,.15.02.22.02.07.04.14.08.2s.08.11.14.14c.06.04.12.05.2.05.04,0,.08,0,.12-.02.04-.02.07-.04.1-.06.03-.03.06-.06.08-.09.02-.04.04-.07.06-.12l.17.07c-.03.07-.06.13-.1.18s-.09.09-.15.13c-.05.03-.11.06-.18.07s-.13.03-.19.03c-.07,0-.14,0-.2-.03-.07-.02-.12-.04-.18-.08-.06-.03-.11-.07-.15-.12-.05-.05-.08-.1-.12-.16s-.06-.12-.08-.19c-.02-.07-.03-.14-.03-.21s0-.15.03-.21c.02-.07.04-.13.08-.19s.07-.11.12-.16.09-.09.15-.12c.05-.03.11-.06.18-.08.06-.02.13-.03.2-.03s.13,0,.2.02c.06.02.12.04.18.08.05.03.1.08.15.13s.08.11.1.18Z"/><path d="M19.78,10.83h-1.02v-1.52h1.02v.19h-.63v.47h.49v.19h-.49v.47h.63v.19Z"/><path d="M20.21,10.83h-.18v-1.52h.26l.87,1.04v-1.04h.18v1.52h-.26l-.87-1.04v1.04Z"/><path d="M22.82,10.37c0,.07,0,.12-.02.17-.02.05-.04.09-.07.13s-.06.07-.1.09-.08.04-.12.06c-.05.01-.09.03-.14.03-.05,0-.1,0-.15,0-.07,0-.13,0-.19-.02-.06-.01-.11-.03-.16-.05-.05-.02-.1-.05-.15-.09-.05-.04-.09-.08-.14-.14l.2-.22s.04.09.08.13c.03.04.07.08.11.11.04.03.08.05.12.07.04.02.08.02.12.02.04,0,.08,0,.12,0s.07-.02.1-.03c.03-.01.05-.04.07-.06.02-.03.02-.06.02-.1,0-.03,0-.05-.02-.08-.01-.02-.03-.04-.05-.05s-.04-.03-.07-.04-.05-.02-.08-.03-.05-.01-.08-.02c-.03,0-.05-.01-.07-.02-.04-.01-.08-.03-.12-.04-.04-.01-.08-.03-.12-.05s-.08-.04-.12-.06c-.04-.02-.07-.05-.1-.08s-.05-.07-.07-.11c-.02-.04-.03-.09-.03-.14,0-.06,0-.12.02-.17.02-.05.04-.09.06-.13.03-.04.06-.07.1-.09.04-.03.08-.05.12-.06s.09-.03.14-.03.1,0,.15,0c.07,0,.14,0,.19.02.06.01.11.04.16.06s.09.06.14.09c.04.04.08.08.12.12l-.2.22c-.02-.05-.04-.1-.07-.14s-.06-.08-.09-.1c-.03-.03-.07-.05-.11-.07-.04-.02-.07-.02-.11-.02-.05,0-.09,0-.13,0s-.07.02-.1.03c-.03.01-.05.04-.06.06s-.02.06-.02.1c0,.03,0,.06.02.08.01.02.03.04.04.05.02.01.04.03.06.04.02,0,.05.02.07.03.03,0,.05.01.08.02.03,0,.05.01.07.02.04.01.08.02.12.04s.09.03.13.05c.04.02.08.04.12.06s.07.05.1.08c.03.03.05.07.07.11.02.04.03.09.03.14Z"/><path d="M24.09,10.83h-1.02v-1.52h1.02v.19h-.63v.47h.49v.19h-.49v.47h.63v.19Z"/><path d="M7.13,10.05c0,.07,0,.14-.03.21s-.04.13-.08.18c-.03.06-.07.11-.12.15s-.1.08-.15.11c-.06.03-.11.06-.18.07-.06.02-.13.03-.19.03h-.62v-1.49h.62c.07,0,.13,0,.19.02s.12.04.18.07c.06.03.11.07.15.11.04.04.08.09.12.15.03.06.06.12.08.18s.03.13.03.21ZM6.74,10.05c0-.08,0-.16-.03-.23-.02-.07-.05-.14-.09-.19s-.09-.1-.15-.13c-.06-.03-.13-.05-.22-.05h-.1v1.21h.1c.08,0,.15-.02.21-.05.06-.03.11-.08.15-.13.04-.06.07-.12.09-.19s.03-.15.03-.23Z"/><path d="M7.75,10.8h-.39v-1.49h.69c.07,0,.13,0,.19.02s.11.04.16.08c.05.03.08.08.11.14.03.06.04.12.04.2,0,.06-.01.12-.04.17-.03.05-.06.1-.1.15-.04.04-.09.08-.14.11s-.11.05-.16.06c.03.05.05.09.08.13.03.04.05.08.08.11.03.04.06.07.08.1s.05.06.08.08c.06.06.12.11.18.15h-.48s-.08-.09-.11-.14c-.03-.05-.06-.11-.09-.17-.03-.07-.05-.15-.07-.24h-.12v.56ZM8.16,9.75c0-.1-.02-.17-.07-.22-.05-.05-.11-.07-.21-.07h-.14v.65h.14s.09,0,.12-.03c.04-.02.06-.05.09-.08s.04-.07.05-.11.02-.09.02-.13Z"/><path d="M9.19,10.8h-.39v-1.49h.39v1.49Z"/><path d="M10.24,10.8h-.35l-.52-1.49h.39l.39,1.2.35-1.2h.24l-.5,1.49Z"/><path d="M11.29,10.8h-.39v-1.49h.39v1.49Z"/><path d="M11.78,10.8h-.18v-1.49h.25l.85,1.03v-1.03h.18v1.49h-.25l-.85-1.03v1.03Z"/><path d="M14.48,9.68l-.17.07s-.03-.09-.05-.12c-.02-.04-.05-.07-.08-.1-.03-.03-.06-.05-.1-.06s-.08-.02-.13-.02c-.05,0-.09,0-.13.03-.04.02-.08.04-.11.07-.03.03-.06.06-.08.1s-.04.08-.06.13c-.02.04-.03.09-.04.14,0,.05-.01.09-.01.14,0,.07,0,.14.02.22.02.07.04.14.08.19.03.06.08.1.13.14s.12.05.2.05c.04,0,.08-.01.1-.03s.04-.06.04-.11v-.46h.39v.74h-.11l-.07-.12c-.06.05-.13.09-.21.11-.07.02-.15.04-.23.04-.07,0-.14,0-.2-.03-.06-.02-.12-.04-.18-.08s-.1-.07-.15-.12c-.04-.05-.08-.1-.11-.16-.03-.06-.06-.12-.07-.19-.02-.07-.03-.14-.03-.21s0-.14.03-.21c.02-.07.04-.13.07-.19.03-.06.07-.11.11-.16.04-.05.09-.09.15-.12s.11-.06.18-.08c.06-.02.13-.03.2-.03s.13,0,.19.02c.06.02.12.04.18.08s.1.08.15.13c.04.05.08.11.1.18Z"/></svg>