<?xml version="1.0" encoding="UTF-8"?><svg id="Layer_1" xmlns="http://www.w3.org/2000/svg" viewBox="0 0 30 30"><defs><style>.cls-1{fill:#d0ff6f;font-family:Poppins-Medium, Poppins;font-size:3.1px;font-weight:500;isolation:isolate;}</style></defs><text class="cls-1" transform="translate(.8 -1.55)"><tspan x="0" y="0">Driver Passport No. </tspan></text><path d="M25.37,25.46c.63-.22,1.04-.79,1.02-1.42-.03-.65-.07-1.31-.12-1.95-.02-.26-.04-.52-.05-.78-.01-.19-.05-.32-.12-.37-.04-.03-.1-.05-.17-.04-.14,0-.28.07-.25.45.06.8.11,1.59.16,2.39.02.17.02.34,0,.52-.12.49-.62.84-1.15.8H5.15c-.56-.04-.98-.46-1-.97,0-.11,0-.23.01-.34v-.03c.18-2.77.36-5.57.53-8.31.01-.19.07-.29.33-.29.81,0,1.61,0,2.42,0,.42,0,.84,0,1.26,0,.07,0,.14,0,.21-.02.1-.02.18-.1.2-.2.01-.07,0-.13-.04-.18-.04-.05-.1-.09-.17-.1-.07,0-.16-.01-.23,0h-3.55c-.08,0-.13,0-.18,0-.21,0-.22-.07-.23-.35v-.04c-.08-1.29-.17-2.57-.25-3.86-.03-.46-.06-.92-.09-1.39-.07-1.04-.14-2.11-.2-3.17-.01-.08-.02-.17,0-.26.03-.27.18-.5.4-.67.23-.17.5-.24.8-.21h19.29c.09-.01.2-.01.29,0,.28.04.54.18.71.4.17.22.24.48.19.75-.03.58-.07,1.17-.11,1.76l-.04.56c-.13,2.04-.26,4.07-.4,6.11-.02.33-.04.35-.39.35h-14.25c-.09,0-.18,0-.26,0-.12.01-.21.1-.23.21-.01.07,0,.13.05.18.04.05.1.09.17.1.1.01.2.02.3.01,4.73,0,9.52,0,14.25,0,.22,0,.35.05.36.31.06,1.1.14,2.22.21,3.31l.06.89c0,.12.05.32.27.32h.02c.08,0,.14-.03.18-.07.06-.06.08-.15.08-.27-.03-.41-.05-.81-.08-1.22-.02-.36-.05-.73-.07-1.09-.02-.25-.04-.5-.06-.76-.05-.57-.1-1.16-.08-1.75.03-1.04.11-2.1.18-3.12.03-.45.07-.9.09-1.35.03-.43.06-.86.08-1.28.07-1.06.14-2.15.2-3.23,0-.09.01-.17,0-.25-.06-.79-.76-1.4-1.6-1.4-.04,0-.07,0-.11,0H5.31c-.08,0-.16,0-.23,0-.89.07-1.55.8-1.47,1.62.01.32.04.65.06.97.01.15.02.31.03.46.02.38.05.76.08,1.13.06.9.13,1.82.17,2.73.17,1.71.23,3.46.17,5.19-.1,1.07-.16,2.16-.22,3.21-.03.45-.05.9-.08,1.34-.02.3-.04.59-.06.89-.05.76-.1,1.55-.14,2.32-.03.7.46,1.31,1.19,1.49.01,0,.03,0,.04,0,.04,0,.09.01.13.05h20.07l.11-.03c.07-.02.14-.05.21-.07Z"/><path d="M6.09,17.88v3.66c0,.26.04.53.11.78.34,1.2,1.42,2.03,2.66,2.05.02,0,.05,0,.07,0,.73,0,1.43-.28,1.96-.79.55-.52.86-1.23.88-1.99,0-.41,0-.82,0-1.22,0-.2,0-.4,0-.61h0c0-.21,0-.42,0-.63,0-.42,0-.84,0-1.26,0-.04,0-.07,0-.11-.01-.37-.17-.7-.44-.95-.26-.24-.58-.36-.93-.36-.02,0-.04,0-.05,0h-2.83s-.03,0-.05,0-.03,0-.05,0c-.76.03-1.35.66-1.33,1.42ZM6.61,17.85s0-.03,0-.05c.01-.45.39-.82.84-.82h.02c.96,0,1.94,0,2.9,0,.02,0,.03,0,.05,0,.46.01.82.4.81.86,0,.29,0,.58,0,.88,0,.15,0,.29,0,.44,0,.01,0,.03,0,.05,0,0,0,.02-.02.02-.02.03-.07.02-.09,0l-.16-.07c-.18-.08-.35-.15-.51-.22-.46-.21-.99-.26-1.49-.13-.3.07-.59.14-.89.21-.39.09-.79.18-1.18.28-.04,0-.07.02-.11.02-.04,0-.07,0-.1-.03-.05-.04-.06-.11-.06-.21v-1.24ZM6.82,19.86c.59-.13,1.17-.27,1.76-.4l.57-.13c.33-.08.68-.05,1,.08.1.04.2.09.3.13.19.08.38.17.58.25.14.03.23.17.21.32,0,.17,0,.35,0,.55,0,.1,0,.21,0,.33,0,0,0,.01,0,.02.01.33,0,.65-.05.97-.21,1.06-1.15,1.84-2.23,1.86h-.04c-.6,0-1.17-.23-1.61-.65-.44-.43-.69-1.01-.7-1.62,0-.21,0-.42,0-.64,0-.26,0-.52,0-.78,0-.17.06-.25.22-.28Z"/><path d="M21.54,23.66c-.12-.31-.31-.58-.57-.78-.05-.04-.1-.07-.16-.08-.1-.03-.21-.01-.31.04-.09.05-.16.14-.19.25-.04.09-.06.18-.08.27-.03.24-.22.42-.46.44-.4.06-.82.03-1.21-.08-.18-.05-.28-.07-.31-.15-.03-.08.02-.15.14-.31.26-.31.27-.74.03-1.06-.19-.27-.49-.42-.81-.42-.08,0-.16,0-.24.03-.1.04-.2.09-.29.17-.43.35-.49.99-.13,1.42.06.08.1.14.08.2-.02.07-.1.09-.18.12-.27.07-.54.11-.81.12-.02,0-.04,0-.05,0-.14.02-.24.16-.22.3.01.07.05.13.1.17.06.04.12.06.2.05h0c.49,0,.96-.11,1.39-.33.11-.07.26-.07.38-.01.53.25,1.13.37,1.72.33.02,0,.05,0,.07,0,.51,0,.94-.32,1.08-.81,0,0,0-.01,0-.02.01-.03.04-.04.07-.03.02,0,.04.02.04.04.03.04.05.08.07.12.05.09.1.16.15.23.07.11.21.14.32.08,0,0,.02,0,.02,0,.05-.02.09-.07.11-.12.02-.06.02-.12,0-.17ZM18.08,22.71c-.06.21-.19.4-.37.53,0,0,0,0-.01,0-.02,0-.04,0-.05,0-.03,0-.06,0-.08-.02-.05-.02-.1-.06-.14-.11-.2-.21-.18-.55.03-.75.1-.09.25-.1.36-.04.14.05.24.17.27.33,0,0,0,0,0,.01,0,0,0,.01,0,.02Z"/><path d="M19.13,17h3.92c.07,0,.14,0,.21,0,.11-.01.2-.09.22-.2.01-.07,0-.14-.04-.2-.04-.06-.1-.1-.16-.11-.06-.01-.13-.01-.2-.01h-7.93c-.07,0-.13,0-.19,0-.14.02-.23.14-.22.27,0,.13.1.24.23.24.07,0,.14,0,.21,0h3.92s.02,0,.03,0Z"/><path d="M23.47,18.74c.03-.14-.06-.28-.2-.31-.06,0-.13-.01-.2,0h-3.95s-.01,0-.02,0h-3.96s-.04,0-.06,0c-.04,0-.09,0-.13,0-.11.02-.2.11-.22.23-.02.14.09.27.23.29.06,0,.12,0,.19,0h7.91c.07,0,.13,0,.19,0,.11-.01.2-.1.22-.2Z"/><path d="M19.12,20.91h3.92c.07,0,.14,0,.21,0,.11-.01.2-.1.22-.21.03-.14-.06-.28-.21-.31-.07-.01-.13-.01-.2,0h-7.9c-.07,0-.14,0-.21,0-.12.02-.21.12-.22.24,0,.07.02.14.07.19.05.05.11.08.18.09.07,0,.14,0,.21,0h3.92s.01,0,.02,0Z"/><path id="Path_11948" d="M18.58,10.91c-.73,0-1.32-.61-1.31-1.34.01-.74.62-1.32,1.35-1.31s1.32.62,1.31,1.35c-.01.73-.61,1.31-1.34,1.3,0,0,0,0,0,0M19.28,9.57c0-.37-.31-.67-.68-.68-.37.01-.67.31-.67.69,0,.37.31.67.69.67.37,0,.67-.3.67-.67,0,0,0,0,0-.01"/><path id="Path_11949" d="M21.06,10.28v.28c0,.22-.13.36-.33.36-.18,0-.33-.14-.33-.33,0-.01,0-.02,0-.03,0-.14,0-.29,0-.44v-1.44c0-.32.11-.43.43-.43.22-.02.44,0,.65.03.33.07.58.33.64.67.08.32-.06.66-.35.83-.15.1-.12.16-.02.25.08.07.14.16.22.24.19.22.21.41.06.55s-.35.1-.56-.12c-.12-.14-.24-.27-.36-.41,0,0-.02,0-.07-.02M21.06,9.09c0,.11-.02.22.15.21.14-.01.27-.03.27-.2,0-.15-.13-.18-.26-.19-.16-.02-.18.07-.16.19"/><path id="Path_11950" d="M11.26,10.91c-.33,0-.65-.13-.88-.36-.14-.11-.17-.32-.06-.46,0,0,.01-.02.02-.02.12-.13.33-.13.46-.01,0,0,0,0,.01.01.14.13.32.2.51.19.1,0,.2-.05.22-.15s-.08-.14-.16-.18c-.15-.07-.31-.12-.46-.18-.38-.1-.61-.47-.54-.85.08-.38.43-.66.82-.64.28,0,.55.08.77.25.16.09.21.29.12.45,0,0,0,.01-.01.02-.1.15-.3.18-.44.08,0,0-.01,0-.02-.01-.13-.1-.3-.15-.47-.12-.06.01-.12.03-.12.11s.06.08.1.1c.15.06.31.12.46.19.4.11.66.5.6.92-.1.43-.5.72-.93.69"/><path id="Path_11951" d="M13.65,10.91c-.32,0-.63-.13-.86-.35-.14-.11-.17-.31-.06-.46.11-.14.31-.17.46-.06.01.01.03.02.04.03.14.13.33.2.52.18.1-.01.19-.05.21-.16s-.08-.13-.15-.16c-.15-.06-.31-.12-.46-.18-.38-.09-.62-.46-.55-.85.08-.38.42-.66.82-.65.29-.01.57.08.79.25.15.1.2.3.1.46,0,0,0,0,0,0-.09.15-.29.19-.44.1,0,0-.01,0-.02-.01-.12-.09-.27-.14-.43-.14-.07,0-.16.02-.17.11s.08.09.13.12c.14.06.28.11.42.17.41.11.67.51.6.94-.11.42-.51.71-.95.67"/><path id="Path_11952" d="M9.9,10.59c0,.14-.1.26-.23.3-.16.05-.34,0-.38-.17-.07-.33-.3-.31-.55-.32-.23,0-.39.02-.46.28-.04.16-.21.25-.37.21-.02,0-.04-.01-.05-.02-.16-.06-.24-.24-.18-.4,0,0,0,0,0-.01.25-.67.5-1.34.76-2.01.05-.13.18-.22.33-.21.14-.01.28.07.33.2.27.69.52,1.38.78,2.07,0,.02,0,.05,0,.07M8.91,9.75l-.11-.29c-.07.08-.11.18-.12.29.08.03.16.03.24,0"/><path id="Path_11953" d="M15.04,9.58v-.93c0-.27.12-.39.38-.39.23-.02.46,0,.69.02.44.09.75.5.71.95-.04.45-.42.8-.88.8-.21,0-.29.06-.26.27.01.1.01.2,0,.3,0,.18-.15.32-.33.31,0,0-.01,0-.02,0-.17,0-.3-.14-.3-.31,0,0,0-.01,0-.02,0-.33,0-.67,0-1h0ZM15.69,9.15c.02.1-.07.26.16.24.17-.01.32-.05.32-.24s-.15-.23-.32-.25c-.22-.02-.15.14-.16.25"/><path id="Path_11954" d="M5.75,9.58v-.94c0-.27.12-.39.39-.39.23-.02.47,0,.69.03.44.09.74.5.71.94-.03.46-.41.81-.87.81-.23,0-.29.07-.27.29.01.1,0,.2,0,.3,0,.17-.15.3-.32.29,0,0-.01,0-.02,0-.16,0-.3-.13-.3-.29,0,0,0-.02,0-.02,0-.34,0-.68,0-1.02h0M6.41,9.14c.01.11-.06.27.17.25.16-.01.29-.06.31-.23.02-.14-.12-.24-.31-.26-.21-.02-.17.12-.17.24"/><path id="Path_11955" d="M23.04,9.82c0-.24,0-.48,0-.72,0-.15-.04-.2-.19-.2-.17.03-.33-.09-.36-.26,0-.02,0-.05,0-.07,0-.17.14-.31.31-.31,0,0,.01,0,.02,0,.36,0,.73,0,1.09,0,.17,0,.32.12.33.3,0,0,0,.02,0,.03.01.17-.11.31-.28.32-.02,0-.04,0-.05,0-.2-.01-.22.08-.22.24,0,.46,0,.93,0,1.39,0,.24-.11.37-.3.38-.17.02-.32-.1-.34-.27,0-.02,0-.04,0-.06,0-.25,0-.51,0-.76h0Z"/><path d="M9.32,22.35c-.25.12-.54.12-.79,0-.13-.06-.28,0-.34.12,0,0,0,.02,0,.02-.02.06-.03.13,0,.19.03.07.07.12.14.14.16.09.34.14.52.15,0,0,0,0,.01,0,.23,0,.46-.04.67-.14,0,0,0,0,0,0,.07-.03.12-.08.14-.15s.02-.14,0-.21c-.03-.07-.08-.11-.15-.13-.06-.02-.13-.02-.19.01Z"/><path d="M10.54,20.53c-.04-.15-.17-.25-.32-.27-.02,0-.03,0-.05,0-.19,0-.35.14-.38.34,0,.09,0,.17,0,.26,0,0,0,.01,0,.02,0,.03,0,.06,0,.09,0,.06,0,.13,0,.19,0,.19.15.35.34.36,0,0,0,0,0,0,.02,0,.04,0,.05,0,.07,0,.15-.02.21-.07.08-.05.13-.14.14-.23.05-.23.05-.46,0-.7Z"/><path d="M8.07,20.58c-.02-.19-.18-.34-.37-.34-.02,0-.04,0-.07,0-.2.02-.34.2-.33.39,0,.18,0,.35,0,.51,0,.1.04.19.11.26s.16.1.25.1h0s.02,0,.03,0c.09,0,.18-.03.25-.09.08-.07.12-.16.13-.26,0-.09,0-.18,0-.27,0,0,0,0,0,0,0-.09,0-.18,0-.26,0-.01,0-.02,0-.04Z"/></svg>