<?xml version="1.0" encoding="UTF-8"?><svg id="Layer_1" xmlns="http://www.w3.org/2000/svg" viewBox="0 0 30 30"><g id="Group_15904"><path id="Path_11959" d="M3.61,8.23c.18-.81.94-1.34,1.76-1.26h19.3c.61-.04,1.19.26,1.5.78.14.23.22.49.22.76v12.98c-.02.84-.7,1.52-1.54,1.53H5.33c-.64.05-1.25-.28-1.55-.85-.06-.13-.12-.27-.17-.41v-13.54M15.02,10.7H4.61c-.2,0-.29.03-.29.26,0,3.47,0,6.95,0,10.42-.04.45.28.84.73.89.01,0,.03,0,.04,0,.08.01.16.02.24.02h19.3c.5.07.96-.28,1.03-.78.01-.08.01-.16,0-.24-.01-3.41,0-6.83,0-10.24q0-.33-.33-.33h-10.31M14.99,9.96h10.39c.23,0,.3-.07.29-.29-.02-.37,0-.74,0-1.11,0-.4-.28-.75-.68-.81-.15-.03-.29-.04-.44-.03H5.45c-.12,0-.24,0-.35.02-.45.03-.8.41-.77.86,0,0,0,.02,0,.03v1q0,.33.33.33h10.34"/><path id="Path_11960" d="M12.97,15.77v3.47c0,.45-.11.56-.57.57-.77,0-1.54,0-2.31,0h-3.91c-.11,0-.22,0-.33-.02-.21,0-.38-.16-.38-.36,0-.02,0-.04,0-.06v-7.11c0-.43.1-.53.52-.53h6.47c.41,0,.51.1.51.51v3.52M12.22,15.78v-3.03c0-.2-.04-.29-.27-.28-1.83,0-3.66,0-5.49,0-.2,0-.27.05-.27.26,0,2.02,0,4.04,0,6.05,0,.21.07.26.27.26,1.83,0,3.66,0,5.49,0,.2,0,.27-.06.27-.27-.01-1,0-2,0-3.01"/><path id="Path_11961" d="M22.67,17.07h-1.65c-.32,0-.44-.13-.44-.45v-2.18c0-.32.13-.46.46-.46,1.09,0,2.18,0,3.27,0,.33,0,.47.15.48.48v2.16c0,.31-.14.45-.45.46h-1.67M22.64,16.34h1.15c.17,0,.22-.06.22-.23,0-.39,0-.77,0-1.16,0-.15-.06-.21-.21-.21-.76,0-1.52,0-2.29,0-.16,0-.21.06-.21.21,0,.39,0,.77,0,1.16,0,.16.06.23.22.22.37,0,.74,0,1.11,0"/><path id="Path_11962" d="M16.64,15.02h-2.56c-.29,0-.43-.11-.44-.35s.15-.38.44-.38h5.16c.27,0,.43.15.43.37s-.16.36-.43.36h-2.6"/><path id="Path_11963" d="M16.06,18.63h-2c-.27,0-.41-.12-.42-.35s.14-.38.42-.38h4c.27,0,.42.15.42.38s-.14.35-.42.35h-2"/><path id="Path_11964" d="M22.65,18.63h-1.64c-.27,0-.42-.11-.42-.34-.02-.2.14-.38.34-.39.03,0,.05,0,.08,0h3.29c.21-.02.39.14.41.35,0,0,0,.02,0,.03,0,.22-.16.36-.42.36h-1.62"/><path id="Path_11965" d="M9.19,18.63h-2.11c-.37,0-.51-.17-.48-.55.03-.97.65-1.83,1.57-2.17.93-.41,2.01-.25,2.77.43.54.44.85,1.1.86,1.79.01.38-.11.5-.48.5h-2.13M9.19,17.89h1.6c.25,0,.28-.04.18-.27-.26-.67-.9-1.13-1.62-1.17-.82-.08-1.59.39-1.89,1.15-.11.27-.1.29.19.29h1.55"/><path id="Path_11966" d="M7.86,14.26c.01-.75.62-1.34,1.37-1.33.75.01,1.34.62,1.33,1.37-.01.74-.62,1.33-1.36,1.33-.74,0-1.35-.61-1.34-1.35,0,0,0-.01,0-.02M9.2,14.87c.33.02.61-.24.62-.56,0,0,0-.01,0-.02,0-.34-.26-.62-.6-.62-.34,0-.62.26-.62.6-.01.32.24.59.56.6.01,0,.03,0,.04,0"/></g></svg>