<?xml version="1.0" encoding="UTF-8"?><svg id="Layer_1" xmlns="http://www.w3.org/2000/svg" viewBox="0 0 30 30"><path d="M5.96,18.73l-.15.12-.23-.27c-.06-.08-.11-.16-.17-.24-.09-.14-.26-.18-.39-.1-.41.28-.85.59-1.32.93-.11.09-.14.26-.05.39.09.13.27.17.4.08.04-.03.08-.06.12-.09l.06-.04.85-.61,3.94,5.55-.31.22c-.17.12-.34.24-.51.36l-.11.08c-.15.09-.2.28-.11.43l.02.05s.12.09.21.09c.07,0,.15-.03.22-.08.36-.25.73-.51,1.13-.81.09-.05.14-.12.16-.19s0-.16-.03-.23c0-.01-.02-.03-.03-.04l-.09-.14c-.04-.06-.09-.13-.14-.19l-.13-.19.45-.32c.3-.23.7-.3,1.07-.19.87.23,1.77.45,2.64.68l.27.07c1.07.27,2.17.55,3.26.84.55.16,1.15.05,1.61-.3,1.27-.91,2.57-1.82,3.82-2.7l2.05-1.45c.38-.27.78-.55,1.16-.83.72-.53.91-1.54.43-2.29,0,0-.01-.02-.01-.03-.49-.75-1.46-.99-2.24-.54-.65.41-1.3.87-1.92,1.31l-.13.1c-.26.18-.52.37-.78.55-.02.01-.03.03-.05.05-.08.09-.09.21-.03.31.05.11.15.15.26.16.08,0,.17-.04.23-.1l1.11-.78c.48-.34.97-.69,1.46-1.02.48-.36,1.18-.26,1.55.22l.03.05c.16.22.23.51.19.8s-.2.54-.44.71c-2.37,1.68-4.76,3.37-7.07,5l-.08.06c-.26.19-.61.25-.92.16-.97-.25-1.94-.49-2.91-.74-1.13-.29-2.28-.58-3.42-.87-.5-.13-1.03-.04-1.45.27l-.5.36-2.83-3.99.96-.68c.73-.52,1.48-1.07,2.23-1.59.47-.35,1.08-.46,1.64-.3,2.07.59,4.17,1.2,6.2,1.8l1.2.35c.28.08.52.26.66.51.15.26.19.55.11.83-.16.59-.76.94-1.35.78l-3.78-.92c-.1-.04-.18-.04-.25,0-.07.03-.13.09-.16.16-.03.1-.02.18.02.25.05.07.14.13.24.15l1.23.3c.88.21,1.79.43,2.68.64.84.2,1.68-.26,1.97-1.06.15-.43.12-.9-.09-1.3-.24-.45-.66-.79-1.16-.92l-2.12-.61c-1.66-.48-3.37-.97-5.05-1.47-.85-.27-1.78-.11-2.49.43l-2.84,2.02-.04.03Z"/><path d="M19.7,14.29v-.33l.12-.03c.87-.21,1.29-.66,1.3-1.38,0,0,0-.01,0-.02,0-.72-.41-1.16-1.3-1.39l-.11-.03v-1.46l.2.06c.29.09.49.35.52.65,0,.15.12.26.26.26,0,0,0,0,0,0,.14,0,.26-.13.25-.27v-.04c-.04-.53-.4-.97-.91-1.12-.06-.02-.11-.04-.17-.05l-.11-.03-.05-.13v-.23c0-.14-.11-.26-.25-.26-.08.02-.15.02-.2.07-.05.05-.08.11-.08.18v.37s-.12.04-.12.04c-.62.1-1.06.65-1.04,1.28,0,.6.44,1.09,1.03,1.15h.13v1.81l-.2-.08c-.29-.11-.5-.38-.55-.69-.02-.21-.11-.31-.26-.31-.01,0-.03,0-.04,0-.07,0-.13.04-.17.09-.05.07-.08.18-.06.27.06.47.34.87.76,1.08.12.06.24.11.36.14l.15.05v.25s0,.1,0,.15c.02.13.13.23.26.23.15,0,.26-.12.26-.26ZM19.7,11.68l.18.04c.38.08.67.41.71.8,0,0,0,0,0,.01,0,0,0,.01,0,.02-.04.39-.33.7-.7.79l-.18.04v-1.71ZM19.17,11.05l-.2-.07c-.25-.08-.42-.3-.44-.56,0-.3.17-.55.43-.67l.21-.09v1.38Z"/><path d="M26.33,11.16c0-.57-.08-1.14-.22-1.69-.96-3.77-4.81-6.06-8.58-5.1-2.74.7-4.79,2.95-5.23,5.74-.03.18-.05.36-.07.55l-.04.31h-1.11c-.14-.02-.25.04-.31.14-.04.09-.03.22.04.31l2.7,4.27c.07.16.22.22.35.17.07-.03.12-.08.14-.15.16-.26.31-.49.45-.72l.65-1.03c.53-.85,1.07-1.7,1.61-2.54.08-.1.09-.22.04-.32-.05-.09-.16-.14-.27-.13h-1.38s0-.21,0-.21c0-.04,0-.05.01-.06.29-2.23,2.34-3.86,4.58-3.62,1.16.13,2.22.74,2.91,1.68.68.92.95,2.08.74,3.2-.22,1.49-1.25,2.71-2.68,3.18-1.4.54-2.98.26-4.11-.74-.04-.03-.09-.08-.13-.12-.03-.03-.07-.06-.1-.09l-.04-.04s-.1-.05-.15-.05c-.07,0-.13.03-.18.08-.08.09-.09.23-.01.33.02.03.05.06.08.09.87.84,2,1.3,3.2,1.3.22,0,.45-.01.67-.04,1.25-.16,2.39-.83,3.14-1.84,1.51-2.06,1.09-4.98-.95-6.52-.95-.73-2.12-1.05-3.32-.91-1.97.21-3.6,1.65-4.05,3.57-.04.18-.07.35-.1.54l-.05.29h-.79c-.14-.03-.25.08-.27.21-.01.07,0,.14.05.2.06.07.14.11.24.1h2.27s-2.31,3.66-2.31,3.66l-2.31-3.66h.92s.02,0,.02,0c.23,0,.3-.08.31-.32,0-.32.04-.65.09-.98.57-3.45,3.73-5.84,7.2-5.46,2.26.23,4.25,1.65,5.2,3.73.41.84.63,1.79.62,2.72-.01.13.04.23.14.28.07.04.16.04.24,0,.08-.06.14-.17.13-.28Z"/><path d="M25.83,13.92s0,.07,0,.1v.1s0,.07,0,.1c.01.11.1.18.2.19.02,0,.03,0,.05,0h0c.1,0,.18-.06.21-.14.05-.14.05-.28,0-.41,0,0,0,0,0-.02-.04-.1-.14-.15-.25-.14-.12.01-.21.1-.22.21Z"/><path d="M25.83,12.37s0,.05,0,.08v.05c-.01.13.04.25.12.33.02.01.06.03.1.03.03,0,.07,0,.1-.02.12-.04.19-.15.18-.27,0-.21,0-.33-.14-.4,0,0-.02,0-.02,0-.03-.01-.06-.02-.1-.02-.04,0-.08,0-.12.03-.07.04-.11.11-.12.19Z"/></svg>