<?xml version="1.0" encoding="UTF-8"?><svg id="Layer_1" xmlns="http://www.w3.org/2000/svg" viewBox="0 0 30 30"><path d="M20.31,6.56c-2.09,2.1-4.18,4.21-6.29,6.29-.6.55-1.05,1.24-1.31,1.99-.13.39-.27.79-.41,1.18-.22.64-.46,1.3-.64,1.95-.02.09-.03.18-.03.27,0,.29.12.56.32.76.2.2.47.31.75.31h.02s.02,0,.03,0c.08,0,.17-.02.25-.04l.95-.33c.63-.22,1.27-.44,1.9-.64.9-.31,1.73-.85,2.38-1.57,1.77-1.81,3.55-3.59,5.33-5.37l2.24-2.24s.08-.07.11-.11c.33-.35.5-.81.48-1.29s-.22-.93-.58-1.25c-.31-.32-.61-.62-.91-.91l-.41-.41c-.08-.09-.15-.16-.22-.23-.37-.31-.83-.46-1.32-.42-.48.04-.92.26-1.23.63l-1.42,1.43ZM16.46,17.19c-1.16.51-2.37.96-3.6,1.32-.03,0-.07.01-.1.01-.15,0-.29-.1-.34-.25,0,0,0,0,0,0-.02-.06-.02-.13,0-.2.35-1.23.79-2.45,1.3-3.61.05-.11.14-.18.26-.2.11-.02.23.02.31.1l2.27,2.28c.08.08.12.2.1.31-.02.11-.1.21-.2.26ZM22.74,11.02l-5,5.02c-.07.07-.16.1-.25.1s-.18-.03-.25-.1c-.01-.01-.03-.03-.04-.04l-2.32-2.33c-.14-.14-.14-.36,0-.49l5-5.01c.13-.13.36-.13.5,0l2.35,2.36c.14.14.14.36,0,.49ZM23.15,5.3c.25,0,.49.12.66.3.51.49,1.02,1,1.52,1.52.38.4.37,1,0,1.36-.34.35-.7.7-1.05,1.04l-.39.39c-.07.07-.16.1-.25.1s-.18-.03-.25-.1l-2.38-2.39c-.14-.14-.14-.36,0-.5.02-.02.04-.03.05-.04l.39-.4c.33-.33.66-.67,1-1.01.21-.2.46-.28.71-.28Z"/><path d="M10.45,6.48c-1.16,0-2.3,0-3.43,0-.22-.01-.38.02-.57.05-1.65.26-2.87,1.71-2.84,3.37,0,3.99,0,7.98,0,11.98,0,.26.02.51.08.76.33,1.56,1.71,2.67,3.29,2.67h8.67c1.44,0,2.87,0,4.31,0h.14c1.86-.04,3.35-1.59,3.31-3.46v-3.34c.01-.1.01-.14,0-.17-.02-.11-.07-.21-.16-.27-.09-.06-.2-.09-.3-.08-.11.02-.2.07-.27.16s-.09.19-.08.3v3.36c0,.05,0,.13,0,.21-.03.69-.32,1.33-.83,1.8-.51.47-1.19.71-1.86.69-4.27,0-8.56,0-12.85,0-.06,0-.13,0-.21,0-.69-.03-1.32-.33-1.78-.84-.46-.51-.7-1.17-.67-1.85,0-3.94,0-7.89,0-11.84,0-.27.03-.54.1-.8.33-1.16,1.35-1.94,2.58-1.89h3.36c.06,0,.09,0,.12,0,.11-.02.2-.08.25-.16.06-.09.08-.19.07-.29-.04-.22-.23-.37-.45-.35Z"/></svg>