<?xml version="1.0" encoding="UTF-8"?><svg id="Layer_1" xmlns="http://www.w3.org/2000/svg" viewBox="0 0 30 30"><defs><style>.cls-1{fill:#d0ff6f;font-family:Poppins-Medium, Poppins;font-size:3.1px;font-weight:500;isolation:isolate;}</style></defs><text class="cls-1" transform="translate(7.62 -1.69)"><tspan x="0" y="0" xml:space="preserve">Email ID  </tspan></text><path d="M3.83,8.95v12.1c0,.37.11.73.34,1.03.32.42.82.66,1.36.66.02,0,.04,0,.06,0h18.94c.52,0,1.01-.26,1.31-.68.16-.24.27-.5.32-.78v-12.58c-.03-.11-.09-.31-.17-.5-.28-.59-.92-.97-1.57-.92H5.59s-.08,0-.11,0c-.01,0-.02,0-.04,0-.44.01-.85.19-1.15.51-.3.32-.46.73-.45,1.17ZM24.54,21.94h0c-.07.12-.2.2-.34.2H5.82c-.11,0-.22-.05-.29-.13-.01-.02-.02-.03-.03-.04-.01-.01-.03-.03-.04-.05-.06-.08-.08-.19-.06-.29s.08-.19.17-.25c.05-.03.1-.07.14-.11,1.83-1.82,3.67-3.64,5.45-5.42.31-.29.61-.29.9,0,.37.41.77.79,1.19,1.13,1.12.82,2.68.74,3.72-.18.25-.22.47-.45.75-.72l.27-.27c.37-.37.69-.11.78-.02,1.89,1.89,3.78,3.77,5.67,5.65.03.02.07.09.08.11.07.12.08.27,0,.39ZM24.98,8.89c.12-.08.27-.08.4-.01.12.07.2.2.2.34v11.53c0,.17-.11.32-.28.37-.05.01-.1.02-.14.02-.1,0-.26-.04-.39-.21-1.85-1.84-3.7-3.68-5.56-5.52-.07-.07-.2-.2-.2-.41,0-.14.06-.27.18-.39,1.89-1.87,3.77-3.74,5.65-5.61.07-.06.11-.09.15-.11ZM5.43,8.08h0c.06-.14.2-.23.36-.23h18.4c.11,0,.21.05.28.12.07.08.11.18.11.29-.02.24-.17.37-.23.42-2.52,2.51-5.03,5.01-7.54,7.5-.06.06-.12.12-.17.17-.45.4-1.02.62-1.62.62-.68,0-1.34-.29-1.8-.8-2.51-2.49-5.03-5-7.55-7.51-.03-.03-.06-.06-.09-.1l-.06-.07c-.1-.11-.13-.27-.07-.42ZM4.42,9.25c0-.19.15-.36.34-.38.29-.02.45.16.49.22l5.52,5.49c.08.08.22.21.22.43s-.14.36-.19.4l-5.6,5.55s-.05.05-.1.09h0c-.08.06-.18.1-.28.1-.06,0-.11-.01-.15-.03-.15-.07-.24-.2-.24-.34v-11.54Z"/></svg>