<?xml version="1.0" encoding="UTF-8"?><svg id="Layer_1" xmlns="http://www.w3.org/2000/svg" viewBox="0 0 51.68 51.53"><path d="M15.7,12.57c-.25-2.13-1.39-4.03-3.12-5.19-1.9-1.38-4.35-1.65-6.49-.73-2.09.81-3.68,2.62-4.25,4.87-.26.85-.33,1.75-.22,2.63.17,1.04.46,2.04.88,3,.95,2.26,2.05,4.44,3.28,6.54l.86,1.45c.5.83,1.01,1.66,1.53,2.48.29.47.68.47.98,0,.53-.81,1.03-1.65,1.53-2.48l.82-1.39c.72-1.25,1.41-2.51,2.05-3.81.68-1.32,1.26-2.69,1.74-4.1.39-1.04.52-2.17.4-3.28ZM14.31,15.79c-.78,2.1-1.74,4.13-2.85,6.06-.84,1.54-1.74,3.05-2.67,4.54-.08.14-.13.2-.24.02-1.79-2.81-3.39-5.73-4.8-8.77-.45-.97-.81-1.99-1.07-3.04-.27-1.22-.13-2.49.38-3.62.77-1.89,2.39-3.27,4.33-3.68.38-.09.76-.14,1.15-.14,3.08-.04,5.72,2.29,6.18,5.47.12,1.08-.02,2.17-.42,3.17Z"/><path d="M8.66,10.32c-2.1,0-3.8,1.77-3.8,3.95,0,2.18,1.7,3.94,3.79,3.94,2.1,0,3.8-1.76,3.8-3.94,0-2.18-1.69-3.95-3.79-3.95ZM8.66,16.98c-1.44,0-2.6-1.22-2.6-2.71h0c0-1.51,1.17-2.72,2.61-2.71,1.44,0,2.6,1.22,2.6,2.72,0,1.5-1.17,2.71-2.61,2.71Z"/><path d="M47.87,33.61h-.26l-.36-3.3c-.27-2.52-1.46-3.74-3.66-3.74h-3.12l-1.12-3.19c-.09-.25-.31-.42-.57-.42h-4.56c-.26,0-.49.17-.58.43l-1.04,3.18h-3.02c-2.04,0-3.09,1.07-3.65,3.7l-.61,3.37c-1.46.13-2.61,1.39-2.61,2.94v6.16c0,1.64,1.28,2.96,2.85,2.96h.36v2.32c0,1.39,1.09,2.52,2.42,2.52h0c1.34,0,2.42-1.13,2.42-2.52v-2.31h12.73v2.32c0,1.39,1.08,2.52,2.42,2.52h0c1.34,0,2.42-1.13,2.42-2.52v-2.37c1.34-.24,2.36-1.45,2.37-2.91v-6.16c0-1.63-1.27-2.96-2.84-2.96ZM34.65,24.22h3.71l.82,2.34h-5.3l.77-2.34ZM27.12,30.52c.48-2.27,1.21-2.69,2.46-2.69h3.44s0,0,.01,0h7.01s.01,0,.02,0h3.52c1.31,0,2.22.45,2.45,2.62l.35,3.16h-19.83l.56-3.09ZM29.55,48.01c0,.7-.54,1.26-1.21,1.26s-1.21-.56-1.21-1.26v-2.31h2.42v2.31ZM45.92,49.27c-.67,0-1.21-.56-1.21-1.26v-2.31h2.42v2.31c0,.7-.54,1.26-1.21,1.26ZM49.5,42.73c0,.94-.73,1.7-1.63,1.7h-22.31c-.9,0-1.63-.76-1.63-1.7v-6.16c0-.94.73-1.7,1.63-1.7h22.31c.9,0,1.63.76,1.63,1.7v6.16Z"/><path d="M28.63,38.33c-.95,0-1.73.81-1.73,1.8s.77,1.8,1.73,1.8,1.73-.81,1.73-1.8-.77-1.8-1.73-1.8ZM29.14,40.14c0,.3-.23.53-.52.53-.28,0-.51-.24-.51-.54,0-.3.23-.53.52-.53.28,0,.51.24.51.53h0Z"/><path d="M44.39,38.33c-.95,0-1.73.81-1.73,1.8s.77,1.8,1.73,1.8,1.73-.81,1.73-1.8-.77-1.8-1.73-1.8ZM44.9,40.14c0,.3-.23.53-.52.53-.28,0-.51-.24-.51-.54,0-.3.23-.53.52-.53.28,0,.51.24.51.53h0Z"/><path d="M47.06,1c-1.57,0-2.84,1.33-2.84,2.96s1.27,2.96,2.84,2.96c1.56,0,2.84-1.33,2.84-2.96,0-1.63-1.27-2.96-2.84-2.96ZM47.06,5.91c-1.04,0-1.88-.88-1.88-1.95s.84-1.95,1.88-1.95,1.88.88,1.88,1.95-.84,1.95-1.88,1.95Z"/><path d="M45.61,15.51h0c-.64,0-1.16.54-1.16,1.21,0,.67.52,1.21,1.16,1.21h0c.64,0,1.16-.54,1.16-1.21,0-.67-.52-1.21-1.16-1.21Z"/><path d="M17.99,3.35h0c-.31,0-.6.13-.82.35-.22.23-.34.53-.34.86,0,.32.12.63.34.86s.51.36.82.36h0c.31,0,.6-.13.82-.35.22-.23.34-.53.34-.86,0-.67-.52-1.21-1.16-1.21Z"/><path d="M28.19,11.54c-.33,0-.61.28-.61.63v2.1c0,.35.27.63.61.63s.61-.28.61-.63v-2.1h0c0-.35-.27-.63-.61-.63Z"/><path d="M28.19,16.82c-.33,0-.61.28-.61.63v2.1c0,.35.27.63.61.63s.61-.28.61-.63v-2.1h0c0-.35-.27-.63-.61-.63Z"/><path d="M31.84,15.13h-2.02c-.33,0-.61.28-.61.63s.27.63.61.63h2.02c.33,0,.61-.28.61-.63s-.27-.63-.61-.63Z"/><path d="M26.56,15.13h-2.02c-.33,0-.61.28-.61.63s.27.63.61.63h2.02c.33,0,.61-.28.61-.63s-.27-.63-.61-.63Z"/><path d="M27.35,48.96H4.95c-1.53,0-2.77-1.29-2.78-2.89v-.44c0-1.59,1.24-2.89,2.78-2.89h2.83s.05.02.09.02h8.73c2.2,0,3.99-1.86,3.99-4.15v-.44c0-2.29-1.79-4.15-3.99-4.15h-7.94s-.06.01-.09.02h-3.62c-1.53,0-2.77-1.3-2.77-2.89v-.44c0-1.59,1.24-2.89,2.77-2.89h3.71c.33,0,.61-.28.61-.63,0-.35-.27-.63-.61-.63h-3.71c-2.2,0-3.98,1.86-3.99,4.15v.44c0,2.29,1.78,4.15,3.99,4.15h9.83s.06-.01.09-.02h1.72c1.53,0,2.77,1.29,2.78,2.89v.44c0,1.59-1.24,2.89-2.77,2.89h-1.73s-.06-.02-.09-.02H4.95c-2.2,0-3.98,1.86-3.99,4.15v.44c0,2.29,1.79,4.15,3.99,4.15h22.4c.33,0,.61-.28.61-.63s-.27-.63-.61-.63Z"/></svg>