<?xml version="1.0" encoding="UTF-8"?><svg id="Layer_1" xmlns="http://www.w3.org/2000/svg" viewBox="0 0 30 30"><path d="M16.36,14.11c.79-.45,1.5-.86,2.18-1.24.07-.04.16-.06.24-.04,1.22.29,2.51.27,3.72-.05,1.15-.27,2.18-.89,2.95-1.78h0c.96-1.02,1.21-2.55.62-3.83,0,0,0,0,0,0-.42-.91-1.13-1.65-2.01-2.11-1.07-.59-2.28-.91-3.49-.91-.64,0-1.28.09-1.89.25-1.19.26-2.28.92-3.07,1.85-.73.82-1.03,1.95-.82,3.03.18.86.65,1.63,1.32,2.18.1.06.14.2.08.31-.05.23-.11.49-.16.74l-.45,2.04.16-.09.61-.35ZM15.9,10.4c-.84-1.07-.84-2.56,0-3.63.56-.75,1.33-1.31,2.21-1.6.79-.3,1.63-.45,2.48-.46,1.14,0,2.27.31,3.26.87.46.26.87.6,1.21,1.01,1.03,1.13,1.03,2.85,0,3.99-.68.79-1.57,1.35-2.57,1.6-1.23.36-2.53.37-3.77.04-.09-.03-.19-.01-.28.04-.42.25-.85.49-1.26.73l-.73.42s0,0-.01,0c0,0-.01,0-.01,0,0,0-.01-.02,0-.03l.11-.56c.03-.12.05-.24.08-.36l.05-.23c.05-.23.1-.48.16-.73.02-.09,0-.17-.07-.23-.07-.07-.14-.13-.21-.19-.24-.21-.46-.43-.65-.67Z"/><path d="M19.15,22.87h.05c0-2.08-1.6-3.78-3.64-3.88-.55-.03-1.1-.02-1.7-.01h-.23c-.12.01-.24.07-.33.16-.3.3-.63.63-1.03,1.04l-.55.56c-.13.13-.24.19-.35.19-.11,0-.22-.06-.35-.19l-.8-.81c-.26-.26-.53-.53-.79-.79-.09-.09-.2-.14-.33-.15h-.05c-.3,0-.65-.01-.99-.01-.28,0-.52,0-.74.01-2.1.04-3.79,1.81-3.76,3.93v1.61c-.04.56.36,1.05.9,1.09.03,0,.06,0,.09,0,.02,0,.05,0,.07,0h13.58c.53,0,.97-.42.99-.96,0-.03,0-.05,0-.08v-1.71h-.05ZM13.87,19.65h1.5c1.73,0,3.15,1.43,3.17,3.18,0,.41,0,.83,0,1.23v.52c0,.08-.01.17-.07.24-.06.08-.14.13-.24.14-.03,0-.07,0-.11,0H4.66s-.03,0-.05,0c-.1,0-.2-.03-.28-.09l-.02-.02c-.08-.11-.11-.23-.09-.37v-.81c0-.34,0-.69.02-1.03.11-1.67,1.5-2.99,3.15-2.99.21,0,.43,0,.68,0s.53,0,.86,0c.07,0,.12.03.16.07.45.45.82.82,1.16,1.17l.31.32c.19.22.45.36.74.38.03,0,.06,0,.08,0,.25,0,.49-.09.69-.26.04-.04.09-.08.12-.12l1.46-1.48c.05-.06.12-.09.2-.09v-.05s0,0,0,0h0s0,.05,0,.05Z"/><path d="M9.76,18.24c.46.38,1.03.59,1.62.6.6-.01,1.19-.23,1.66-.62,1.13-.9,1.81-2.25,1.86-3.7v-.2c-.02-.12-.03-.24-.05-.36-.25-1.74-1.75-3.05-3.49-3.05-.14,0-.28,0-.42.03-1.61.2-2.86,1.47-3.04,3.1-.17,1.63.55,3.23,1.85,4.19ZM12.88,17.49c-.38.42-.93.66-1.5.66-.51,0-1-.19-1.38-.54-.05-.04-.09-.09-.13-.14-.82-.79-1.29-1.85-1.34-2.99,0-1.59,1.27-2.9,2.84-2.91.76,0,1.5.31,2.03.85.52.53.82,1.27.82,2.03,0,1.15-.49,2.25-1.34,3.02h0Z"/><path d="M22.59,7.65h-1.25v-1.25h-1.59v1.27h-1.24v1.61h1.25v1.26h1.59v-1.27h1.24v-1.61ZM22.23,8.91h-1.24v1.26h-.88v-1.25h-1.25v-.89s1.24,0,1.24,0v-1.26h.87v1.25h1.25v.89Z"/></svg>