<?xml version="1.0" encoding="UTF-8"?><svg id="Layer_1" xmlns="http://www.w3.org/2000/svg" viewBox="0 0 30 30"><path d="M21.74,25.61c.69-.07,1.2-.64,1.2-1.34,0-.36-.15-.69-.4-.94-.25-.25-.58-.38-.93-.38-.02,0-.04,0-.06,0-.31,0-.38-.18-.39-.34-.11-1.46-.21-2.92-.33-4.38-.02-.61-.08-1.21-.18-1.81-.47-2.47-2.48-4.33-4.99-4.62-1.53-.17-3.03.25-4.23,1.21-1.2.96-1.96,2.32-2.13,3.84-.12,1.32-.22,2.66-.32,3.96-.04.56-.08,1.11-.13,1.67v.08c-.02.26-.08.39-.37.39,0,0-.01,0-.02,0h-.1c-.09,0-.17,0-.25.02-.71.14-1.18.83-1.04,1.55.11.66.69,1.13,1.36,1.09h6.57s0,0,0,0h6.58c.06,0,.11,0,.17,0ZM9.62,20.39c.09-1.16.18-2.35.29-3.53.29-2.24,2.04-4.06,4.27-4.42,2.79-.45,5.43,1.45,5.88,4.25.08.47.11.95.14,1.41.01.18.02.35.04.53.1,1.28.2,2.56.29,3.83v.06c.02.14.03.24-.06.33-.08.09-.18.08-.3.08h-.09s-6.1,0-6.1,0c-1.36,0-2.71,0-4.07,0h-.02c-.1,0-.24,0-.34-.11-.1-.1-.1-.24-.09-.35.06-.7.11-1.4.16-2.09ZM21.36,25.01h-12.96c-.19,0-.37-.08-.51-.22s-.21-.32-.21-.51c0-.19.08-.37.22-.51.14-.14.31-.21.51-.21h13.14s.09,0,.15,0c.19.02.36.12.47.27s.16.33.14.52c0,.32-.27.6-.61.64-.09,0-.18.01-.26.01-.03,0-.06,0-.09,0Z"/><path d="M20.97,11.81c-.01.1.03.2.11.27.06.05.14.08.22.07.08,0,.15-.04.21-.11l2.43-2.43c.22-.22.44-.44.65-.66.09-.09.12-.22.07-.33-.04-.12-.13-.18-.24-.19h0s-.01,0-.02,0c-.09,0-.18.04-.25.11l-3.06,3.07c-.06.06-.1.12-.11.2Z"/><path d="M5.62,8.44c-.09,0-.17.04-.23.11-.05.06-.08.14-.07.22,0,.08.04.15.1.2,1.03,1.03,2.04,2.05,3.06,3.06.09.09.16.12.24.12h0c.08,0,.15-.03.21-.09.07-.08.1-.15.09-.23s-.04-.15-.1-.21l-3.07-3.07c-.06-.07-.15-.11-.23-.11Z"/><path d="M4.32,17.81h-.73c-.49,0-.97,0-1.46,0-.19,0-.32.13-.32.29,0,.19.13.31.29.31,0,0,0,0,.01,0h4.38c.13,0,.24-.06.29-.17.03-.05.04-.1.03-.16,0-.08-.04-.15-.1-.21-.06-.05-.14-.07-.22-.07-.5,0-.98,0-1.46,0h-.72s0,0,0,0Z"/><path d="M23.48,17.81c-.08,0-.16.03-.21.09s-.09.13-.09.22c0,.25.2.3.37.3h4.25c.17,0,.37-.05.37-.3-.02-.21-.18-.33-.35-.3h-4.28s-.07,0-.07,0Z"/><path d="M15.3,6.66v-.72c0-.48,0-.96,0-1.44,0-.04,0-.06,0-.07,0-.08-.04-.15-.1-.2-.06-.05-.13-.08-.21-.07-.19.01-.29.14-.28.39v3.99c0,.11,0,.22,0,.33,0,.12.08.22.19.26.05.02.09.02.14.02.08,0,.15-.05.2-.11.05-.06.07-.14.07-.22,0-.49,0-.97,0-1.44v-.71s0,0,0,0Z"/><path d="M11.62,21.19l.08-1.09c.07-.91.14-1.81.21-2.72.04-.8.38-1.54.96-2.1l.04-.04c.06-.06.08-.14.08-.22,0-.08-.04-.16-.1-.21-.06-.06-.16-.1-.22-.08-.08,0-.16.04-.21.1-.59.53-.97,1.24-1.09,2.01-.12.87-.18,1.76-.24,2.63-.04.55-.07,1.1-.12,1.63,0,.19.07.4.29.41.1,0,.18-.03.24-.09.06-.06.09-.14.08-.22Z"/></svg>