<?xml version="1.0" encoding="UTF-8"?><svg id="Layer_1" xmlns="http://www.w3.org/2000/svg" viewBox="0 0 30 30"><path d="M5.02,6.07c-.99,1.01-1.44,2.46-1.21,3.87.2,1.38.54,2.73,1.02,4.02.9,2.43,2.36,4.65,4.21,6.44,1.37,1.42,2.95,2.59,4.69,3.48,1.7.83,3.52,1.39,5.39,1.68,1.33.26,2.72-.14,3.72-1.06.52-.47,1-.98,1.41-1.42.47-.55.71-1.29.65-2.02-.02-.73-.34-1.41-.86-1.89l-.18-.15c-.98-.84-1.99-1.71-3-2.53-.83-.66-2-.67-2.85-.02-.22.17-.44.35-.65.52l-2.19,1.78c-.09.07-.2.08-.3.02l-.06-.04c-1.74-1.06-3.21-2.56-4.26-4.33l-.03-.05c-.06-.09-.05-.21.01-.3l.99-1.27c.41-.52.83-1.05,1.23-1.57.69-.89.68-2.17-.04-3.04-.31-.38-.63-.77-.94-1.14l-.14-.17s-.01-.01-.02-.02c-.48-.58-.97-1.17-1.44-1.77-.48-.57-1.19-.91-1.93-.93h-.16s-.04,0-.05,0c-.7,0-1.36.27-1.87.75l-.42.43c-.24.24-.49.49-.73.74ZM6.63,5.5c.41-.41.96-.63,1.53-.58h0c.56,0,1.11.26,1.49.71.5.64,1.02,1.27,1.53,1.89l.95,1.14c.51.61.51,1.5,0,2.11-.58.73-1.16,1.48-1.73,2.19l-.65.82c-.2.18-.22.44-.08.61,1.22,2.19,2.97,3.98,5.1,5.19.2.13.44.11.59-.04.79-.65,1.59-1.3,2.36-1.92l.65-.53c.61-.52,1.49-.51,2.1.03.26.22.52.44.78.67l.25.21c.62.53,1.25,1.08,1.9,1.58.48.4.74.99.74,1.61.03.58-.2,1.15-.62,1.56-.25.23-.49.47-.72.72l-.15.17c-.7.77-1.69,1.21-2.72,1.21-.3,0-.61-.03-.91-.08-1.69-.29-3.33-.81-4.88-1.55-1.77-.9-3.36-2.09-4.74-3.53-2.57-2.58-4.23-5.88-4.8-9.51-.04-.21-.06-.39-.08-.56,0-.1,0-.19,0-.27v-.08c-.03-1.01.36-2.01,1.08-2.72l.31-.31c.25-.25.49-.49.71-.73Z"/><path d="M25.26,10.72s.04,0,.06,0c.26,0,.5-.1.69-.28.2-.19.32-.44.33-.72v-.06c.01-.42,0-.83,0-1.18v-.17c0-.16-.03-.32-.1-.47-.16-.35-.5-.58-.88-.58-.29,0-.6,0-.99,0h-.56c-.17,0-.3-.13-.3-.3v-1.46c.01-.28-.08-.54-.27-.75-.18-.2-.43-.32-.71-.33h-.06c-.44-.01-.88-.01-1.35,0h-.03c-.28,0-.53.1-.72.29-.2.19-.31.45-.32.72v1.53c0,.17-.13.3-.3.3h-1.47s-.03,0-.04,0h0c-.54,0-.99.42-1.01.96,0,.03,0,.05,0,.07,0,.3,0,.58,0,.91v.45c0,.11.01.2.03.29.11.46.51.78.99.78h1.51c.17,0,.3.13.3.3v1.52c0,.54.42.98.97,1,.5.02,1.02.02,1.54,0,.38,0,.72-.24.86-.59.07-.17.1-.36.09-.54v-1.25s0-.02,0-.04v-.09c0-.17.13-.3.3-.3h1.45ZM23.33,10.09s-.02,0-.03,0c-.33,0-.41.1-.41.46v2.06c0,.17-.13.3-.3.3h-1.6c-.17,0-.3-.13-.3-.3v-2.13c.02-.21-.1-.38-.29-.4-.02,0-.05,0-.07,0h-2.16c-.17,0-.3-.13-.3-.3v-1.5c0-.09.04-.17.11-.23.17-.14.35-.19.54-.16h1.74c.34,0,.44-.11.44-.45v-2.06c0-.17.13-.3.3-.3h1.52c.09,0,.18.04.24.12,0,0,.02.02.03.04h0c.09.15.12.31.1.47v1.77c-.01.12,0,.21.07.28.05.07.13.12.22.13.03,0,.05,0,.08,0h2.14c.17,0,.3.13.3.3v1.6c0,.17-.13.3-.3.3h-2.06Z"/></svg>