<?xml version="1.0" encoding="UTF-8"?><svg id="Layer_1" xmlns="http://www.w3.org/2000/svg" viewBox="0 0 30 30"><path d="M25.87,9.07c-.56-.61-1.12-1.24-1.68-1.86-.75-.84-1.54-1.7-2.31-2.54-.53-.62-1.39-.7-2-.17-.61.49-1.21.98-1.8,1.47l-.29.24c-.09.06-.14.14-.15.23,0,.05.04.14.11.2.11.12.21.22.31.31l.27.26-2.48,2.74h-1.64l-2.48-2.75.23-.24c.1-.1.22-.22.32-.35.06-.06.09-.14.09-.22,0-.05-.04-.11-.09-.15l-.44-.37c-.61-.5-1.21-.99-1.8-1.45-.57-.43-1.35-.36-1.85.18-.2.2-.39.42-.57.62l-.06.07c-.07.06-.1.11-.11.17,0,.06,0,.12.04.17.06.07.1.1.15.1.07,0,.14-.05.2-.11l.25-.28c.12-.13.24-.27.36-.4.33-.36.83-.45,1.25-.22.22.13.42.29.61.46l.05.05s.1.08.15.12l.19.15-5.8,6.41-.53-.79c-.19-.22-.3-.54-.29-.87,0-.33.13-.64.35-.87.03-.03.06-.06.09-.08l2.26-2.5c.08-.08.12-.17.13-.27,0-.03-.02-.08-.06-.12-.04-.04-.15-.15-.35.07l-.42.46c-.63.7-1.29,1.42-1.93,2.13-.57.6-.64,1.55-.16,2.23.45.69.91,1.38,1.36,2.04l.17.25c.06.1.13.16.22.18.05,0,.14-.05.19-.13.08-.09.14-.16.21-.23l.38-.43.27.37s.03.04.05.05c.04.03.08.08.11.14l.08.15-.12.12c-1.02.99-1.44,2.56-1.07,4,.33,1.47,1.41,2.61,2.75,2.91l.13.03.03.14c.2,1.01.84,1.84,1.71,2.22l.09.04.03.1c.02.08.03.17.02.26v.44c0,.24,0,.5.01.75.03.41.31.76.68.84.06.01.11.02.17.02.3,0,.59-.19.74-.47l.13-.24.12-.02h.51l.05.13c.15.36.46.59.81.6.37-.01.69-.25.84-.61l.05-.13h.21c.09,0,.2,0,.3.01h.11s.04.12.04.12c.15.36.46.59.82.6.35,0,.67-.24.82-.6l.05-.12h.64l.05.13c.1.24.28.44.5.53.26.11.55.08.78-.09.25-.19.4-.51.39-.85,0-.57,0-1.13,0-1.68v-.98c-.01-.06,0-.15.04-.24l.04-.11.1-.02c.36-.06.71-.23,1-.49.19-.17.42-.27.66-.29.5-.08.99-.29,1.42-.61.12-.07.15-.2.1-.31-.07-.12-.19-.15-.29-.08-.06.04-.09.06-.11.08-.06.04-.12.08-.17.11l-.1.05c-.15.09-.32.16-.5.21l-.34.08.12-.37c.07-.2.11-.42.14-.64v-.12s.11-.05.11-.05c.56-.29.98-.79,1.19-1.43.21-.64.18-1.33-.08-1.94-.14-.32-.33-.6-.57-.83l-.15-.15.63-.74.14.13c1.2,1.15,1.46,3.06.61,4.54-.12.21-.05.3.02.36.04.04.09.05.14.04.08-.02.15-.08.2-.17.87-1.57.68-3.57-.47-4.88-.05-.05-.1-.1-.15-.14l-.18-.15.13-.2.47-.52.51.6c.07.1.17.16.26.16.05-.02.13-.08.18-.17.18-.26.34-.51.5-.76.25-.37.51-.76.76-1.14.28-.35.47-.74.58-1.18v-.51c-.08-.36-.24-.69-.47-.96ZM15.85,10.41l4.79,5.29-.29,1.03-.19-.07c-.07-.03-.13-.07-.19-.13l-3.83-3.07c-.75-.69-1.83-.6-2.47.19-.72.77-1.42,1.53-2.12,2.29l-1.26,1.36s-.08.08-.13.13l-.22.22-.1-.31-.48-1.65.08-.09,4.71-5.2h1.7ZM16.36,14.95c0,.83-.61,1.5-1.35,1.51-.76,0-1.37-.67-1.37-1.5s.61-1.5,1.36-1.5h0c.36,0,.7.15.96.44.26.28.4.66.4,1.06ZM5.73,13.16l-.54-.81,5.91-6.52.73.59-.16.18-5.93,6.55ZM10.41,8.7l.37.4c.22.24.46.49.68.75.08.08.13.21.13.34-.01.16-.07.28-.16.37-.06.07-.16.13-.27.14,0,0-.02,0-.02,0-.11,0-.21-.04-.29-.12l-.05-.06c-.19-.2-.39-.42-.59-.64l-.43-.48.63-.69ZM8.41,10.94l.36.39c.22.24.45.49.67.74.08.08.13.2.13.33l-.06.23-.09.13s0,0-.01.01c-.05.07-.15.13-.27.14-.11,0-.22-.03-.3-.11l-.05-.05c-.18-.19-.37-.41-.57-.62l-.46-.52.64-.67ZM6.83,12.7l.67-.77.38.43c.21.24.42.48.64.72.23.27.57.36.87.23.45-.17.69-.7.54-1.2-.05-.15-.12-.28-.22-.39-.17-.18-.33-.36-.49-.53l-.5-.54.83-.91.35.39c.12.14.25.28.38.43l.23.26c.19.23.46.35.74.31.33-.03.6-.27.7-.61.13-.35.05-.72-.18-.97-.22-.25-.44-.48-.65-.71l-.38-.4.69-.78,2.26,2.51-4.58,5.06-2.28-2.52ZM8.65,20.26l-.2-.06c-1.13-.34-1.99-1.33-2.26-2.59-.27-1.31.15-2.65,1.08-3.51l.16-.15.65.73-.15.14h0s-.04.04-.04.04c-.47.43-.76,1.04-.82,1.71-.06.67.13,1.33.52,1.85.28.37.65.65,1.06.79l.16.06-.17,1ZM9,18.84l-.13-.04c-.69-.18-1.23-.8-1.37-1.57-.15-.7.28-1.65.77-2.16l.14.09c.32.26.56.64.68,1.06.09.41.22.82.33,1.18l.18.6-.09.09c-.17.19-.32.39-.45.61l-.07.13ZM11.9,24.67v.05c-.04.22-.22.39-.42.39,0,0-.02,0-.03,0h-.03s0,0,0,0c-.22,0-.41-.19-.43-.45-.01-.29,0-.56,0-.84v-.52h.92v.7c0,.23,0,.45,0,.67ZM12.94,24.33l-.16.03s-.09.01-.13.01-.09,0-.13-.01h-.19v-.21s0-1.01,0-1.01l.61-.3v1.49ZM11.41,22.85h0c-1.28-.02-2.31-1.18-2.31-2.59,0-.68.25-1.34.69-1.81.44-.48,1.01-.74,1.63-.74h0c1.3.04,2.31,1.22,2.28,2.64-.03,1.38-1.04,2.48-2.29,2.5ZM14.12,21.95l.16.03v2.51s0,0,0,0c0,.44-.24.61-.46.61,0,0-.02,0-.03,0-.1,0-.21-.05-.29-.13-.12-.15-.17-.31-.16-.49v-2s.93-1.1.93-1.1v.58s-.17-.01-.17-.01h0ZM14.57,20.46s-.06.06-.09.1l-.34.33.02-.5c.03-.82-.26-1.62-.77-2.21-.49-.57-1.18-.91-1.89-.92h-.44s2.15-2.53,2.15-2.53l.05.45c.06.52.3.98.67,1.31.38.34.88.48,1.37.39.86-.16,1.49-.97,1.49-1.94v-.42l2.35,1.87-.39.12c-.62.19-1.16.58-1.56,1.13l-.05.06c-.61.67-1.24,1.36-1.85,2.01l-.7.76ZM15.31,24.33l-.17.03s-.09.01-.14.01-.09,0-.14-.01l-.17-.03v-2.74l.16-.03c.07-.01.14-.02.22,0h.23s0,2.78,0,2.78ZM16.66,24.48c.02.16-.03.35-.15.48-.09.09-.2.14-.31.14-.06,0-.12-.01-.18-.04-.18-.07-.3-.27-.29-.49v-3.01h.85l.05.12c.03.07.04.14.03.22h0s0,2.58,0,2.58ZM17.68,24.36h-.6v-2.77l.16-.03c.09-.02.19-.02.28,0l.16.03v2.77ZM14.67,21.09l2.22-2.56v.51c.03.62.25,1.22.63,1.68l.3.36h-3.14ZM19.01,24.61h0c0,.27-.2.5-.45.5-.27,0-.47-.23-.47-.51v-3.03h.85l.05.13c.03.08.04.16.03.24h0s0,2.68,0,2.68ZM20.57,20.47c-.36.4-.85.63-1.35.63h0c-.51,0-.98-.22-1.34-.62-.36-.4-.56-.93-.56-1.49,0-.56.2-1.09.56-1.49.35-.39.84-.62,1.34-.62,1.04,0,1.89.95,1.9,2.1,0,.55-.2,1.1-.55,1.49ZM22.53,16.99c-.02.61-.32,1.17-.79,1.5l-.22.15-.07-.28c-.12-.47-.35-.89-.67-1.22l-.07-.07v-.1c.06-.69.37-1.34.85-1.78l.12-.11.12.11c.5.43.77,1.1.72,1.8ZM20.88,15.25l-4.58-5.07,2.3-2.55.68.75-.39.42c-.21.23-.43.47-.64.71-.34.37-.34.97,0,1.33.14.15.32.25.51.27.27.04.54-.07.72-.29l.99-1.11.8.93-.36.39c-.21.23-.43.46-.64.7-.17.18-.26.42-.26.67,0,.25.09.49.25.67.15.16.34.26.55.28.22,0,.47-.08.64-.26.18-.19.35-.38.52-.57l.49-.52.18.1.51.6-2.29,2.54ZM20.06,9.55l-.22.25c-.22.25-.44.5-.67.74-.06.08-.16.14-.27.15-.01,0-.02,0-.03,0-.1,0-.2-.04-.27-.11l-.05-.06c-.06-.05-.13-.17-.14-.31,0-.16.05-.28.14-.37.18-.2.37-.41.55-.61l.49-.53.61.7-.13.15h0ZM22.17,11.65l-.39.45c-.2.23-.4.46-.61.68-.07.08-.17.13-.28.14h-.01c-.11,0-.2-.04-.28-.12l-.03-.04c-.08-.08-.13-.19-.14-.3-.01-.13.02-.25.1-.34l.05-.06c.2-.23.42-.47.65-.72l.37-.41.62.68-.05.05h0ZM24.28,13.15l-6.09-6.73.72-.59,5.91,6.52-.53.79ZM25.68,11.07h-.01c-.11.18-.22.34-.32.5l-.24.36-5.79-6.41.18-.15c.06-.05.13-.11.19-.16l.04-.03c.21-.21.46-.39.74-.51.43-.17.91-.02,1.2.37l2.69,2.98c.4.44.8.88,1.2,1.33.22.2.36.5.39.83.03.33-.06.65-.26.9Z"/><path d="M11.4,21.26h0c.5,0,.9-.44.91-.98,0-.53-.39-.97-.87-.98h-.02c-.48,0-.88.43-.89.97,0,.26.08.51.25.7.16.19.39.3.62.3h0ZM10.95,20.29c0-.29.21-.51.46-.52v.04s0-.05,0-.05c.25,0,.45.23.46.51-.02.26-.2.46-.43.48-.01,0-.02,0-.04,0-.11,0-.22-.04-.3-.12-.09-.09-.15-.21-.16-.35Z"/><polygon points="11.4 21.28 11.4 21.39 11.4 21.39 11.41 21.39 11.4 21.28"/><path d="M19.22,18.01h-.01c-.24,0-.46.11-.63.3-.17.19-.26.44-.25.7,0,.54.4.97.89.97h.02c.24,0,.46-.11.63-.3.17-.19.26-.44.25-.7,0-.54-.41-.97-.89-.97ZM19.68,18.99c0,.14-.04.26-.13.36-.09.1-.2.15-.32.15h0c-.13,0-.24-.05-.33-.14-.09-.09-.14-.22-.14-.35,0-.28.2-.51.45-.52.26,0,.46.22.48.49h0Z"/></svg>