<?xml version="1.0" encoding="UTF-8"?><svg id="Layer_1" xmlns="http://www.w3.org/2000/svg" viewBox="0 0 30 30"><path d="M16.86,25.51c4.22-.75,7.61-3.94,8.61-8.11.13-.54.22-1.1.26-1.65,0-.07.02-.13.04-.18v-1.34l-.05-.33c-.04-.28-.07-.56-.12-.83-.41-2.41-1.66-4.62-3.5-6.22-1.5-1.34-3.34-2.22-5.32-2.54-.26-.04-.52-.08-.78-.11l-.34-.04h-1.34s-.31.05-.31.05c-.28.03-.55.07-.82.12-2.93.5-5.54,2.21-7.16,4.71-1.01,1.5-1.61,3.25-1.74,5.05,0,.07-.02.13-.04.19v1.34l.05.36c.03.27.07.54.11.8.44,2.56,1.8,4.87,3.83,6.49,1.63,1.34,3.59,2.16,5.69,2.37.12-.01.28,0,.44.05h1.32l.38-.05c.27-.03.53-.07.8-.11ZM14.99,24.99c-5.56,0-10.08-4.53-10.07-10.08,0-5.56,4.52-10.08,10.08-10.08,2.69,0,5.23,1.05,7.13,2.95s2.95,4.44,2.95,7.13h0c0,5.55-4.53,10.08-10.09,10.08Z"/><path d="M14.87,15.26l3.7,3.69c.05.05.1.09.15.13.04.03.09.05.14.06.17.02.35-.1.38-.28.02-.13-.04-.26-.14-.35-1.19-1.19-2.35-2.35-3.52-3.52-.15-.13-.23-.34-.23-.55v-3.36s0-.1,0-.1c-.02-.19-.2-.34-.38-.31-.19.02-.32.19-.3.38v1.87s0,.02,0,.03v.6c0,.41.01.81,0,1.22,0,.19.07.37.2.49Z"/><path d="M15,6.8c-.19,0-.34.15-.34.34,0,.42,0,.84,0,1.26,0,.1.03.18.1.25.06.06.15.1.24.1.21-.03.34-.15.34-.34v-1.27c0-.09-.03-.18-.1-.24-.06-.06-.15-.1-.24-.1h0Z"/><path d="M8.08,15.25c.15,0,.29,0,.43,0,.17,0,.31-.15.32-.32,0-.19-.14-.35-.32-.35-.28,0-.56,0-.85,0h-.43c-.09,0-.18.04-.24.1s-.1.15-.1.24c0,.19.15.34.34.34h.59s.02,0,.04,0h.23Z"/><path d="M21.48,15.25c.44,0,.87,0,1.31,0,.19,0,.34-.15.34-.34,0-.09-.04-.18-.1-.24-.06-.06-.15-.1-.24-.1h-1.3c-.09,0-.17.03-.24.1-.07.06-.1.15-.1.24,0,.19.15.34.34.34Z"/><path d="M15.24,22.91c.06-.06.1-.15.1-.24,0-.43,0-.85,0-1.27,0-.24-.16-.37-.35-.37-.09,0-.17.04-.24.11-.06.07-.09.15-.09.24v.66s0,.02,0,.04v.59c0,.28.38.43.58.24Z"/><path d="M20.89,20.42c0-.22-.17-.39-.38-.4-.22,0-.39.18-.39.4,0,.21.17.38.39.38h0c.23,0,.39-.17.39-.38Z"/><path d="M9.11,9.4c0,.11.04.21.11.28.07.07.17.11.27.12.21,0,.39-.17.39-.39,0-.1-.04-.2-.11-.27s-.17-.11-.27-.11h0c-.23,0-.39.17-.39.38h0Z"/><path d="M9.11,20.42h0c0,.11.04.21.12.28.07.07.18.11.27.1.22,0,.39-.18.39-.39,0-.21-.19-.38-.41-.39-.2,0-.38.18-.37.4Z"/><path d="M20.89,9.39c0-.1-.04-.2-.12-.27-.07-.07-.16-.11-.26-.11h0c-.22,0-.39.18-.39.4,0,.21.19.38.41.38.2,0,.38-.18.37-.4h0Z"/></svg>