<?xml version="1.0" encoding="UTF-8"?><svg id="Layer_1" xmlns="http://www.w3.org/2000/svg" viewBox="0 0 30 30"><path d="M26.06,7.55c-.44-.92-2.03-1.6-3.17-1.63-.33-.02-.63-.02-.95,0-.14,0-.45.02-.69-.23-.16-.17-.23-.39-.2-.66,0-.16,0-.34,0-.51,0-.19-.13-.33-.3-.33-.08,0-.16.03-.21.09-.06.06-.09.13-.09.21v.24c0,.15,0,.29,0,.44.02.2-.04.39-.18.54-.14.15-.33.22-.57.22h-3.72c-.45,0-.74-.29-.74-.72v-.72c0-.15-.05-.21-.1-.25-.06-.05-.13-.07-.21-.08-.08,0-.15.04-.21.09-.05.06-.08.13-.08.21v.26c0,.15,0,.29,0,.44.01.23-.05.42-.19.56-.14.14-.33.22-.56.22-1.22,0-2.43,0-3.65,0-.46,0-.76-.29-.76-.75,0-.16,0-.31,0-.46v-.24c0-.1-.05-.19-.11-.25-.06-.05-.13-.08-.2-.08-.08,0-.15.04-.21.09-.05.06-.08.13-.08.21v.26c0,.15,0,.29,0,.44.01.23-.06.42-.19.56-.14.14-.33.22-.56.22-.15,0-.35,0-.57,0-.52,0-1.14.01-1.44.04-1.37.19-2.43,1.34-2.51,2.72v.25s0,13.68,0,13.68c-.03,1.29.77,2.44,2,2.85.14.05.27.08.42.11l.22.05,7.86-.04s.05-.03.07-.05c.11-.11.12-.3,0-.41-.07-.06-.18-.1-.28-.09h-6.57c-.27.01-1.35-.03-1.79-.24-.87-.42-1.39-1.31-1.33-2.26v-13.68c0-1.23.98-2.25,2.22-2.31.19-.01.58-.01.96-.01h.18c.24,0,.46,0,.59,0h0c.18,0,.39.08.5.18.22.2.22.45.22.55v.72c0,.15.05.21.1.25.06.05.13.08.21.08h0c.16,0,.29-.14.28-.31,0-.27,0-.5,0-.73-.02-.2.05-.39.18-.53.14-.15.32-.22.56-.22h3.69c.36,0,.73.23.73.74v.63s0,.1,0,.12c0,.08.05.16.12.21.06.05.13.07.2.06.17-.01.3-.16.28-.32v-.71c-.01-.25.1-.42.19-.52.09-.09.26-.21.53-.21h3.76c.19.02.38.06.52.2.13.13.2.31.2.52v.72c0,.13.1.22.2.25.09.04.22.04.31-.05.06-.06.09-.13.09-.21,0-.25,0-.48,0-.71,0-.22.06-.39.2-.53.13-.13.31-.2.53-.2h.86c.09,0,.22,0,.32,0,.61.05,1.3.32,1.85.73.68.51,1.02,1.14.97,1.79v4.83c0,.1,0,.16,0,.23,0,.05.04.11.08.16.12.12.31.11.42,0,.03-.03.06-.09.09-.14v-5.66c-.06-.27-.18-.61-.31-.9Z"/><path d="M21.72,16.16c-.25-.04-.5-.06-.75-.06-1,0-1.97.31-2.79.91-1.03.75-1.71,1.85-1.91,3.11-.34,2.21.87,4.33,2.94,5.16.43.15.91.27,1.37.34h.83c.37-.06.81-.17,1.2-.3,1.69-.61,2.87-2.1,3.08-3.88h0c0-.07.02-.12.03-.17v-.78s-.01-.09-.02-.14c-.25-2.14-1.89-3.85-3.99-4.19ZM23.91,23.81c-.79.78-1.83,1.21-2.94,1.21,0,0-.01,0-.02,0-2.29-.01-4.16-1.89-4.15-4.19.01-2.29,1.88-4.15,4.17-4.15,1.12,0,2.17.44,2.96,1.23s1.22,1.84,1.21,2.95c0,1.11-.44,2.16-1.23,2.95Z"/><path d="M9.2,12.23c-.34,0-.61.28-.61.62,0,.34.28.62.62.62h0c.34,0,.62-.28.62-.62,0-.34-.28-.61-.62-.61h0Z"/><path d="M13.05,12.23c-.34,0-.61.27-.62.61,0,.17.06.32.18.44.12.12.27.18.43.19h0c.34,0,.61-.27.62-.61,0-.34-.28-.62-.62-.62h0Z"/><path d="M16.29,12.84c0,.34.28.61.62.61h0c.16,0,.32-.06.43-.18.12-.12.18-.27.18-.44s-.06-.32-.18-.44c-.12-.12-.27-.18-.43-.18-.34,0-.62.28-.62.62Z"/><path d="M20.75,12.23h0c-.34,0-.61.29-.61.62,0,.17.07.32.19.43.12.11.29.19.44.18.34,0,.61-.28.61-.62,0-.34-.29-.61-.62-.61Z"/><path d="M9.82,16.69c0-.34-.28-.62-.62-.62h0c-.34,0-.61.28-.61.62,0,.34.28.62.62.62s.62-.28.62-.62Z"/><path d="M13.05,16.08c-.34,0-.61.27-.61.61,0,.17.06.32.18.44s.27.18.43.18c.15.02.32-.06.44-.18.12-.12.18-.27.19-.43,0-.34-.27-.62-.62-.62h0Z"/><path d="M8.59,20.54c0,.16.06.32.18.44.12.12.27.18.44.18h0c.16,0,.32-.06.43-.18.12-.12.18-.27.18-.43,0-.34-.28-.62-.62-.62-.34,0-.61.28-.62.61Z"/><path d="M13.05,19.92c-.16,0-.32.06-.43.18-.12.12-.18.27-.18.44,0,.34.28.62.61.62.34,0,.62-.28.62-.62,0-.34-.28-.61-.61-.61h0Z"/><path d="M20.94,21.15c.43.02.89.02,1.37,0,.13,0,.24-.12.25-.26,0-.15-.09-.28-.23-.32-.06-.01-.13-.02-.19-.01-.13,0-.42.02-.65-.2-.16-.15-.23-.36-.21-.62,0-.14,0-.29,0-.44v-.25c0-.16-.05-.22-.1-.26-.07-.06-.16-.08-.22-.08-.07,0-.15.04-.2.1-.05.06-.08.13-.08.21v.82s0,.05,0,.09v.32c0,.2,0,.41,0,.61h0c0,.16.11.28.25.29Z"/></svg>