<?xml version="1.0" encoding="UTF-8"?><svg id="Layer_1" xmlns="http://www.w3.org/2000/svg" viewBox="0 0 30 30"><g id="Group_15695"><path d="M15,25.55c-.19,0-.39-.06-.56-.19-.09-.07-.17-.16-.23-.26L5.65,15.94c-1.22-1.26-1.92-2.96-1.96-4.78s.59-3.56,1.76-4.88c.84-.95,1.91-1.61,3.09-1.92,2.2-.61,4.55.11,6.13,1.88.11.11.21.23.32.36l.04-.04c.2-.21.39-.4.58-.59,2.61-2.56,6.66-2.36,9.04.44.14.16.27.33.4.51.68.97,1.1,2.12,1.22,3.33,0,.04.01.08.02.12l.02.14v1.02s-.06.35-.06.35c-.03.23-.07.45-.11.68-.27,1.3-.89,2.47-1.78,3.39l-8.62,9.2c-.16.25-.45.39-.74.39ZM10.11,4.79c-.47,0-.95.06-1.42.19-1.08.28-2.04.88-2.81,1.74-2.19,2.47-2.11,6.4.18,8.75l8.6,9.21c.06.08.09.11.12.14.16.12.38.08.5-.09l8.66-9.25c.81-.84,1.37-1.89,1.61-3.07.04-.21.08-.43.11-.64l.05-.33v-.94c-.02-.06-.03-.12-.04-.18-.11-1.1-.49-2.14-1.11-3.02-.11-.16-.23-.32-.36-.46-2.16-2.54-5.83-2.72-8.19-.4-.19.19-.37.38-.57.58l-.48.5-.38-.44c-.11-.13-.23-.26-.34-.39-1.1-1.23-2.6-1.91-4.14-1.91Z"/></g></svg>