<?xml version="1.0" encoding="UTF-8"?><svg id="Layer_1" xmlns="http://www.w3.org/2000/svg" viewBox="0 0 30 30"><path d="M25.07,19.7v-10.3c.02-.17-.06-.3-.18-.36,0,0-.01,0-.02-.01l-2.71-1.36c-.07-.04-.14-.05-.21-.02-.11.03-.18.11-.19.21-.03.14.03.24.12.29.26.14.5.26.75.38l.32.16c.15.07.26.25.23.41-.09.49-.03,1.06,1.15,1.85.1.07.18.2.18.32v8.58c-.04.5-.37.89-.82,1.01-.32.1-.68.03-.96-.17-.3-.24-.47-.61-.46-.98v-5.36c.01-.97-.43-1.91-1.2-2.5-.38-.32-.82-.55-1.29-.67-.14-.05-.31-.22-.31-.37v-4.27c.02-.87-.44-1.67-1.19-2.09-.26-.14-.55-.24-.85-.3h-8.93s-.03,0-.05,0c-1.3.17-2.21,1.27-2.13,2.53v15.5c0,.14-.08.26-.2.33l-.32.16c-.22.11-.43.21-.64.32-.16.07-.25.21-.24.36v1.9c-.03.23.1.39.28.42.02,0,.12,0,.14,0h15.15c.2.02.34-.08.36-.23,0-.02,0-.11,0-.13v-1.88c.02-.21-.09-.38-.26-.45-.24-.11-.45-.22-.65-.32l-.25-.13c-.09-.07-.22-.22-.22-.34v-10.01c0-.12.06-.23.16-.3.1-.07.23-.08.34-.04,1.07.43,1.71,1.39,1.72,2.45v5.24c0,.17.01.34.03.52.07.43.3.82.66,1.09.36.26.81.37,1.24.31.16-.03.32-.08.47-.15.61-.29.98-.92.95-1.59ZM19.83,23.21l.25.13s0,0,.01,0h.01c.12.07.2.19.2.33v1.05c0,.2-.16.36-.36.36H5.87c-.2,0-.36-.16-.36-.36v-1.06c0-.14.08-.26.2-.33l.29-.15c.2-.1.41-.21.63-.32.19-.08.29-.24.28-.42v-5.48c0-3.37,0-6.85-.01-10.27-.02-.53.18-1.06.56-1.45.39-.38.93-.59,1.45-.57,1.92.01,3.87.01,5.75,0h2.31c.94-.11,1.84.62,1.95,1.61.01.12.01.25,0,.37v2.66c0,4.27,0,8.69,0,13.03-.03.26.1.47.31.54.22.09.42.19.61.29Z"/><path d="M16.68,8.07s0-.07,0-.1c.01-.08,0-.16-.05-.22-.05-.06-.12-.1-.19-.11-.02,0-.12,0-.14,0h-6.79s-.03,0-.05,0c-.18,0-.3.11-.32.25,0,.01,0,.1,0,.11v5.41c-.02.21.09.36.25.38.02,0,.11,0,.13,0h6.79c.21.02.36-.09.38-.25,0-.02,0-.11,0-.13v-5.34ZM16,13.11c-.07.07-.16.11-.26.11h-5.67c-.2,0-.36-.16-.36-.36v-4.28c0-.2.16-.36.36-.36h5.67c.2,0,.36.16.36.36v4.28c0,.1-.03.19-.1.26Z"/></svg>