<?xml version="1.0" encoding="UTF-8"?><svg id="Layer_1" xmlns="http://www.w3.org/2000/svg" viewBox="0 0 30 30"><path d="M17.82,9.33c-.16.16-.16.41,0,.57.2.17.47.14.61-.04.26-.26.51-.5.75-.74l.55-.54c.05-.05.14-.17.31-.17.02,0,.04,0,.06,0,.12.02.21.12.21.25v1.89c0,1.12,0,2.23,0,3.35,0,.22-.05.49-.46.55-2.07.3-3.77,1.71-4.46,3.68-.49,1.4-.4,2.91.25,4.24.65,1.33,1.77,2.34,3.18,2.82.46.15.95.26,1.43.33h.95c.42-.06.88-.16,1.32-.29,2.08-.67,3.58-2.5,3.83-4.67,0-.06.02-.11.03-.15v-.95s-.02-.14-.04-.24c-.03-.18-.06-.36-.11-.53-.53-2.25-2.42-3.95-4.7-4.24-.29-.05-.42-.21-.42-.49v-5.13c0-.07-.03-.25.14-.38.1-.08.24-.07.33.02l.35.35c.35.35.7.69,1.05,1.04.11.12.21.17.32.17.15,0,.22-.04.3-.11.17-.21.14-.46-.03-.59-.86-.84-1.69-1.67-2.53-2.49-.04-.04-.05-.06-.08-.08-.17-.14-.44-.12-.58.06-.85.84-1.68,1.66-2.51,2.48l-.06.05ZM20.87,24.74s-.05,0-.08,0c-2.6,0-4.74-2.1-4.78-4.71-.02-1.28.46-2.49,1.35-3.4.89-.92,2.08-1.43,3.36-1.45.04,0,.05,0,.06,0,2.64,0,4.79,2.14,4.8,4.78,0,2.6-2.11,4.75-4.71,4.79Z"/><path d="M14.86,9.49c-.19-2.24-1.7-4.09-3.84-4.74-.42-.13-.85-.22-1.28-.28h-.94c-.44.06-.92.16-1.38.31-2.05.68-3.53,2.5-3.78,4.65,0,.06-.02.11-.03.16v.95c.05.35.12.73.23,1.1.63,2.09,2.44,3.62,4.61,3.91.29.05.42.21.42.49,0,1.16,0,2.32,0,3.48,0,.03-.01.04-.01.06v.4h-.34c-.05,0-.1,0-.13,0-.37,0-.73,0-1.1,0h-.55c-.06,0-.09,0-.13,0-.22.03-.37.22-.35.44.01.11.07.2.15.27.08.07.19.1.29.08h.61c.38,0,.76,0,1.14,0h0c.09,0,.21.01.31.11.11.11.11.26.11.31v1.78c0,.11.06.21.14.27.08.07.19.1.3.09.22-.02.39-.22.37-.44v-.57c0-.36,0-.72,0-1.08,0-.07,0-.24.11-.36.11-.11.25-.12.36-.12.38,0,.75,0,1.12,0h.56c.05,0,.08,0,.11,0,.22-.02.38-.22.36-.44-.02-.22-.22-.39-.44-.35h-.59c-.37,0-.75,0-1.13,0-.02,0-.04,0-.07,0h-.39v-.83h0c0-1.02.01-2.04,0-3.05,0-.43.26-.52.49-.56,2.96-.42,5.02-3.08,4.7-6.05ZM9.3,14.83h-.08c-2.63,0-4.78-2.13-4.81-4.76.04-2.64,2.14-4.73,4.77-4.77h.07c2.64,0,4.81,2.13,4.84,4.77h0c-.02,2.63-2.17,4.76-4.8,4.76Z"/></svg>