<?xml version="1.0" encoding="UTF-8"?><svg id="Layer_1" xmlns="http://www.w3.org/2000/svg" viewBox="0 0 16 16"><defs><style>.cls-1{opacity:.6;}</style></defs><path id="Path_8637" d="M7.3,15.75c0-.43,0-.87,0-1.3,0-.12-.04-.16-.16-.18-.81-.1-1.59-.37-2.3-.78-1.13-.64-2.04-1.64-2.59-2.83-.27-.57-.44-1.18-.52-1.8-.02-.12-.06-.16-.18-.15-.39,0-.79,0-1.18,0-.09,0-.12-.03-.12-.12,0-.38,0-.78,0-1.17,0-.1.03-.12.13-.12.39,0,.78,0,1.16,0,.13,0,.17-.04.19-.16.1-.8.36-1.58.77-2.27.66-1.15,1.65-2.07,2.85-2.61.57-.27,1.17-.44,1.79-.52.12-.01.17-.05.16-.19,0-.38,0-.78,0-1.16,0-.1.02-.13.12-.13.39,0,.78,0,1.17,0,.09,0,.12.03.12.12,0,.4,0,.79,0,1.18,0,.12.03.17.15.18.63.07,1.23.25,1.81.52,1.18.54,2.17,1.45,2.83,2.59.41.7.68,1.49.79,2.3.02.11.05.16.18.16.43,0,.87,0,1.3,0v1.39c-.43,0-.87,0-1.3,0-.12,0-.16.04-.18.16-.08.62-.25,1.23-.52,1.79-.92,1.98-2.77,3.34-4.9,3.62-.11.01-.16.05-.16.18,0,.43,0,.87,0,1.3h-1.4ZM12.93,8.01c-.05-2.78-2.29-4.99-5.02-4.94-2.65.05-4.79,2.22-4.84,4.92.05,2.78,2.29,4.99,5.02,4.95,2.65-.05,4.79-2.22,4.85-4.92h0Z"/><path id="Path_8638" class="cls-1" d="M10.17,5.78c-1.2-1.22-3.15-1.22-4.35,0s-1.2,3.22,0,4.44,3.15,1.22,4.35,0c1.2-1.23,1.2-3.21,0-4.43h0Z"/></svg>