<?xml version="1.0" encoding="UTF-8"?><svg id="Layer_1" xmlns="http://www.w3.org/2000/svg" viewBox="0 0 30 30"><path d="M22.53,25.61h-5.14c-.72,0-1.07-.35-1.07-1.08v-5.03h-2.64v5.04c0,.7-.36,1.06-1.07,1.06h-5.16c-.71,0-1.06-.36-1.07-1.06v-8.61h-.84c-.19,0-.39,0-.58-.01-.55-.02-1.04-.39-1.21-.92-.21-.5-.08-1.1.35-1.48.4-.38.81-.75,1.23-1.13l.41-.37,8.2-7.44c.5-.57,1.41-.63,2-.11.05.04.09.09.14.14l1.69,1.54c.1-.38.44-.67.85-.68h.07c1.47,0,2.96,0,4.45,0,.23,0,.46.07.64.23.18.16.29.38.3.63,0,.05,0,.11,0,.16v5.29c0,.07.03.13.07.17.27.24.52.47.77.7.27.24.54.49.81.73.26.23.46.52.58.84l.02.09-.02.53c-.06.17-.14.33-.23.48-.3.43-.78.67-1.28.63-.38,0-.79,0-1.19,0v8.57c0,.73-.35,1.08-1.08,1.08ZM13.13,18.95h3.75v5.58c0,.42.11.52.52.52h5.14c.42,0,.53-.11.53-.53v-9l.34-.12c.47,0,.95,0,1.42,0,.32.03.62-.12.79-.37.05-.1.11-.21.16-.34v-.33c-.09-.22-.23-.42-.41-.57-.27-.24-.54-.49-.81-.74-.25-.23-.5-.46-.75-.68-.17-.14-.28-.37-.27-.6v-5.41c0-.1-.04-.18-.12-.25-.07-.06-.15-.1-.26-.09-1.5,0-3,0-4.48,0-.23,0-.39.17-.38.37v.98l-2.61-2.37c-.05-.05-.08-.08-.11-.11-.37-.32-.92-.28-1.25.08l-8.63,7.83c-.41.37-.83.74-1.23,1.13-.25.22-.33.57-.2.88.11.34.4.55.73.56.19.02.37.02.55.01h1.39v9.16c0,.4.11.5.51.5h5.16c.41,0,.51-.1.51-.5v-5.6Z"/></svg>