<?xml version="1.0" encoding="UTF-8"?>
<svg xmlns="http://www.w3.org/2000/svg" version="1.1" viewBox="0 0 30 30">
  <defs>
    <style>
      .cls-1 {
        isolation: isolate;
        opacity: .5;
      }
    </style>
  </defs>
  <!-- Generator: Adobe Illustrator 28.7.1, SVG Export Plug-In . SVG Version: 1.2.0 Build 142)  -->
  <g>
    <g id="Layer_1">
      <circle id="Ellipse_38" class="cls-1" cx="15" cy="9.6" r="3.1"/>
      <path d="M17.7,4.3h-5.5c-1.5,0-2.7,1.2-2.7,2.7v5.5c0,1.5,1.2,2.7,2.7,2.7h2.4v10.6h.8v-10.6h2.4c1.5,0,2.7-1.2,2.7-2.7v-5.5c0-1.5-1.2-2.7-2.7-2.7ZM19.7,12.4c0,1.1-.9,2-2,2h-5.5c-1.1,0-2-.9-2-2v-5.5c0-1.1.9-2,2-2h5.5c1.1,0,2,.9,2,2v5.5Z"/>
    </g>
  </g>
</svg>