<?xml version="1.0" encoding="UTF-8"?><svg id="Layer_1" xmlns="http://www.w3.org/2000/svg" viewBox="0 0 30 30"><defs><style>.cls-1{opacity:.5;}</style></defs><circle id="Ellipse_38" class="cls-1" cx="15" cy="9.56" r="3.1"/><path d="M17.74,4.26h-5.49c-1.5,0-2.73,1.22-2.73,2.71v5.46c0,1.49,1.23,2.71,2.73,2.71h2.35v10.59h.79v-10.59h2.23s.12,0,.12,0c1.5,0,2.73-1.22,2.73-2.71v-5.46c0-1.49-1.23-2.71-2.73-2.71ZM19.72,12.43c0,1.08-.89,1.96-1.97,1.96h-5.49c-1.09,0-1.97-.88-1.97-1.96v-5.46c0-1.08.89-1.96,1.97-1.96h.12s5.37,0,5.37,0c1.09,0,1.97.88,1.97,1.96v5.46Z"/></svg>