<?xml version="1.0" encoding="UTF-8"?><svg id="Layer_1" xmlns="http://www.w3.org/2000/svg" viewBox="0 0 30 30"><path id="Path_9521" d="M8.19,25.67c-.11,0-.22-.02-.33-.06-.29-.13-.48-.4-.48-.71v-4.21h-.9c-1.61-.02-2.9-1.28-2.88-2.8V6.97c-.02-1.52,1.27-2.77,2.88-2.79h17.03c1.61.02,2.9,1.27,2.88,2.79v10.92c.02,1.52-1.27,2.77-2.88,2.8h-9.32l-5.48,4.78c-.15.13-.34.2-.54.2h0ZM6.48,4.71c-1.3.02-2.34,1.03-2.32,2.25v10.92c-.02,1.23,1.02,2.23,2.32,2.25h1.18c.16,0,.28.12.28.27,0,0,0,0,0,0v4.47c0,.09.05.18.14.22.09.04.19.02.26-.04l5.55-4.85c.05-.04.12-.07.19-.07h9.42c1.3-.02,2.34-1.03,2.32-2.25V6.97c.02-1.23-1.02-2.23-2.32-2.25H6.48Z"/><g id="Group_9774"><circle id="Ellipse_35" cx="8.43" cy="12.43" r="2.03"/><circle id="Ellipse_36" cx="15" cy="12.43" r="2.03"/><circle id="Ellipse_37" cx="21.57" cy="12.43" r="2.03"/></g></svg>