<?xml version="1.0" encoding="UTF-8"?><svg id="Layer_1" xmlns="http://www.w3.org/2000/svg" viewBox="0 0 30 30"><path d="M7.46,5.43c-.45,0-.87.19-1.19.51-.5.43-.94.9-1.37,1.35l-.02.02-.42.44c-.39.41-.66.91-.76,1.47-.03.17-.05.33-.07.51l-.03.22v.28c.03.11.04.29.06.46v.05c.02.18.04.37.08.55.24,1.12.63,2.2,1.16,3.22,1.82,3.62,4.6,6.68,8.04,8.83,1.37.9,2.86,1.59,4.43,2.04.43.12.88.2,1.34.24.07.01.12.02.17.04h.71s.08-.02.13-.03c.64-.06,1.24-.33,1.68-.76l.47-.46c.49-.48,1.01-.98,1.45-1.52.57-.65.56-1.63-.02-2.26-.9-.99-1.9-1.99-2.97-2.99-.62-.58-1.57-.59-2.21-.02-.35.3-.68.63-1,.95l-.03.03c-.19.2-.38.39-.58.58-.26.28-.51.22-.67.12-.12-.07-.24-.13-.36-.2-.18-.09-.35-.19-.52-.3-1.04-.69-1.99-1.5-2.84-2.41-.87-.88-1.6-1.88-2.17-2.97-.07-.11-.1-.26-.07-.41.03-.15.12-.29.25-.37.52-.47,1.05-1.02,1.52-1.56.54-.63.54-1.57-.01-2.19-.82-.92-1.76-1.87-2.87-2.9l-.03-.03s-.04-.04-.06-.06c-.32-.31-.74-.48-1.18-.48h-.03ZM8.05,6.14h0c.16.09.3.2.42.32l2.67,2.68s.03.03.07.06c.21.24.32.55.3.86-.02.32-.16.6-.39.81-.44.49-.94.97-1.42,1.42-.57.54-.58.61-.26,1.31.46.94,1.06,1.82,1.78,2.6,1.02,1.19,2.19,2.23,3.5,3.08.38.23.78.45,1.19.65.25.13.54.08.72-.13.36-.36.7-.7,1.04-1.04l.47-.47c.08-.08.14-.14.2-.19,0-.02.06-.07.1-.09.25-.2.55-.3.88-.27.32.03.61.18.81.43.38.37.78.77,1.18,1.17l.73.73c.27.27.56.55.82.84.46.45.48,1.18.03,1.67-.06.07-.13.16-.21.24l-.45.45c-.32.32-.66.65-.97.99-.51.55-1.23.86-1.98.86-.13,0-.27-.01-.4-.03-1.31-.15-2.58-.55-3.75-1.17-3.72-1.84-6.82-4.7-8.96-8.27-.85-1.34-1.47-2.81-1.85-4.37-.09-.41-.14-.83-.13-1.24-.04-.83.29-1.62.91-2.17.28-.27.57-.56.85-.84.19-.19.37-.38.56-.56.34-.45,1.01-.6,1.55-.33Z"/><path d="M17.72,4.34c-.22-.05-.44-.1-.62-.13l-.24-.05c-.12,0-.23.1-.26.23-.02.11.05.24.16.28.08.03.18.05.28.07,1.62.3,3.17.98,4.48,1.97,2,1.46,3.45,3.59,4.1,5.98.05.18.09.36.13.54.04.18.08.36.13.53.02.07.06.13.12.17.06.03.12.04.18.03h0c.15-.04.24-.16.21-.3-.11-.64-.27-1.26-.47-1.85-1.31-3.72-4.37-6.51-8.19-7.47Z"/><path d="M16.66,8.74c2.11.38,3.88,1.77,4.73,3.72.2.49.36.99.46,1.5.02.07.06.13.12.17.06.04.13.05.2.03.07-.02.13-.06.17-.13.04-.06.05-.14.03-.21-.41-2.3-1.92-4.21-4.04-5.13-.52-.24-1.07-.4-1.62-.49-.09,0-.16.03-.22.08-.05.05-.08.12-.08.2,0,.14.11.25.25.26Z"/></svg>