<?xml version="1.0" encoding="UTF-8"?><svg id="Layer_1" xmlns="http://www.w3.org/2000/svg" viewBox="0 0 30 30"><path d="M15,25.67l-.2-.23c-.32-.37-7.72-9.04-7.72-13.32s3.56-7.93,7.93-7.93,7.93,3.56,7.93,7.93-7.41,12.95-7.72,13.32l-.2.23ZM15,4.73c-4.08,0-7.39,3.32-7.39,7.39,0,3.7,6.19,11.28,7.39,12.73,1.21-1.44,7.39-9.02,7.39-12.73,0-4.08-3.32-7.39-7.39-7.39ZM17.54,14.57c-.72.63-1.63.95-2.54.95-.99,0-1.98-.38-2.73-1.13-1.51-1.51-1.51-3.96,0-5.46.73-.73,1.7-1.13,2.73-1.13s2,.4,2.73,1.13c.73.73,1.13,1.7,1.13,2.73,0,1.02-.39,1.98-1.1,2.7l-.23.21ZM15,8.33c-.85,0-1.71.32-2.35.97-1.3,1.3-1.3,3.41,0,4.71,1.29,1.29,3.38,1.3,4.68.03l.03-.04.12-.12c1.17-1.28,1.14-3.32-.13-4.58-.65-.65-1.5-.97-2.35-.97Z"/></svg>