<?xml version="1.0" encoding="UTF-8"?><svg id="Layer_1" xmlns="http://www.w3.org/2000/svg" viewBox="0 0 30 30"><path d="M17.3,15.85c2.65-.59,5.3-1.18,7.95-1.77.41-.08.75-.33.95-.68.07-.15.14-.32.2-.48v-3.78c-.08-.22-.18-.44-.29-.64-.29-.39-.78-.61-1.29-.56H5.05s-.04,0-.06,0c-.04,0-.08,0-.12,0-.76.06-1.33.73-1.27,1.5v3.2c-.02.71.46,1.31,1.15,1.44,2.66.59,5.31,1.18,7.96,1.77.25.05.37.2.36.46,0,.29,0,.59,0,.88v.44c0,.37.1.47.47.47h2.91c.38,0,.48-.09.48-.48v-.1c0-.4.01-.81,0-1.2,0-.27.11-.42.38-.48ZM16.21,17.22c0,.1-.08.18-.18.18h-2.07c-.1,0-.18-.08-.18-.18v-2.08c0-.1.08-.18.18-.18h2.07c.1,0,.18.08.18.18v2.08ZM16.93,15.02v-.13c0-.07,0-.14,0-.21-.02-.32-.12-.41-.43-.41h-2.96c-.36,0-.45.1-.46.46v.31c0,.05-.02.11-.07.14-.03.03-.07.04-.11.04-.01,0-.03,0-.04,0l-7.86-1.76c-.51-.11-.69-.35-.69-.86v-3.1c0-.59.25-.84.83-.84h19.75c.57,0,.82.26.82.84v3.1c0,.52-.19.75-.7.86l-7.6,1.7c-.06.01-.11.02-.18.03h-.08c-.11.04-.22-.04-.22-.16Z"/><path d="M4.8,16.27c-.02-.1-.1-.17-.2-.19-.05-.01-.1-.02-.15-.02-.07,0-.13.01-.19.06-.08.07-.13.2-.13.36,0,2.24,0,5.48,0,7.72,0,.23.05.46.14.67.24.52.8.84,1.34.78h9.31s.04,0,.06,0h1.96c2.45,0,4.9,0,7.35,0,.29,0,.54-.05.79-.15.51-.23.83-.77.77-1.34v-7.59c0-.06,0-.12,0-.18,0-.03,0-.05,0-.07-.02-.08-.07-.14-.14-.19-.07-.04-.16-.06-.23-.04-.18.03-.31.08-.31.48v7.51c0,.66-.24.9-.9.9H5.73c-.67,0-.91-.23-.91-.9v-7.46c0-.11,0-.22-.03-.32Z"/><path d="M18.34,5.96c0,.09,0,.18,0,.27.01.16.13.28.29.3.09.02.18,0,.25-.06.07-.05.12-.13.13-.22,0-.1,0-.22,0-.34,0-.02,0-.04,0-.07.02-.12.02-.25,0-.37-.1-.76-.81-1.31-1.57-1.2h-5.02c-.49-.02-.91.19-1.19.56-.28.44-.36.99-.23,1.5.04.14.18.23.32.21.18,0,.31-.12.32-.27.01-.11.01-.21.01-.32,0-.08,0-.15,0-.23.03-.61.43-.74.75-.74.86,0,1.72,0,2.58,0s1.72,0,2.58,0c.33,0,.74.13.76.76,0,.08,0,.16,0,.24Z"/></svg>