<?xml version="1.0" encoding="UTF-8"?><svg id="Layer_1" xmlns="http://www.w3.org/2000/svg" viewBox="0 0 30 30"><defs><style>.cls-1{isolation:isolate;}</style></defs><path d="M19.78,6.74c.18,0,.34,0,.49,0,.91,0,1.54.64,1.54,1.54,0,5.3,0,10.6,0,15.91,0,.8-.59,1.41-1.4,1.46-.09,0-.18,0-.27,0-3.42,0-6.84,0-10.26,0-.19,0-.38,0-.56-.04-.65-.15-1.11-.71-1.14-1.38,0-.08,0-.15,0-.23,0-5.31,0-10.62,0-15.93,0-.12.02-.24.06-.35.23-.65.67-1.09,1.35-1.25,2.87-.69,5.73-1.38,8.6-2.07.66-.16,1.22.07,1.47.62.07.17.11.36.12.55.02.31,0,.62,0,.93,0,.07,0,.15,0,.24ZM8.71,16.18c0,2.59,0,5.18,0,7.77,0,.1,0,.2,0,.29.03.39.31.74.69.84.13.03.27.04.4.04,3.47,0,6.95,0,10.42,0,.06,0,.12,0,.18,0,.4-.03.75-.3.84-.68.03-.14.04-.28.04-.43,0-5.2,0-10.39,0-15.59,0-.07,0-.14,0-.2-.03-.58-.41-.95-.99-.96-.34,0-.68,0-1.02,0-3.19,0-6.37,0-9.56,0-.3,0-.55.09-.75.3-.21.22-.26.48-.26.77,0,2.61,0,5.23,0,7.84ZM10.87,6.7s0,.01,0,.02h8.38c0-.39.01-.76,0-1.13-.02-.55-.37-.81-.92-.68-1.88.45-3.75.9-5.63,1.35-.61.15-1.23.29-1.84.44Z"/><path d="M15,17.42c-2.16.03-4.19-1.74-4.19-4.21,0-2.27,1.77-4.2,4.2-4.21,2.44,0,4.22,1.94,4.22,4.21,0,2.53-2.11,4.24-4.22,4.2ZM13.6,9.83c-.28.15-.58.28-.84.52.16.1.3.19.43.28.15-.26.28-.49.41-.72.01-.02,0-.05,0-.08,0,0,0,0,.01,0,0,0,0,0,0-.01ZM16.44,9.83s-.02,0-.01,0c0,0,0,0,.02,0,0,.01-.02.03-.02.04.13.25.27.51.41.78.15-.11.29-.2.47-.32-.31-.18-.59-.33-.87-.49ZM13,15.3c-.1-.62-.19-1.21-.28-1.8h-1.35c.07.88.4,1.61.99,2.24.23-.16.45-.3.64-.43ZM17.69,15.73c.58-.63.92-1.37.98-2.23h-1.35c-.09.61-.19,1.19-.28,1.79.2.14.42.28.65.44ZM17.04,11.14c.09.61.19,1.2.28,1.8h1.35c-.07-.87-.4-1.61-.99-2.23-.23.16-.45.3-.64.43ZM12.35,10.71c-.58.63-.91,1.36-.98,2.23h1.35c.09-.6.19-1.19.28-1.79-.2-.13-.42-.28-.65-.44ZM14.74,13.5h-1.45c0,.54.09,1.05.23,1.53.42-.09.82-.18,1.22-.27v-1.26ZM15.3,13.49v1.27c.41.09.81.18,1.22.26.14-.5.22-1,.22-1.53h-1.44ZM14.74,11.68c-.42-.09-.81-.17-1.22-.26-.14.49-.22.99-.22,1.53h1.44v-1.26ZM16.75,12.94c-.02-.55-.08-1.05-.23-1.54-.42.09-.81.18-1.21.27v1.27h1.45ZM14.74,15.33c-.38.03-.72.1-1.05.25.25.52.49,1.01,1.05,1.27v-1.52ZM15.3,16.85c.56-.27.81-.76,1.05-1.29-.36-.12-.69-.23-1.05-.22v1.51ZM13.69,10.87c.35.14.69.22,1.04.23v-1.52c-.55.28-.81.76-1.04,1.28ZM15.3,9.59v1.55c.36-.09.69-.16,1.05-.25-.24-.55-.49-1.02-1.05-1.3ZM16.41,16.58l.02.04c.28-.16.56-.33.87-.51-.19-.12-.33-.22-.47-.31-.15.28-.29.53-.43.79ZM13.2,15.8c-.15.1-.28.19-.47.31.32.19.6.35.87.5,0-.01.02-.02.02-.04-.14-.25-.28-.51-.43-.78Z"/><path d="M15.01,20.87c1.26,0,2.52,0,3.78,0,.29,0,.42.08.43.26,0,.18-.13.27-.41.27-2.53,0-5.06,0-7.59,0-.07,0-.14,0-.2-.02-.14-.03-.21-.13-.2-.27,0-.13.09-.22.23-.24.07,0,.14,0,.2,0,1.25,0,2.51,0,3.76,0Z"/><path d="M13.79,22.87c-.85,0-1.7,0-2.56,0-.06,0-.12,0-.18,0-.14-.02-.25-.13-.24-.26,0-.13.08-.23.22-.25.06,0,.12,0,.18,0,1.73,0,3.45,0,5.18,0,.06,0,.12,0,.18.01.14.03.21.11.21.25,0,.14-.09.24-.23.26-.06,0-.12,0-.18,0-.86,0-1.72,0-2.58,0Z"/><g class="cls-1"><path d="M11.07,18.6c-.04.07-.1.13-.19.18-.09.05-.19.07-.33.07h-.29v.66h-.27v-1.61h.56c.12,0,.23.02.31.06.09.04.15.1.19.17s.06.15.06.24c0,.08-.02.16-.06.23ZM10.78,18.56s.07-.11.07-.19c0-.18-.1-.26-.3-.26h-.29v.53h.29c.1,0,.18-.02.23-.07Z"/><path d="M11.37,18.51c.05-.1.13-.18.22-.23.09-.05.19-.08.31-.08.1,0,.19.02.26.06s.14.09.18.15v-.19h.27v1.28h-.27v-.19c-.04.06-.11.11-.18.15s-.17.06-.26.06c-.11,0-.21-.03-.3-.08-.09-.06-.16-.14-.22-.24-.05-.1-.08-.22-.08-.35s.03-.24.08-.34ZM12.28,18.63c-.04-.07-.08-.11-.14-.15-.06-.03-.12-.05-.19-.05s-.13.02-.19.05c-.06.03-.11.08-.14.15-.04.06-.05.14-.05.23s.02.17.05.23c.04.07.08.12.14.15.06.03.12.05.19.05s.13-.02.19-.05c.06-.03.11-.08.14-.15.04-.07.05-.14.05-.23s-.02-.16-.05-.23Z"/><path d="M13.15,19.47c-.08-.04-.14-.09-.19-.15-.05-.06-.07-.13-.07-.21h.27c0,.05.03.1.08.14.05.04.11.05.18.05s.13-.01.17-.04c.04-.03.06-.07.06-.11,0-.05-.02-.08-.07-.11s-.12-.05-.22-.08c-.1-.03-.17-.05-.23-.08s-.11-.06-.16-.11c-.04-.05-.07-.12-.07-.2,0-.07.02-.13.06-.19.04-.06.1-.1.17-.13.08-.03.16-.05.26-.05.15,0,.26.04.35.11.09.07.14.17.14.3h-.26c0-.06-.03-.1-.07-.14s-.1-.05-.17-.05-.12.01-.16.04c-.04.03-.06.06-.06.1,0,.03.01.06.04.09s.05.04.09.05c.04.01.09.03.16.05.09.02.17.05.23.08s.11.06.15.11c.04.05.07.12.07.2,0,.07-.02.14-.06.2-.04.06-.1.1-.17.13-.07.03-.16.05-.26.05s-.19-.02-.27-.05Z"/><path d="M14.39,19.47c-.08-.04-.14-.09-.19-.15-.05-.06-.07-.13-.07-.21h.27c0,.05.03.1.08.14.05.04.11.05.18.05.07,0,.13-.01.17-.04.04-.03.06-.07.06-.11,0-.05-.02-.08-.07-.11-.05-.02-.12-.05-.22-.08-.1-.03-.17-.05-.24-.08-.06-.02-.11-.06-.16-.11-.04-.05-.07-.12-.07-.2,0-.07.02-.13.06-.19.04-.06.1-.1.17-.13s.16-.05.26-.05c.15,0,.26.04.35.11.09.07.14.17.14.3h-.27c0-.06-.03-.1-.07-.14s-.1-.05-.17-.05-.12.01-.16.04c-.04.03-.06.06-.06.1,0,.03.01.06.04.09s.05.04.09.05c.04.01.09.03.16.05.09.02.17.05.23.08s.11.06.15.11c.04.05.07.12.07.2,0,.07-.02.14-.06.2s-.1.1-.17.13c-.07.03-.16.05-.26.05s-.19-.02-.27-.05Z"/><path d="M15.88,18.26c.08-.04.16-.06.26-.06.11,0,.21.03.31.08.09.06.16.13.22.23.05.1.08.21.08.34s-.03.24-.08.35c-.05.1-.12.18-.22.24-.09.06-.19.08-.31.08-.1,0-.18-.02-.26-.06-.08-.04-.14-.09-.19-.15v.8h-.27v-1.89h.27v.19c.04-.06.11-.11.18-.15ZM16.42,18.63c-.04-.06-.08-.11-.14-.15s-.12-.05-.19-.05-.13.02-.19.05-.11.08-.14.15c-.04.06-.05.14-.05.23s.02.17.05.23c.04.07.08.12.14.15.06.03.12.05.19.05s.13-.02.19-.05.11-.09.14-.15c.04-.07.05-.14.05-.23s-.02-.16-.05-.23Z"/><path d="M17.24,19.44c-.1-.05-.17-.13-.23-.23-.06-.1-.08-.22-.08-.35s.03-.25.09-.35c.06-.1.14-.18.23-.23.1-.05.21-.08.33-.08s.23.03.33.08c.1.05.18.13.24.23.06.1.09.22.09.35s-.03.25-.09.35c-.06.1-.14.18-.24.23-.1.05-.21.08-.34.08s-.23-.03-.33-.08ZM17.76,19.24c.06-.03.11-.08.15-.15.04-.06.06-.14.06-.24s-.02-.17-.05-.24c-.04-.06-.08-.11-.14-.15-.06-.03-.12-.05-.19-.05s-.13.02-.19.05c-.06.03-.1.08-.14.15s-.05.14-.05.24c0,.14.03.24.11.32.07.08.16.11.27.11.07,0,.13-.02.19-.05Z"/><path d="M18.91,18.25c.06-.04.14-.05.23-.05v.27h-.07c-.1,0-.18.03-.24.08-.05.05-.08.14-.08.27v.67h-.26v-1.28h.26v.19c.04-.06.09-.12.15-.15Z"/><path d="M19.69,18.44v.71s.01.08.03.1c.02.02.06.03.11.03h.16v.22h-.21c-.12,0-.21-.03-.27-.08-.06-.06-.1-.15-.1-.27v-.71h-.15v-.22h.15v-.32h.27v.32h.31v.22h-.31Z"/></g></svg>