<?xml version="1.0" encoding="UTF-8"?><svg id="Layer_1" xmlns="http://www.w3.org/2000/svg" viewBox="0 0 16 16"><defs><style>.cls-1{fill:#00c569;}</style></defs><ellipse id="Ellipse_38" class="cls-1" cx="8" cy="4.16" rx="2.29" ry="2.21"/><path d="M10.02.25h-4.05c-1.13,0-2.05.89-2.05,1.99v3.92c0,1.1.92,1.99,2.05,1.99h1.7v7.6h.65v-7.6h1.56s.13,0,.13,0c1.13,0,2.05-.89,2.05-1.99v-3.92c0-1.1-.92-1.99-2.05-1.99ZM11.44,6.16c0,.75-.63,1.37-1.41,1.37h-4.05c-.78,0-1.41-.61-1.41-1.37v-3.92c0-.75.63-1.37,1.41-1.37h.12s3.92,0,3.92,0c.78,0,1.41.61,1.41,1.37v3.92Z"/></svg>