<?xml version="1.0" encoding="UTF-8"?><svg id="Layer_1" xmlns="http://www.w3.org/2000/svg" viewBox="0 0 30 30"><path d="M22.33,23.28v-.84c0-.28,0-.56,0-.84,0-.05,0-.1,0-.14v-.09s.04,0,.04,0c.01,0,.02,0,.03,0,.02,0,.03,0,.04,0,.52,0,1.03,0,1.55,0,.61,0,1.01-.4,1.01-1.01,0-1.08,0-2.16,0-3.24,0-.61-.4-1-1.01-1.01-.32,0-.64,0-.96,0h-.71s0-.82,0-.82c0-.4,0-.8,0-1.2,0-.73-.41-1.33-1.06-1.57-.12-.04-.25-.07-.38-.09-.06-.01-.13-.03-.19-.04h-.04v-.05c0-.15,0-.29,0-.44,0-.34,0-.69,0-1.04v-.08c0-.29-.01-.59-.05-.88-.45-3.04-3.11-5.12-6.16-4.84-2.46.23-4.51,2.08-4.97,4.5-.08.4-.1.81-.11,1.26-.01.35,0,.71,0,1.06,0,.16,0,.32,0,.47v.04h-.07s-.06.02-.09.02c-.81.07-1.42.64-1.5,1.42-.04.34-.03.69-.03,1.03,0,.15,0,.29,0,.44,0,.17,0,.34,0,.52v.28h-.75c-.31,0-.63,0-.94,0h0c-.35,0-.62.14-.81.41-.05.07-.08.15-.12.24-.02.04-.03.07-.05.11v3.75l.02.05.05.11c.18.38.48.58.88.59.37,0,.74,0,1.13,0,.18,0,.36,0,.54,0h.05v.12c0,.05.01.1.01.15,0,.24,0,.48,0,.72,0,.32,0,.64,0,.96,0,.89.48,1.5,1.36,1.71.02,0,.04.02.05.02h0s11.84,0,11.84,0c.01,0,.03-.02.05-.03.88-.21,1.36-.81,1.36-1.71ZM9.92,12.23s0-.09,0-.14c0-.21,0-.42,0-.63,0-.45,0-.91.04-1.36.21-2.19,1.8-3.97,3.97-4.43,1.39-.3,2.85,0,4.01.81,1.16.81,1.9,2.04,2.09,3.44.07.54.07,1.09.08,1.63,0,.25,0,.5,0,.75v.05s-1.46,0-1.46,0v-.13s0-.1,0-.15c0-.19,0-.38,0-.58,0-.43,0-.87-.04-1.3-.15-1.62-1.54-3.02-3.18-3.18-.13-.01-.26-.02-.39-.02-1.8,0-3.29,1.22-3.61,3.02-.06.33-.06.67-.06,1,0,.13,0,.26,0,.4,0,.2,0,.39,0,.6,0,.09,0,.18,0,.28v.05h-1.44v-.12ZM18.05,11.66c0,.21,0,.43,0,.65v.05h-6.05v-.02s-.05-.03-.05-.06c0-.23,0-.47,0-.7,0-.52,0-1.06.08-1.57.22-1.39,1.51-2.44,2.95-2.44.05,0,.09,0,.14,0,1.53.07,2.79,1.24,2.92,2.71.04.46.03.91.02,1.38ZM8.24,14.04c0-.66.45-1.1,1.1-1.1,3.77,0,7.54,0,11.32,0,.63,0,1.08.43,1.1,1.04.01.46,0,.93,0,1.38,0,.19,0,.37,0,.56,0,.02,0,.04-.01.06l-.02.06h-13.49v-.9c0-.13,0-.26,0-.39,0-.24,0-.48,0-.71ZM6.09,20.75c-.42,0-.53-.12-.53-.54v-1.03c0-.69,0-1.37,0-2.06,0-.37.13-.5.5-.5,5.97,0,11.93,0,17.9,0,.36,0,.49.13.49.5v3.12c0,.37-.13.5-.5.5H6.09ZM20.62,24.44c-1.87,0-3.75,0-5.62,0s-3.75,0-5.62,0c-.7,0-1.14-.44-1.14-1.14,0-.58,0-1.15,0-1.73,0-.05,0-.09,0-.15v-.09h13.5v.05s0,.05,0,.07c0,.04,0,.08,0,.12v.49c0,.41,0,.82,0,1.24,0,.71-.44,1.14-1.14,1.14Z"/><path d="M8.73,19.08c-.11-.08-.23-.15-.35-.24l-.24-.16.06-.04c.06-.04.12-.08.17-.11.13-.08.24-.16.36-.24.14-.11.15-.17.15-.18,0-.11-.04-.24-.1-.31-.11-.13-.27-.05-.33,0-.1.07-.2.13-.31.2l-.23.15v-.09c0-.05,0-.1,0-.14,0-.08,0-.15,0-.22-.01-.18-.12-.29-.29-.29h-.01c-.16,0-.26.12-.27.3,0,.07,0,.14,0,.23v.22l-.08-.05c-.06-.04-.11-.07-.15-.1-.11-.07-.2-.14-.29-.19-.15-.08-.21-.07-.23-.07-.1.04-.2.13-.24.22-.07.14.07.26.12.29.13.09.25.17.38.26l.21.14-.02.04s0,.02,0,.02c0,.01,0,.03-.03.04-.08.05-.16.11-.24.16-.08.06-.16.11-.24.17-.11.07-.27.23-.14.43.09.14.27.16.45.05.09-.06.18-.11.28-.18l.24-.15v.21c0,.08,0,.15,0,.22,0,.19.11.31.28.32h0c.16,0,.28-.12.29-.31,0-.07,0-.14,0-.22,0-.04,0-.08,0-.13v-.09l.15.1c.13.09.24.16.35.23.18.12.35.1.45-.05.1-.15.04-.31-.14-.43Z"/><path d="M16.29,19.32c-.02-.09-.08-.17-.19-.25-.17-.11-.33-.23-.52-.35l-.06-.04.24-.16c.13-.08.25-.16.37-.25.17-.12.22-.28.12-.42-.09-.15-.26-.17-.45-.05-.08.05-.16.1-.24.16l-.27.18v-.09s0-.09,0-.14c0-.08,0-.15,0-.22-.01-.19-.11-.3-.28-.3-.17,0-.28.11-.29.3,0,.07,0,.14,0,.22,0,.04,0,.08,0,.13v.09l-.09-.06c-.1-.06-.16-.1-.22-.14-.03-.02-.06-.04-.08-.06-.04-.03-.08-.06-.13-.08-.17-.1-.34-.08-.43.06-.09.14-.05.3.12.42.11.08.22.15.33.22l.23.16-.03.04s-.01.02-.02.03c0,0-.01.02-.03.03l-.48.33c-.18.12-.23.29-.13.43.1.14.27.16.45.04.1-.06.19-.12.3-.19l.18-.12v.08c.02.07.03.15.03.22,0,.15,0,.29.08.36.05.04.12.06.22.06.25,0,.27-.16.27-.42,0-.08,0-.16.02-.23v-.08s.48.31.48.31c.19.12.36.11.45-.03.04-.06.06-.13.05-.2Z"/><path d="M12.4,19.07c-.14-.09-.27-.18-.42-.28l-.16-.1.15-.1c.15-.1.29-.19.42-.28.19-.13.25-.29.15-.44-.14-.2-.35-.11-.46-.03-.12.08-.24.15-.37.24l-.09.06v-.08c-.02-.07-.02-.14-.02-.21,0-.26-.02-.41-.27-.43-.01,0-.02,0-.03,0-.09,0-.16.02-.2.06-.08.07-.08.21-.08.36,0,.08,0,.16-.01.23v.08s-.25-.16-.25-.16c-.09-.06-.17-.11-.25-.17-.18-.12-.35-.1-.45.05-.1.15-.05.3.14.43.1.07.21.14.32.21l.27.18-.22.15c-.13.09-.26.17-.38.25-.18.12-.23.28-.13.43.09.14.26.16.45.04.11-.07.21-.14.33-.22l.18-.12v.22c0,.08,0,.14,0,.21,0,.2.1.32.27.32h.01c.16,0,.28-.12.29-.32,0-.07,0-.13,0-.21,0-.04,0-.08,0-.13v-.09l.12.08c.14.09.25.17.37.25.2.13.37.12.47-.03.1-.15.05-.31-.15-.44Z"/><path d="M19.98,19.32c-.02-.09-.1-.19-.24-.28-.12-.08-.25-.17-.39-.26l-.14-.09.25-.17c.12-.08.23-.15.34-.23.18-.13.23-.28.13-.43-.09-.15-.26-.17-.45-.05-.09.06-.19.12-.29.19l-.22.14v-.09s0-.09,0-.14c0-.08,0-.15,0-.22,0-.19-.11-.3-.27-.3h-.01c-.16,0-.27.11-.29.3,0,.07,0,.15,0,.22,0,.03,0,.06,0,.1v.04h-.07s-.04.02-.06,0l-.1-.06c-.09-.06-.18-.12-.27-.18-.19-.12-.35-.1-.45.04-.1.14-.05.31.13.43.12.08.23.16.36.24l.24.16-.13.09c-.16.11-.31.21-.46.31-.18.12-.23.28-.14.43.1.15.26.16.45.05.08-.05.16-.1.25-.16l.26-.17v.09c0,.05,0,.1,0,.15,0,.09,0,.17,0,.24.02.16.13.27.29.27.15,0,.26-.12.27-.28,0-.08,0-.15,0-.24,0-.04,0-.09,0-.14v-.09l.46.3c.23.15.39.15.5,0,.05-.07.06-.13.05-.19Z"/><path d="M21.16,19.89c.06.06.15.09.26.09.63,0,1.27,0,1.9,0,.11,0,.21-.04.27-.1.05-.05.07-.12.07-.19,0-.17-.14-.28-.34-.28-.24,0-.47,0-.71,0h-.72c-.16,0-.32,0-.48,0-.15,0-.33.05-.34.27,0,.08.02.15.07.2Z"/><path d="M10.26,14.28c.2,0,.33-.12.32-.29,0-.17-.12-.27-.32-.28-.13,0-.27,0-.43,0s-.31,0-.49,0c-.24,0-.33.1-.34.33,0,.28,0,.57,0,.9,0,.21.11.33.28.34.08,0,.15-.02.19-.07.06-.06.09-.15.1-.27,0-.13,0-.27,0-.41v-.25s.26,0,.26,0c.15,0,.29,0,.43,0Z"/></svg>