<?xml version="1.0" encoding="UTF-8"?><svg id="Layer_1" xmlns="http://www.w3.org/2000/svg" viewBox="0 0 30 30"><path d="M24.24,22.72c.02-.66-.01-1.33-.08-1.98h0c-.1-1.27-.44-2.48-1.02-3.61-.58-1.18-1.71-1.99-3.01-2.16-.45-.1-.92,0-1.29.25-.2.15-.43.29-.64.42l-.16.1c-1.84,1.26-4.23,1.26-6.08,0-.17-.11-.36-.22-.54-.34-.14-.09-.28-.18-.43-.27-.17-.12-.35-.18-.54-.19-.67,0-1.33.16-1.93.47-.92.53-1.62,1.38-1.97,2.39-.62,1.6-.88,3.35-.78,5.05.02,1.5,1.04,2.79,2.48,3.15.18.05.35.08.52.12l.25.05h11.9c.07-.03.14-.03.18-.03,1.77-.14,3.15-1.63,3.13-3.4ZM20.67,25.41c-1.3.01-2.64.01-3.94,0h-1.62s-.11,0-.11,0h-5.46s-.1,0-.15,0c-.56,0-1.12-.14-1.61-.41-.81-.46-1.3-1.31-1.29-2.24-.08-1.56.14-3.11.68-4.6.23-.62.57-1.16,1.02-1.64.57-.56,1.32-.87,2.11-.88.18.01.33.07.45.18.14.08.33.2.52.33.3.2.61.4.92.55,2,1.04,4.4.9,6.26-.37.29-.18.57-.36.85-.55.15-.1.33-.14.51-.13,1.19.07,2.23.8,2.73,1.88.49.99.79,2.05.88,3.16.07.59.1,1.2.1,1.82.01.11.01.24,0,.37-.04.72-.37,1.38-.91,1.86-.54.48-1.23.71-1.94.67Z"/><polygon points="14.86 13.24 14.86 13.24 14.86 13.24 14.86 13.24"/><polygon points="14.86 13.43 14.86 13.43 14.86 13.43 14.86 13.43"/><path d="M20.07,9.06h.12s-.12-.01-.12-.01c0-2.86-2.34-5.2-5.2-5.2-2.88,0-5.21,2.34-5.21,5.21,0,1.39.54,2.7,1.53,3.68.98.98,2.29,1.52,3.68,1.52,2.87,0,5.21-2.34,5.21-5.21ZM14.86,13.55h0c-2.49,0-4.49-2.02-4.48-4.49,0-2.47,2.01-4.48,4.48-4.48,2.47,0,4.48,2.01,4.48,4.48,0,2.47-2.01,4.48-4.48,4.48Z"/></svg>