<?xml version="1.0" encoding="UTF-8"?><svg id="Layer_1" xmlns="http://www.w3.org/2000/svg" viewBox="0 0 30 30"><path d="M5.78,4.26c-1.22,0-2.22,1-2.22,2.23v16.96c0,1.22,1,2.22,2.23,2.22h18.44c1.22,0,2.22-1,2.23-2.23V6.48c0-1.22-1-2.22-2.23-2.23h-1.89c-.17,0-.31-.14-.31-.31v-.79c0-.11-.03-.21-.1-.28-.07-.07-.16-.12-.27-.12-.18,0-.39.16-.39.37v.82c0,.17-.14.31-.31.31h-3.05c-.17,0-.31-.14-.31-.31v-.79c0-.09-.05-.19-.12-.26-.07-.07-.2-.1-.27-.1-.2,0-.36.17-.37.37v.78c0,.17-.14.31-.31.31h-3.05c-.17,0-.31-.14-.31-.31v-.79c0-.11-.03-.21-.1-.28s-.16-.12-.27-.12c-.19,0-.39.16-.39.37v.82c0,.17-.14.31-.31.31h-3.05c-.17,0-.31-.14-.31-.31v-.79c0-.22-.16-.4-.37-.4-.2,0-.39.16-.39.37v.82c0,.17-.14.31-.31.31h-1.89ZM25.68,23.45c0,.81-.66,1.46-1.46,1.46H5.78c-.81,0-1.46-.66-1.46-1.46v-13.69c0-.17.14-.31.31-.31h20.75c.17,0,.31.14.31.31v13.69ZM7.98,5.33v.79c0,.2.19.38.39.36.2,0,.36-.17.37-.37v-.78c0-.17.14-.31.31-.31h3.05c.17,0,.31.14.31.31v.79c0,.2.2.38.39.36.2,0,.36-.17.37-.37v-.78c0-.17.14-.31.31-.31h3.05c.17,0,.31.14.31.31v.79c0,.2.21.38.39.36.2,0,.36-.17.37-.37v-.78c0-.17.14-.31.31-.31h3.05c.17,0,.31.14.31.31v.79c0,.2.17.38.39.36.2,0,.36-.17.37-.37v-.78c0-.17.14-.31.31-.31h1.89c.81,0,1.46.65,1.47,1.46v1.9c0,.17-.14.31-.31.31H4.63c-.17,0-.31-.14-.31-.31v-1.89c0-.81.66-1.46,1.46-1.46h1.89c.17,0,.31.14.31.31Z"/><path d="M10.21,12.37h-2.95c-.21,0-.38.17-.38.38v2.95c0,.21.17.38.38.38h2.95c.21,0,.38-.17.38-.38v-2.95c0-.21-.17-.38-.38-.38ZM9.82,15.01c0,.17-.14.31-.31.31h-1.57c-.17,0-.31-.14-.31-.31v-1.57c0-.17.14-.31.31-.31h1.57c.17,0,.31.14.31.31v1.57Z"/><path d="M23.13,12.75c0-.21-.17-.38-.38-.38h-2.95c-.21,0-.38.17-.38.38v2.95c0,.21.17.38.38.38h2.95c.21,0,.38-.17.38-.38v-2.95ZM22.36,15.01c0,.17-.14.31-.31.31h-1.57c-.17,0-.31-.14-.31-.31v-1.57c0-.17.14-.31.31-.31h1.57c.17,0,.31.14.31.31v1.57Z"/><path d="M10.21,18.27h-2.95c-.21,0-.38.17-.38.38v2.95c0,.21.17.38.38.38h2.95c.21,0,.38-.17.38-.38v-2.95c0-.21-.17-.38-.38-.38ZM9.82,20.91c0,.17-.14.31-.31.31h-1.57c-.17,0-.31-.14-.31-.31v-1.57c0-.17.14-.31.31-.31h1.57c.17,0,.31.14.31.31v1.57Z"/><path d="M23.13,18.65c0-.21-.17-.38-.38-.38h-2.95c-.21,0-.38.17-.38.38v2.95c0,.21.17.38.38.38h2.95c.21,0,.38-.17.38-.38v-2.95ZM22.36,20.91c0,.17-.14.31-.31.31h-1.57c-.17,0-.31-.14-.31-.31v-1.57c0-.17.14-.31.31-.31h1.57c.17,0,.31.14.31.31v1.57Z"/><path d="M16.48,21.98c.21,0,.38-.17.38-.38v-2.95c0-.21-.17-.38-.38-.38h-2.95c-.21,0-.38.17-.38.38v2.95c0,.21.17.38.38.38h2.95ZM13.91,19.34c0-.17.14-.31.31-.31h1.57c.17,0,.31.14.31.31v1.57c0,.17-.14.31-.31.31h-1.57c-.17,0-.31-.14-.31-.31v-1.57Z"/><path d="M16.3,12.91l-1.6,1.6c-.06.06-.14.09-.22.09s-.16-.03-.22-.09l-.56-.56c-.08-.08-.17-.12-.27-.13h-.01c-.1,0-.19.04-.26.1-.08.07-.12.16-.12.26,0,.1.03.2.1.27l1.07,1.07c.07.07.17.11.27.11s.2-.04.27-.11l2.09-2.09c.08-.08.12-.17.13-.27,0-.1-.03-.2-.1-.27-.15-.16-.39-.16-.54-.02l-.02.02Z"/></svg>