<?xml version="1.0" encoding="UTF-8"?><svg id="Layer_1" xmlns="http://www.w3.org/2000/svg" viewBox="0 0 30 30"><path d="M9.98,22.74c.85.22,1.71.49,2.55.8,1.05.37,1.93,1.11,2.48,2.08.05-.07.09-.15.13-.22.31-.54.76-1,1.3-1.32.68-.41,1.41-.73,2.17-.95.77-.19,1.51-.43,2.23-.7.87-.35,1.65-.87,2.31-1.55,1.26-1.36,1.73-3.08,1.44-5.27-.18-1.03-.47-2.06-.87-3.05-.73-1.91-.52-4.07.58-5.79-.77-.77-1.48-1.51-2.2-2.25l-.37-.39c-.6.24-1.23.4-1.88.48-1.05.14-2.12.14-3.17,0-.55-.07-1.09-.19-1.61-.37-.03-.01-.06-.01-.09,0-1.5.46-3.02.59-4.56.4-.72-.07-1.43-.23-2.12-.5l-.6.62c-.64.67-1.29,1.33-1.94,1.99-.04,0-.03.03,0,.09.81,1.32,1.13,2.9.88,4.44-.13.7-.34,1.39-.62,2.04-.47,1.19-.7,2.44-.68,3.72,0,1.33.47,2.62,1.33,3.64.88.98,2.03,1.7,3.31,2.06ZM6.71,13.43c.47-1.07.7-2.2.69-3.36-.03-.97-.25-1.91-.64-2.8-.14-.22-.07-.56.17-.73.41-.41.84-.86,1.27-1.31.14-.18.41-.25.64-.16,1.91.48,3.96.47,5.9-.03.16-.04.34-.04.5,0,1.94.51,3.99.52,5.93.02.2-.08.46-.01.62.18.43.45.88.91,1.33,1.37.18.12.25.41.12.65-.86,1.87-.88,4.05-.05,5.95.46,1.08.72,2.23.78,3.4,0,0,0,0,0,.01.07,1.29-.33,2.56-1.14,3.57-.64.74-1.45,1.3-2.35,1.65-.68.25-1.37.47-2.07.64-1.04.28-2.01.76-2.88,1.4-.03.02-.05.05-.08.08-.1.1-.23.23-.43.25-.02,0-.03,0-.04,0-.22,0-.36-.16-.45-.25-.02-.03-.05-.06-.08-.08-1.01-.74-2.14-1.25-3.36-1.53-.99-.22-1.93-.6-2.8-1.14-1.31-.84-2.15-2.26-2.25-3.81-.09-1.34.14-2.71.67-3.95Z"/><path d="M14.68,17.24c.19-.12.46-.12.67.01.98.52,1.97,1.04,2.97,1.56l-.07-.42c-.17-.97-.33-1.95-.51-2.92-.06-.22.03-.48.23-.64.79-.77,1.59-1.55,2.4-2.34h-.05c-1.11-.17-2.22-.33-3.33-.49-.21-.02-.42-.17-.51-.39-.49-1-.99-2.01-1.49-3.02l-.22.43c-.42.86-.85,1.72-1.27,2.58-.09.23-.32.4-.59.41-.91.12-1.84.26-2.77.4l-.53.08c.81.79,1.63,1.59,2.44,2.38.14.09.24.32.2.54-.14.79-.28,1.59-.42,2.38l-.17,1.02.5-.26c.83-.44,1.67-.88,2.5-1.32ZM12.05,13.92l-.31-.31s-.07-.07-.12-.12l-.06-.07c-.08-.09-.11-.21-.07-.32.04-.11.13-.19.25-.21l.55-.08c.38-.06.74-.11,1.11-.16q.39-.05.56-.4l.75-1.53c.05-.11.16-.17.28-.17h0c.12,0,.23.07.28.17l.46.93c.15.3.3.61.45.91.01,0,.06.03.07.04.41.05.82.12,1.23.18l.72.1c.14.02.25.14.27.28.02.25-.14.38-.2.42l-.15.14c-.39.38-.78.76-1.17,1.14.09.56.18,1.08.26,1.61l.05.29s.01.09.01.14c0,.11-.05.25-.15.31-.09.06-.21.1-.31.05l-.83-.43c-.32-.17-.65-.34-.96-.51,0,0-.09,0-.1,0-.41.22-.82.44-1.25.66l-.52.27s-.1.04-.16.04c-.02,0-.03,0-.05,0-.17-.03-.28-.19-.26-.36l.09-.55c.07-.42.13-.82.22-1.22.06-.19,0-.37-.13-.47-.3-.25-.56-.52-.82-.78Z"/></svg>