<?xml version="1.0" encoding="UTF-8"?><svg id="Layer_1" xmlns="http://www.w3.org/2000/svg" viewBox="0 0 30 30"><defs><style>.cls-1{fill:#d0ff6f;font-family:Poppins-Medium, Poppins;font-size:3.1px;font-weight:500;isolation:isolate;}</style></defs><g id="Ad_Card"><text class="cls-1" transform="translate(9.53 -1.55)"><tspan x="0" y="0">Search</tspan></text></g><path d="M25.79,25.62l.56-.55-7.37-7.5.06-.09c.99-1.42,1.51-3.09,1.51-4.82,0-4.67-3.8-8.48-8.48-8.48S3.6,7.99,3.6,12.66s3.8,8.48,8.48,8.48c2.41,0,4.71-1.04,6.32-2.85l.09-.1.09.1,7.21,7.34ZM12.07,20.46c-4.3,0-7.79-3.5-7.79-7.79s3.5-7.79,7.79-7.79c4.3,0,7.79,3.5,7.79,7.79,0,4.3-3.5,7.79-7.79,7.79Z"/></svg>