<?xml version="1.0" encoding="UTF-8"?><svg id="Layer_1" xmlns="http://www.w3.org/2000/svg" viewBox="0 0 30 30"><path d="M4.11,24.39l.02.08c.16.7.8,1.2,1.54,1.2.01,0,.03,0,.04,0h6.53c.75.04,1.42-.49,1.58-1.2.16-.64.31-1.32.46-2.01.09-.41.04-.83-.16-1.2-.15-.28-.37-.52-.64-.7-.09-.06-.12-.19-.05-.28.02-.02.04-.04.06-.06.64-.55.95-1.36.82-2.18-.08-.9-.15-1.81-.22-2.68l-.05-.62c-.03-.39-.06-.78-.09-1.16-.08-.96-.17-2.05-.22-3.11-.04-1.2-1.09-2.13-2.32-2.11h-.12c-.13.01-.28,0-.43-.01-.09-.01-.16-.09-.17-.18-.02-.18-.02-.36,0-.54,0-.07.04-.13.1-.16.02-.01.05-.03.08-.04.36-.11.65-.34.81-.64.13-.29.13-.64,0-.94l-.05-.11c-.1-.26-.21-.52-.33-.78-.19-.49-.67-.8-1.19-.8,0,0-.02,0-.03,0h-2.2c-.55-.04-1.04.29-1.23.78-.15.32-.28.65-.4.96-.12.3-.12.64.02.93.15.28.41.5.74.6l.09.03c.07.03.14.11.15.18.01.18.01.37,0,.55-.01.1-.1.18-.2.18h-.65c-1.15.02-2.11.91-2.16,2.02-.03.48-.07.98-.1,1.45l-.35,4.59c-.04.5-.07,1.02-.12,1.53-.16.86.16,1.73.84,2.29.05.04.08.1.07.16,0,.06-.03.12-.08.16l-.07.05c-.62.43-.91,1.16-.73,1.87.14.66.29,1.3.44,1.91ZM13.31,24.2c-.05.55-.54.98-1.12.98-.03,0-.07,0-.1,0h-6.21c-.1,0-.22,0-.33-.03-.44-.05-.82-.39-.9-.83-.08-.34-.17-.7-.25-1.05l-.08-.34c-.02-.07,0-.15.07-.2.06-.05.14-.06.21-.03.25.11.52.16.81.17h7.1c.28,0,.55-.06.81-.17.07-.03.15-.02.21.03.06.05.08.13.07.2l-.29,1.26ZM12.82,9.76c.09-.02.18.03.22.12.09.2.13.41.14.62.04.51.08,1.04.11,1.55.03.38.05.76.08,1.14.05.68.1,1.36.16,2.03l.15,1.94c.03.42.06.84.09,1.26.01.84-.56,1.55-1.39,1.75-.02,0-.03,0-.05,0-.09,0-.18-.06-.2-.16,0-.03,0-.06,0-.09-.04-3.33.13-6.69.52-10,0-.09.08-.16.17-.18ZM6.84,6.7s-.02-.03-.03-.05c-.12-.23-.11-.5.01-.72.04-.1.09-.23.15-.36.04-.08.07-.16.1-.23l.05-.13c.11-.34.47-.6.85-.56h2.02c.36-.02.71.2.83.55l.1.24c.08.19.16.39.24.59.1.19.09.44-.03.64-.17.21-.4.31-.63.28-.23,0-.47,0-.72,0h-.36s-.01,0-.02,0h-1.9s-.05,0-.08,0c-.21,0-.43-.09-.58-.26ZM10.15,8.07v.05c0,.11-.09.2-.2.2h-1.95c-.1,0-.19-.08-.2-.19-.01-.16-.01-.33,0-.49,0-.1.1-.19.2-.19h1.94c.1,0,.19.08.2.18.02.14.02.29,0,.43ZM5.92,8.96c.2-.09.42-.13.64-.11,1.54,0,3.11,0,4.82,0,.21-.01.43.02.64.1.08.03.14.12.13.21l-.31,3.18c-.01.1-.1.18-.2.18h-5.32c-.1,0-.19-.08-.2-.18l-.31-3.18c0-.09.04-.17.12-.21ZM6.54,19.3s0,0,.01,0h0c1.6.09,3.22.09,4.82,0,.06,0,.11.02.15.06s.06.09.06.15v.52c0,.11-.09.2-.2.2h-4.84c-.11,0-.19-.08-.2-.19-.01-.18-.02-.36,0-.54,0,0,0-.01,0-.02,0-.11.1-.19.2-.19ZM6.35,18.41v-1.28c0-.11.09-.2.2-.2h4.82c.11,0,.2.09.2.2v1.29c0,.06-.03.12-.07.15-.23.2-.54.3-.86.28-.54,0-1.1,0-1.68,0s-1.12,0-1.68,0h0c-.31.02-.63-.08-.86-.29-.05-.04-.07-.1-.07-.16ZM11.42,16.39h-4.9c-.11,0-.2-.08-.2-.19-.02-.3-.03-.6-.04-.89v-.21c-.03-.59-.06-1.2-.11-1.81,0-.06.01-.11.05-.16.04-.04.09-.07.15-.07h5.19c.06,0,.11.02.15.06.04.04.06.09.06.15l-.14,2.91c0,.11-.1.19-.2.19ZM4.49,19.47c-.25-.36-.36-.79-.3-1.23.05-.58.09-1.17.13-1.74.02-.33.05-.67.07-1,.06-.77.12-1.54.18-2.31l.12-1.62c.03-.43.07-.88.1-1.32.01-.13.05-.26.11-.39.04-.08.13-.12.22-.11.09.02.16.09.17.18.39,3.32.56,6.71.52,10.06,0,.06-.03.12-.08.16-.04.03-.08.04-.13.04-.01,0-.03,0-.04,0-.44-.1-.82-.35-1.07-.72ZM5.67,20.76h6.62c.15,0,.32.02.47.05.4.1.73.37.89.74.03.06.02.14-.01.2-.26.41-.73.64-1.23.61,0,0-.01,0-.02,0h-6.83s-.08,0-.12,0c-.44,0-.87-.22-1.13-.58-.04-.06-.05-.13-.02-.2.22-.54.79-.87,1.37-.83Z"/><path d="M16.2,24.44c.15.72.8,1.23,1.55,1.23.02,0,.03,0,.05,0h6.5c.77.03,1.44-.49,1.6-1.21,0,0,.02-.07.02-.07.15-.63.31-1.29.44-1.93.16-.69-.12-1.4-.7-1.82,0,0-.01-.01-.02-.02,0,0-.01,0-.02,0,0,0-.05-.03-.06-.04-.05-.04-.08-.1-.09-.16,0-.06.03-.12.08-.16.44-.36.74-.86.83-1.41.04-.31.04-.63,0-.94l-.02-.18c-.05-.63-.09-1.28-.14-1.9-.03-.49-.07-.98-.1-1.46-.1-1.27-.2-2.65-.3-4.01-.09-1.11-1.06-1.98-2.21-1.98h-.19c-.14,0-.3,0-.46-.02-.1-.01-.17-.09-.18-.19-.01-.18-.01-.36,0-.54,0-.07.05-.14.12-.17.03-.02.06-.03.08-.03.34-.1.62-.32.77-.62.13-.29.14-.63.01-.93-.13-.34-.25-.64-.39-.93-.2-.49-.67-.81-1.23-.79h-2.2s-.02,0-.03,0c-.51,0-.96.28-1.16.73-.17.35-.32.71-.44,1.07-.11.29-.09.59.05.86.14.27.4.49.7.59.08.02.15.05.2.1.04.04.07.09.07.15v.1c0,.13,0,.28-.01.43-.01.1-.1.18-.2.18h-.62c-1.17.01-2.14.91-2.2,2.03-.02.33-.04.67-.07.99l-.35,4.57c-.04.45-.07.92-.1,1.38,0,.12-.02.25-.03.37-.04.32-.05.64-.03.95.04.62.35,1.2.84,1.6.05.04.08.11.08.17,0,.07-.04.13-.1.16-.66.45-.96,1.22-.77,1.93.14.69.31,1.36.44,1.93ZM25.62,23.26c-.08.36-.16.71-.25,1.05-.09.51-.57.86-1.11.86-1.09,0-2.19,0-3.27,0s-2.11,0-3.15,0c-.02,0-.04,0-.06,0-.52,0-.97-.37-1.06-.88-.07-.3-.15-.62-.22-.93l-.1-.42c-.02-.07,0-.15.07-.2.06-.05.14-.06.21-.03.26.11.53.17.81.17h1.97c1.56,0,3.32,0,5.11,0,.29,0,.57-.06.83-.17.07-.03.15-.02.21.03.06.05.08.13.07.2l-.07.33ZM24.71,9.89c.01-.11.11-.18.22-.18,0,0,0,0,0,0,.07,0,.13.05.16.12.1.23.16.48.16.74.12,1.51.23,3.03.31,4.18.08,1.02.14,1.92.19,2.75,0,.09.01.17.02.26v.08c.06.3.06.62.02.94-.13.7-.66,1.24-1.35,1.4-.01,0-.03,0-.04,0-.05,0-.09-.01-.13-.04-.05-.04-.08-.1-.08-.16-.04-3.35.13-6.74.49-10.08ZM18.91,6.69s-.02-.03-.03-.05c-.12-.23-.11-.49.01-.72.04-.11.09-.23.15-.36.03-.07.06-.13.08-.2l.07-.17c.11-.34.47-.58.84-.55h2.02c.36-.02.71.2.83.55l.17.41c.06.14.11.27.17.41.1.19.09.44-.03.64-.17.21-.4.31-.63.28-.22,0-.46,0-.71,0h-.32s-.02,0-.03,0h-1.94s-.05,0-.08,0c-.21,0-.43-.09-.58-.26ZM22.22,8.13c0,.11-.09.2-.2.2h-1.95c-.1,0-.19-.08-.2-.18-.02-.14-.02-.29,0-.43v-.05c0-.11.09-.2.2-.2h1.95c.11,0,.19.08.2.19.01.14.01.29,0,.43,0,.01,0,.02,0,.04ZM18,8.96c.21-.08.46-.11.68-.1,1.5,0,3.05,0,4.74,0,.22,0,.44.02.66.1.09.03.14.12.14.21l-.31,3.19c0,.1-.1.18-.2.18h-5.32c-.1,0-.19-.08-.2-.18l-.31-3.18c0-.09.04-.18.13-.21ZM18.49,19.36s.11-.06.15-.05c1.59.09,3.22.09,4.82,0h.01c.1,0,.19.08.2.18.02.19.02.38,0,.57-.01.1-.1.18-.2.18h-4.83c-.11,0-.2-.09-.2-.2v-.53c0-.06.02-.11.06-.15ZM18.43,18.41v-1.28c0-.11.09-.2.2-.2h4.83c.11,0,.2.09.2.2v1.29c0,.06-.03.12-.07.15-.23.2-.55.31-.86.28-.55,0-1.11,0-1.69,0s-1.12,0-1.69,0c-.31.01-.63-.09-.86-.29-.04-.04-.07-.09-.07-.15ZM23.5,16.39h-4.9c-.11,0-.2-.09-.2-.19l-.14-2.91c0-.06.02-.11.06-.15.04-.04.09-.06.15-.06h5.18c.06,0,.11.02.15.06.04.04.06.09.06.15l-.14,2.91c0,.11-.1.19-.2.19ZM16.28,18.81s0-.02,0-.03c-.03-.26-.03-.53,0-.79,0-.06.01-.14.02-.21.06-.9.13-1.81.2-2.68l.09-1.13c.09-1.22.19-2.47.29-3.71,0-.15.05-.3.12-.44.04-.08.12-.13.22-.11.09.02.15.09.16.18.37,3.33.54,6.73.5,10.09,0,.06-.03.12-.08.16-.04.03-.08.04-.13.04-.01,0-.03,0-.05,0-.68-.16-1.21-.69-1.35-1.36ZM17.74,20.76h3.83s2.81,0,2.81,0c.44-.02.88.16,1.16.5.09.09.16.21.2.34.02.06,0,.12-.03.17-.25.37-.67.59-1.12.59-.04,0-.09,0-.13,0h-6.84c-.45.03-.94-.18-1.21-.58-.04-.06-.05-.13-.02-.19.21-.54.77-.88,1.36-.83Z"/></svg>