<?xml version="1.0" encoding="UTF-8"?><svg id="Layer_1" xmlns="http://www.w3.org/2000/svg" viewBox="0 0 30 30"><path d="M5.81,7.46c-.17.05-.28.18-.29.34-.09.79-.14,1.57-.17,2.32-.12,2.12.04,4.24.46,6.32.35,1.78,1.04,3.44,2.05,4.94,1.45,2.21,3.67,3.74,6.25,4.31.34.09.67.13,1,.11.49-.06.99-.17,1.48-.33,2.09-.66,3.93-2.01,5.19-3.8,1.23-1.76,2.06-3.82,2.39-5.94.25-1.41.37-2.83.35-4.24h.19s-.19,0-.19,0c0-1.22-.07-2.46-.2-3.67-.01-.17-.12-.3-.27-.35-2.99-1.08-5.95-2.16-8.92-3.23-.07-.03-.14-.04-.21-.04s-.13.01-.2.04c-1.2.44-2.4.87-3.6,1.31l-5.3,1.92ZM15.14,5.02c2.71.98,5.42,1.97,8.13,2.95.19.04.37.25.37.5.09,1.01.13,2,.14,2.98h0c.02,1.84-.19,3.69-.63,5.48-.38,1.57-1.05,3.03-1.99,4.35-1.34,1.87-3.31,3.19-5.55,3.71-.24.05-.48.07-.72.07-.4,0-.8-.07-1.19-.2-2.31-.66-4.27-2.18-5.51-4.26-.82-1.35-1.4-2.83-1.71-4.4-.37-1.83-.52-3.69-.45-5.55.02-.73.07-1.47.13-2.2,0-.22.17-.44.42-.49l8.09-2.94c.14-.05.31-.05.46,0Z"/><path d="M15.96,19.38c.7,0,1.39,0,2.09,0,.25,0,.47-.1.64-.26s.25-.39.25-.63v-4.07c0-.08,0-.14,0-.2-.05-.49-.48-.84-.98-.8-.06,0-.18,0-.26-.08-.07-.07-.08-.17-.08-.24,0-.64,0-1.27,0-1.91.03-1.02-.74-1.87-1.76-1.94-.39-.03-.81-.03-1.2-.02-.18,0-.37,0-.53,0-.02,0-.04,0-.06,0-.51.02-.99.23-1.34.6-.35.37-.54.86-.52,1.38v1.81c0,.32-.07.39-.39.39-.03,0-.06,0-.08,0-.49.02-.87.44-.85.93v4.09s0,.08,0,.11c.01.23.12.45.3.61.18.16.41.24.64.22h3.47s0,0,0,0h.67ZM13.57,13.41c-.06,0-.14,0-.2-.07-.07-.06-.08-.15-.08-.22,0-.64,0-1.29,0-1.93,0-.02,0-.05,0-.08.01-.22.11-.43.27-.58.17-.15.39-.23.6-.21h1.55c.46.01.82.4.81.86,0,.3,0,.6,0,.91,0,.35,0,.7,0,1.05,0,.06,0,.14-.07.21-.07.07-.17.07-.22.07-.3,0-.59,0-.89,0h-.44s0,0,0,0h-.38c-.32,0-.63,0-.95,0h-.01ZM15.06,18.29h-.36s0,0-.02,0c-.01,0-.03,0-.04,0-.2-.02-.34-.2-.32-.4,0-.15,0-.33,0-.5v-.49c0-.16,0-.32,0-.48,0-.04,0-.06-.03-.07-.37-.27-.51-.75-.35-1.17.16-.42.57-.7,1.03-.67.44.02.83.35.93.78.1.38-.04.8-.36,1.04-.03.02-.05.05-.04.09,0,.33,0,.65,0,.97v.48c0,.29-.14.43-.43.43Z"/></svg>