<?xml version="1.0" encoding="UTF-8"?><svg id="Layer_1" xmlns="http://www.w3.org/2000/svg" viewBox="0 0 30 30"><path d="M15.25,4.2h0c-5.9,0-10.71,4.8-10.71,10.71,0,5.91,4.76,10.71,10.61,10.72,6.07,0,10.82-4.7,10.82-10.69,0-2.89-1.11-5.59-3.12-7.61-2.02-2.02-4.71-3.13-7.6-3.13ZM22.26,21.95c-1.88,1.86-4.4,2.88-7.09,2.88-5.43,0-9.84-4.46-9.84-9.92,0-2.65,1.03-5.15,2.9-7.02,1.87-1.87,4.37-2.9,7.02-2.9,5.47,0,9.92,4.45,9.92,9.92,0,2.67-1.04,5.17-2.92,7.04Z"/><path d="M8.67,14.76c0,.75.35,1.41.93,1.76.54.32,1.21.33,1.79.02.15-.08.33-.16.54-.16.14,0,.3.03.48.12,1.14.58,2.29,1.15,3.45,1.7.41.2.62.47.69.91.14.85.79,1.45,1.66,1.52.83.06,1.57-.41,1.86-1.18.29-.77.03-1.65-.64-2.14-.67-.49-1.56-.47-2.23.07-.43.34-.79.23-1.06.1-.71-.36-1.43-.72-2.15-1.07l-1.1-.54c-.22-.1-.59-.25-.57-.75.01-.5.35-.67.55-.78l.15-.08c1.11-.58,2.22-1.16,3.32-1.75.36-.19.67-.18,1.01.03.74.47,1.62.4,2.25-.18.61-.56.76-1.47.38-2.2-.38-.73-1.2-1.12-1.98-.95-.87.19-1.45.87-1.48,1.75-.01.52-.31.74-.57.88-1.1.57-2.2,1.14-3.29,1.73-.39.21-.7.18-1.05-.08-.6-.45-1.25-.52-1.92-.19-.63.31-.99.84-1.02,1.47Z"/></svg>