<?xml version="1.0" encoding="UTF-8"?><svg id="Layer_1" xmlns="http://www.w3.org/2000/svg" viewBox="0 0 30 30"><path d="M20.99,17.53c.26-.21.54-.46.81-.7l.3-.26c1.22-1.05,2.43-2.11,3.64-3.16.3-.23.4-.6.28-.94-.1-.35-.4-.58-.75-.6-2.09-.2-4.17-.38-6.25-.56-.3.02-.62-.19-.74-.52-.54-1.27-1.1-2.57-1.66-3.86l-.76-1.76c-.06-.17-.16-.31-.28-.42-.07-.07-.17-.12-.27-.16-.45-.18-.96.05-1.14.5-.84,1.94-1.68,3.88-2.51,5.81-.07.23-.31.41-.58.41l-5.71.51c-.11.01-.22.03-.33.03-.51-.05-.97.27-1.1.73v.34c.11.28.3.52.54.7.71.61,1.41,1.22,2.11,1.82.8.69,1.6,1.39,2.4,2.08.25.17.37.53.26.85-.43,1.85-.86,3.74-1.3,5.62l-.09.39c-.07.26-.02.53.13.74.28.4.84.49,1.25.21,1.82-1.08,3.62-2.14,5.42-3.21.2-.15.51-.15.74.02l5.37,3.18c.24.17.54.21.79.13.23-.07.42-.22.53-.44.11-.21.13-.44.06-.67l-.62-2.7c-.26-1.13-.52-2.26-.78-3.39-.09-.24.01-.55.26-.72ZM19.92,18.16l1.33,5.81c.03.12,0,.32-.11.4-.1.08-.23.15-.34.09l-1.55-.91c-1.22-.72-2.44-1.44-3.66-2.17-.37-.25-.84-.25-1.19,0-1.21.73-2.41,1.44-3.61,2.15l-1.59.93c-.05.03-.11.05-.18.05h0c-.11,0-.22-.06-.28-.17-.05-.08-.05-.18-.02-.26l.41-1.82c.31-1.36.62-2.73.94-4.1.1-.37-.02-.74-.31-.97l-4.64-4.02c-.1-.08-.14-.22-.1-.34.04-.12.15-.21.28-.23l.67-.07c1.84-.16,3.67-.33,5.51-.49.37-.03.68-.27.8-.61l2.37-5.5c.04-.1.15-.2.25-.22.11-.02.23-.02.3.05.11.11.19.25.23.4.75,1.71,1.51,3.48,2.26,5.25.14.38.49.63.89.64,1.43.12,2.85.25,4.26.38l1.67.15s.09.02.1.02c.1.02.22.1.26.19s.06.21.01.3c-.08.13-.19.25-.32.33-1.41,1.23-2.86,2.49-4.31,3.75-.32.25-.44.64-.34,1.01Z"/></svg>