<?xml version="1.0" encoding="UTF-8"?><svg id="Layer_1" xmlns="http://www.w3.org/2000/svg" viewBox="0 0 51.68 51.53"><path d="M36.54,3.59C24.54-2.37,10.04,2.31,3.75,14.02l-2.16-.89.77,5.78,4.62-3.56-2.14-.88C8.47,7.81,15.09,3.28,22.66,2.35c12.92-1.59,24.69,7.61,26.27,20.53l1.16-.14c-1.01-8.26-6.1-15.45-13.55-19.15Z"/><path d="M50.28,37.82l-.91-5.76-4.54,3.67,2.16.83c-4.04,7.82-12.1,12.79-20.95,12.81-12.14.04-22.32-9.17-23.48-21.26l-1.16.11c1.21,12.69,11.89,22.37,24.64,22.32,9.33-.03,17.83-5.29,22.05-13.56l2.19.84Z"/><path d="M32.51,32.64c.5-.83.76-1.74.76-2.71,0-1.28-.31-2.29-.93-3.02-.63-.74-1.36-1.28-2.16-1.6-.83-.33-2.02-.71-3.56-1.14l-.18-.05v-4.88l.33.12c.87.31,1.39.96,1.56,1.95h4.63c-.17-1.55-.77-2.79-1.79-3.68-1.09-.95-2.61-1.5-4.5-1.65l-.23-.02v-2.25h-1.29v2.25l-.23.02c-1.92.13-3.5.69-4.72,1.68-1.19.97-1.8,2.28-1.8,3.89,0,1.3.31,2.33.92,3.06.62.75,1.36,1.3,2.18,1.64.85.35,2.01.71,3.45,1.08l.19.05v4.96l-.33-.11c-1-.33-1.6-1.05-1.77-2.14h-4.61c.12,1.55.74,2.8,1.83,3.72,1.17.98,2.73,1.56,4.65,1.72l.23.02v2.28h1.29v-2.26h.24c1.37-.06,2.58-.36,3.57-.89.99-.53,1.75-1.21,2.26-2.04ZM25.15,23.73l-.35-.16c-.57-.25-1.02-.56-1.33-.9-.33-.36-.5-.82-.5-1.34,0-.61.17-1.09.52-1.45.34-.35.8-.57,1.37-.67l.29-.05v4.58ZM28.21,31.58c-.36.39-.86.65-1.47.75l-.29.05v-4.63l.34.13c.63.24,1.12.52,1.45.85.36.35.54.81.54,1.37,0,.59-.19,1.09-.56,1.49Z"/></svg>