<?xml version="1.0" encoding="UTF-8"?><svg id="Layer_1" xmlns="http://www.w3.org/2000/svg" viewBox="0 0 30 30"><path d="M24.88,4.2H5.11c-.42,0-.47.05-.47.45v20.49c0,.4.04.44.43.45h.59c.89.01,2.06.03,3.22.03,1.12,0,2.25,0,3.37,0h2.57s.09-.03.14-.03h9.94c.42,0,.46-.04.46-.46V4.68c0-.43-.05-.48-.49-.48ZM21.41,24.17c0,.16,0,.32,0,.49,0,.2-.16.36-.36.36h-12.17c-.1,0-.2-.04-.27-.12-.07-.07-.1-.17-.09-.28.02-.22.04-.43.05-.65v-.03c.03-.47.06-.96.19-1.43.38-1.45,1.75-2.46,3.34-2.48,2.04-.02,4.05-.02,5.98,0,1.73.01,3.17,1.32,3.34,3.05.04.37.03.75.02,1.08ZM11.39,15.88c0-.95.37-1.85,1.06-2.55.69-.7,1.6-1.08,2.57-1.09h.02c.95,0,1.85.37,2.53,1.05.7.69,1.08,1.59,1.08,2.56,0,.96-.38,1.87-1.06,2.55-.68.68-1.59,1.05-2.56,1.05-1.99,0-3.62-1.61-3.64-3.57ZM24.81,24.68c0,.2-.16.36-.36.36h-2.11c-.2,0-.36-.16-.36-.36v-.31c0-.22,0-.45,0-.67-.03-1.87-.82-3.12-2.41-3.85-.29-.13-.61-.21-.95-.29-.17-.04-.34-.08-.5-.13-.12-.03-.22-.13-.25-.25-.03-.12,0-.25.08-.34,1.15-1.22,1.31-2.47,1.24-3.3-.08-1.01-.56-2-1.27-2.67-1.56-1.45-3.94-1.53-5.54-.18-.95.8-1.45,1.82-1.5,3.03-.04,1.18.39,2.22,1.33,3.17.1.1.13.25.08.38-.05.13-.17.22-.31.23-1.35.11-2.39.65-3.15,1.65-.75.98-.86,2.1-.79,3.5,0,.1-.03.2-.1.27-.07.07-.17.11-.26.11h-2.12c-.2,0-.36-.16-.36-.36V5.11c0-.2.16-.36.36-.36h18.89c.2,0,.36.16.36.36v19.57Z"/></svg>