<?xml version="1.0" encoding="UTF-8"?><svg id="Layer_1" xmlns="http://www.w3.org/2000/svg" viewBox="0 0 30 30"><polygon points="9.28 9.34 9.28 9.34 9.28 9.34 9.28 9.34"/><path d="M26.22,14.27c0-.08-.02-.14-.06-.18-.06-.06-.16-.09-.31-.09h-.78c-.52,0-2.04,0-2.56,0-.16,0-.36-.08-.44-.25-.16-.27-.36-.54-.58-.79-.06-.08-.13-.16-.11-.27.02-.11.1-.17.17-.22.71-.42,1.06-1.23.87-2.03-.19-1.01-.39-2.01-.59-2.98-.17-.95-.98-1.62-1.93-1.62-.01,0-.03,0-.04,0-3.62,0-7.23,0-10.85,0-.01,0-.02,0-.03,0-.96,0-1.77.68-1.94,1.62-.2.99-.4,1.98-.59,2.98-.07.33-.05.67.05.98.27.82,1.04,1.38,1.9,1.38.02,0,.05,0,.07,0h1.01c.06,0,.11.03.13.08.03.05.02.11,0,.16l-.58.86c-.07.09-.17.14-.28.14h0c-.41.06-.83.23-1.19.47-.44.28-.93.47-1.45.57-.67.08-1.35.1-2.02.07-.32,0-.32.19-.32.26,0,.08.02.14.06.18.05.05.14.08.26.08.41,0,.89.01,1.37,0,.82-.02,1.62-.25,2.32-.68.15-.11.33-.2.52-.26.08-.03.15.01.18.08.02.04.02.08,0,.13-.69,1.65-.77,3.5-.25,5.2.49,1.73,1.6,3.21,3.13,4.17,2.48,1.77,5.81,1.8,8.31.07,3.41-2.25,4.42-5.5,3-9.67-.02-.05,0-.1.02-.14.03-.04.07-.06.12-.06h3.05c.33,0,.36-.13.36-.25ZM9,12.28c-.19,0-.37,0-.56,0-.15,0-.31,0-.46-.05-.37-.11-.68-.35-.87-.68s-.24-.73-.13-1.1c.08-.37.15-.76.23-1.14.11-.57.23-1.15.35-1.72.11-.72.74-1.24,1.47-1.21,3.61,0,7.22,0,10.84,0h.05c.7,0,1.31.52,1.42,1.22.2.98.4,1.98.59,2.97.13.65-.21,1.3-.81,1.58-.16.09-.38.06-.51-.08-.27-.25-.58-.48-.91-.67-.07-.04-.19-.11-.2-.24-.01-.11.06-.2.14-.28.29-.29.5-.66.59-1.06.13-.57.03-1.15-.28-1.65-.31-.49-.79-.84-1.36-.96-.31-.07-.64-.07-.95,0-1.18.25-1.92,1.42-1.67,2.59.02.11.04.23-.03.33-.09.11-.22.1-.36.1-.84,0-1.67.14-2.46.42-.07.05-.19.07-.31.04-.05-.01-.09-.04-.1-.09-.02-.04-.02-.1,0-.14.41-.7.4-1.56-.03-2.25-.3-.51-.81-.88-1.39-1h-.04c-.57-.12-1.16,0-1.64.32-.49.32-.82.82-.93,1.39-.02.11-.04.23-.04.34-.02.59.19,1.16.6,1.59.41.43.96.68,1.55.7.08,0,.15.07.15.16,0,.05-.03.1-.07.13-.22.24-.44.47-.82.47-.02,0-.05,0-.07,0-.31-.02-.63-.02-.94-.01ZM18.98,10.74c-.08.06-.17.09-.27.09-.07,0-.15-.02-.21-.05-.47-.21-.98-.35-1.49-.43-.2-.02-.38-.17-.45-.37-.09-.2-.13-.43-.13-.67,0-.44.18-.86.5-1.17.31-.31.72-.48,1.16-.48.02,0,.04,0,.05,0,.56.01,1.08.3,1.38.78.48.78.24,1.8-.53,2.29ZM12.46,9.33c0,.92-.74,1.67-1.66,1.67h0c-.92,0-1.66-.74-1.67-1.66v-.02c0-.91.75-1.64,1.66-1.64h.02c.91,0,1.65.75,1.66,1.66ZM22.77,17.8c0,.14,0,.28,0,.42-.08,1.92-.91,3.69-2.32,4.99-1.34,1.23-3.05,1.89-4.85,1.89-.11,0-.21,0-.32,0-3.96-.17-7.04-3.53-6.87-7.49.17-3.96,3.55-7.04,7.49-6.87,3.86.1,6.88,3.21,6.88,7.08Z"/><path d="M26.23,5.68c0-.07,0-.25-.34-.25-.13,0-.25,0-.38,0-.32,0-.66-.01-.98.01-.52.06-1.99-.2-2.23-.65-.25-.4-.7-.65-1.17-.65-.02,0-.04,0-.06,0-4.4,0-8.8,0-13.19,0,0,0-.02,0-.02,0-.39,0-.75.14-1.03.41-.2.18-.41.35-.62.52-.11.09-.22.18-.33.27-.17.14-.39.21-.6.19-.26,0-.52,0-.79,0h-.4c-.31,0-.31.19-.31.25,0,.21.17.26.32.27h.58q1.4.02,2.28-.9l.08-.08c.25-.27.61-.42.97-.4h.62c3.92,0,7.98.02,11.97-.01.56-.02,1.09.23,1.43.68l.08.1c.25.33,1.64.52,2.05.52h.84s.01,0,.02,0h.87c.12,0,.22-.03.28-.09.04-.04.06-.1.06-.18Z"/><polygon points="17.12 17.92 17.12 17.92 17.12 17.92 17.12 17.92"/><path d="M15.61,12.42h0c-3.03,0-5.49,2.46-5.49,5.49,0,3.03,2.46,5.5,5.49,5.5h0c3.03,0,5.49-2.46,5.49-5.49h0c0-1.47-.57-2.85-1.6-3.89s-2.42-1.61-3.88-1.61ZM12.73,13.85c.85-.6,1.85-.92,2.9-.92h.03c1.14.01,2.25.42,3.12,1.15.08.07.16.15.17.26,0,.11-.07.2-.14.27-.53.51-1.04,1.03-1.46,1.46-.08.08-.16.14-.27.14-.07,0-.15-.03-.24-.09-.63-.47-1.46-.54-2.16-.19-.15.11-.37.08-.5-.09-.49-.5-.99-1-1.5-1.5-.07-.07-.14-.15-.13-.26,0-.11.09-.18.17-.23ZM15.35,22.43c0,.11,0,.25-.11.34-.07.06-.15.08-.23.08-.04,0-.08,0-.13,0-2.06-.32-3.73-1.9-4.16-3.94-.07-.38-.11-.77-.1-1.15,0-.02,0-.03,0-.05.04-1.09.45-2.14,1.16-2.97.05-.06.13-.16.26-.17.11.01.2.07.26.13.51.53,1.03,1.04,1.47,1.48.11.11.21.26.05.49-.16.22-.27.45-.34.71-.15.55-.07,1.14.21,1.63s.75.85,1.31,1c.28.08.34.24.34.46-.01.67-.02,1.32,0,1.96ZM15.58,19.57c-.91-.01-1.64-.77-1.64-1.68,0-.44.18-.86.5-1.17.31-.31.73-.48,1.17-.48h.01c.92,0,1.66.76,1.65,1.67h0s0,.05,0,.05c-.02.89-.76,1.6-1.65,1.6h-.04ZM19.68,15.05c1.49,2.13,1.11,4.99-.88,6.66-.7.58-1.54.96-2.43,1.11-.09.02-.17.03-.23.03-.07,0-.12-.01-.17-.06-.1-.08-.1-.2-.1-.4v-.92s0-.02,0-.02v-1.07c0-.08.01-.17.07-.24.06-.07.13-.11.22-.12.14-.04.3-.09.45-.17.51-.26.9-.7,1.08-1.25.18-.55.14-1.13-.12-1.65-.09-.14-.06-.34.09-.45.49-.49,1-.99,1.5-1.5.07-.07.15-.14.25-.14,0,0,.01,0,.02,0,.12,0,.19.1.26.19Z"/><path d="M13.62,7.27s-.05,0-.05,0c-.14,0-.25.12-.24.26.02.17.15.27.29.26h.83s0,0,0,0h.82c.17,0,.29-.12.29-.26,0-.08-.04-.14-.09-.19-.05-.04-.1-.06-.19-.06-.56,0-1.11,0-1.66,0Z"/><path d="M13.75,8.8c0,.14.11.26.25.26.1,0,.2,0,.3,0h.15s.02,0,.03,0h.12c.09,0,.18,0,.28,0,.13,0,.23-.11.25-.23.01-.14-.09-.26-.23-.28-.3-.02-.61-.02-.92,0-.12.01-.22.12-.22.24Z"/><path d="M10.59,9.18c-.06.07-.07.17-.03.25.04.09.12.15.2.15.42-.19.75-.53.93-.95-.01-.07-.06-.14-.13-.17-.04-.02-.09-.04-.13-.04-.05,0-.1.02-.14.05-.23.21-.46.45-.71.71Z"/><path d="M17.61,9.35c.21.06.46.12.7.17t0,0c.11,0,.21-.09.23-.21.04-.13-.03-.26-.15-.29-.22-.07-.44-.13-.67-.16,0,0-.02,0-.02,0-.1,0-.2.06-.23.16-.03.06-.02.13,0,.19s.08.11.14.14Z"/></svg>