<?xml version="1.0" encoding="UTF-8"?><svg id="Layer_1" xmlns="http://www.w3.org/2000/svg" viewBox="0 0 30 30"><path d="M26.38,22.4c.09-.42-.13-.84-.52-1.01,0,0,0,0,0,0-.18-.07-.21-.17-.21-.35v-2.22c0-.67,0-1.37-.02-2.05-.06-1.1-.9-2-2-2.14-.18-.02-.23-.09-.28-.24-.3-.94-.58-2.76-.83-3.51-.05-.16-.03-.23.09-.34.89-.69,1.3-1.84,1.05-2.93-.31-1.63-1.89-2.7-3.52-2.38-1.13.22-2.01,1.04-2.32,2.15-.05.18-.13.24-.32.23-1,0-2.02,0-3,0h-4.81s-.04,0-.06,0c-.65,0-1.22.42-1.41,1.05-.03.09-.06.17-.09.26l-1.48,5.47s0,.03-.01.05c-.03.1-.05.17-.17.19-1.27.11-2.21,1.23-2.11,2.49v3.94c0,.15-.01.25-.2.33-.4.16-.63.59-.55,1.01.08.44.45.77.9.79.14,0,.31,0,.47,0h.03c.07,0,.12.05.13.12,0,.02,0,.04,0,.06v.07c0,.22,0,.73.02.94.05.52.49.93,1.02.95.29,0,.58.01.86.01h0c.28,0,.55,0,.82-.01.58-.02,1.03-.49,1.04-1.07v-.08c0-.14,0-.57,0-.71-.01-.11,0-.16.01-.18,0-.01.01-.02.02-.03.04-.04.11-.06.24-.06,2.78,0,5.61,0,8.37,0h3.3s.08,0,.11,0h0s.06.01.09.03c.03.02.04.06.04.09,0,.11,0,.21,0,.31v.53c-.02.3.08.58.28.8s.46.35.76.36c.04,0,.07,0,.11,0,.31,0,.62,0,.93,0h.45c.33.03.61-.07.84-.26.23-.19.37-.46.4-.76,0-.07,0-.13,0-.2,0-.07,0-.42,0-.48-.02-.11-.02-.24.02-.35,0-.02.01-.03.02-.04.07-.09.21-.08.36-.06.08.01.16.01.23.01.46-.02.82-.34.9-.77ZM22.81,14.44s0,.08-.02.11c-.02.03-.06.05-.1.05h-.51c-.05,0-.1-.03-.12-.08-.01-.02-.02-.07-.04-.12-.01-.04-.03-.1-.05-.17l-.05-.15c-.09-.27-.27-1.46-.35-1.73-.1-.31-.12-.69-.23-1,0-.03-.02-.06-.02-.08,0-.03,0-.07.02-.1s.05-.05.08-.05h.04c.08-.02.15-.04.22-.08.12-.06.22-.1.3-.05.08.05.11.16.14.32.01.06.03.12.05.17,0,.01,0,.02,0,.04l.64,2.91ZM18.94,6.48c.46-.47,1.1-.74,1.76-.74h.01c1.36,0,2.46,1.1,2.47,2.45,0,1.39-1.13,2.5-2.49,2.5,0,0-.01,0-.02,0-.64,0-1.26-.27-1.71-.73-.97-.95-.98-2.52-.02-3.49ZM18.06,9.62c.48.93,1.43,1.54,2.47,1.59.12,0,.2.04.25.14,0,.01.02.03.02.04l.06.2c.2.63.39,2.21.59,2.78,0,.03.02.05.02.08,0,.04,0,.08-.02.11s-.06.05-.1.05h-12.69s-.08-.02-.1-.05c-.02-.03-.03-.07-.02-.11,0-.03.02-.05.03-.08l.45-2.13c.28-.83.5-1.7.77-2.54.07-.21.16-.27.38-.27,2.42,0,4.89,0,7.56,0,.16,0,.24.05.33.21ZM7.31,14.13l1.4-5.21c.1-.51.59-.85,1.12-.79h7.64c.1,0,.16.01.19.04.05.06.06.11.06.2,0,.06,0,.13.02.2,0,.02,0,.04,0,.05,0,.04,0,.09,0,.13,0,.06-.04.11-.1.12-.09.02-.19.02-.28,0-.04,0-.09,0-.15,0h-7.03c-.22-.04-.42,0-.59.12-.17.11-.28.29-.31.49,0,0,0,.03,0,.03l-.32.94c-.12.37-.18.78-.31,1.16-.2.59-.46,2.15-.65,2.74-.06.19-.15.26-.33.26,0,0-.01,0-.03,0-.13,0-.23,0-.33-.02-.03,0-.07-.02-.09-.05-.02-.03-.03-.07-.02-.1.02-.11.05-.21.09-.31ZM4.89,18.04v-1.01c-.03-.47.14-.93.46-1.29s.76-.57,1.24-.59c.06,0,.13,0,.19,0h16.45c.47-.03.93.14,1.29.46.36.32.57.76.59,1.24,0,.06,0,.13,0,.19v.97c0,.65,0,2.33,0,3,0,.14-.02.19-.05.22-.03.03-.07.07-.26.07H5.17c-.13,0-.19-.01-.23-.05-.04-.04-.06-.1-.05-.22.01-.66,0-2.34,0-2.99ZM8.38,23.66c0,.1,0,.48,0,.57,0,.29-.23.55-.54.56-.01,0-.04,0-.05,0-.25,0-.5.01-.76.01s-.51,0-.76-.01c-.15,0-.29-.05-.4-.15-.11-.1-.18-.24-.18-.39,0-.03,0-.05,0-.07,0-.05,0-.41-.02-.48-.02-.18-.04-.36.05-.46.08-.06.16-.08.23-.07h0c.05,0,.11,0,.18.01.08.01.15.01.22.01.1,0,.21,0,.32,0h1.52s.04,0,.07,0c.06,0,.11.05.11.11,0,.03,0,.05,0,.08,0,.05,0,.11,0,.17v.09s0,.01,0,.02ZM24.31,24.18c0,.14-.04.29-.14.41-.1.12-.24.18-.39.19-.02,0-.03,0-.05,0-.25,0-.5,0-.76,0s-.51,0-.77,0h-.02c-.3,0-.55-.24-.56-.55-.05-.19-.05-.7,0-.9,0-.05.04-.08.09-.1.19-.06.4-.08.61-.05h1.84s.03,0,.05,0c.06,0,.11.05.12.12,0,.02,0,.04,0,.06,0,.06,0,.13,0,.2v.09s0,.01,0,.02v.53ZM25.76,22.52c-.1.1-.23.13-.36.13H4.76s-.04,0-.05,0c-.06,0-.12,0-.18,0-.09,0-.19-.04-.27-.12-.08-.08-.12-.18-.11-.28,0-.24.19-.4.39-.41.01,0,.03,0,.04,0,.44,0,.9,0,1.39,0h1.33s7.58,0,7.58,0c.02,0,.04,0,.05.01h10.47c.21,0,.46.07.47.37,0,.11-.03.22-.1.3Z"/><path d="M7.28,5.73c-.08.03-.17.09-.17.18,0,.05.02.11.17.17.41.15.73.47.89.88.06.15.11.17.18.18.07,0,.12-.03.18-.18.14-.4.46-.72.86-.87.04-.02.09-.05.13-.08.04-.03.06-.06.06-.09,0,0,0-.02,0-.03,0-.07-.05-.14-.13-.15-.44-.16-.77-.49-.93-.91-.02-.09-.07-.14-.14-.15-.01,0-.02,0-.03,0-.08,0-.15.05-.16.13-.16.44-.48.77-.9.93ZM8.21,5.3s.04-.08.08-.1c.07-.02.14.01.16.08.08.23.27.41.5.47.05.01.09.06.1.11,0,.06-.03.11-.08.13-.23.09-.41.27-.5.49-.02.05-.07.08-.12.08s-.1-.03-.12-.08c-.09-.22-.27-.38-.49-.45-.05-.02-.09-.06-.09-.12s.03-.1.08-.12c.22-.08.4-.27.47-.5Z"/><path d="M5.28,7.76s-.07,0-.13.14c-.16.43-.5.77-.93.93-.08.02-.13.09-.14.16,0,.07.06.14.14.16.43.16.76.48.92.9.07.17.15.17.18.17.07,0,.11-.03.17-.17.15-.4.47-.73.87-.88.14-.05.18-.09.18-.18,0-.07-.03-.12-.17-.18-.41-.15-.73-.47-.88-.88-.02-.04-.04-.08-.07-.11-.02-.03-.06-.05-.1-.06-.01,0-.03,0-.04,0h0ZM5.42,8.4c.1.22.29.39.52.47.05.02.08.07.08.12s-.04.1-.09.12c-.23.07-.42.25-.5.48-.02.05-.07.09-.12.09-.07,0-.1-.04-.12-.09-.07-.22-.25-.4-.47-.47-.05-.01-.08-.06-.09-.1s.02-.1.06-.12l.08-.05c.2-.12.35-.21.41-.42.01-.05.06-.09.11-.09.05-.01.1.02.13.07Z"/><path d="M18.7,18.02l-.36-.51c-.16-.23-.32-.46-.48-.69-.11-.17-.3-.27-.5-.27-.01,0-.02,0-.03,0h-4.7c-.21,0-.4.1-.51.28-.25.37-.52.75-.78,1.12-.13.13-.19.31-.16.48.02.15.1.27.22.36.1.07.21.11.32.11.02,0,.05,0,.08,0h3.19s0,0,.02,0h3.22c.15.02.28-.03.39-.12.11-.09.18-.22.19-.36.01-.14-.03-.28-.12-.39ZM18.42,18.44c-.06.1-.17.09-.24.09h-6.31s-.03,0-.05,0h-.02s-.03,0-.05,0c-.09,0-.15-.03-.18-.09-.06-.1,0-.18.06-.25.01-.01.02-.03.03-.04.1-.15.2-.29.3-.44l.09-.13c.11-.16.22-.32.33-.48.06-.1.19-.17.32-.17h4.57c.12-.02.25.05.33.18.14.21.3.43.45.65.09.13.19.27.28.4,0,0,.01.02.03.03.06.07.11.15.05.24Z"/><path d="M8.47,16.79h0c-.46-.07-.93-.08-1.4,0-.46.09-.78.51-.74.98.02.49.4.88.9.91.09,0,.19,0,.28,0h.28s.18,0,.18,0c.06,0,.12,0,.18,0s.12,0,.18,0c.48-.02.86-.4.89-.88.05-.47-.28-.92-.75-1ZM7.4,17.13c.06,0,.13,0,.19,0,.04,0,.08,0,.13,0h.02s.02,0,.03,0h.17c.12,0,.23,0,.35,0,.16,0,.3.06.4.17.1.11.16.25.15.4v.05s0,0,0,0c0,.14-.05.27-.15.37-.1.11-.23.17-.38.17-.38.02-.74.02-1.11,0-.31-.03-.54-.29-.51-.59-.01-.29.23-.54.52-.56.06,0,.12,0,.18,0Z"/><path d="M22.95,16.79c-.46-.07-.93-.07-1.4,0-.47.08-.8.52-.75,1,.03.48.42.86.89.89.09,0,.17,0,.27,0h.26s.01,0,.01,0h.19c.06,0,.12,0,.19,0s.13,0,.19,0c.49-.02.88-.41.9-.9.04-.47-.28-.9-.75-.99ZM21.99,17.13h.23s.01,0,.01,0c0,0,0,0,.01,0h.16c.11,0,.22,0,.34,0,0,0,.01,0,.02,0h.01c.14,0,.28.07.38.18.1.11.16.25.15.41,0,.32-.23.57-.54.58-.18,0-.36.01-.53.01s-.35,0-.54-.01c-.01,0-.03,0-.05,0-.14-.01-.27-.08-.36-.2-.09-.11-.14-.26-.12-.41,0-.15.06-.29.17-.39.1-.1.24-.15.38-.15h.02c.08,0,.17,0,.26,0Z"/><path d="M22.17,7.11s-.09-.06-.14-.06h0s-.09.03-.11.06c-.04.04-.07.07-.1.1l-1.32,1.33c-.37.38-.43.38-.81,0l-.05-.06c-.06-.07-.12-.12-.19-.14h-.01s0,0,0,0c0,0-.01,0-.02,0-.07,0-.13.04-.15.1-.04.08-.02.16.04.21.19.19.37.37.55.55l.14.14h0s.07.05.1.05c0,0,.02,0,.02,0,.05,0,.09-.03.12-.06.64-.64,1.28-1.27,1.95-1.96.02-.02.03-.02.03-.03.03-.03.04-.07.04-.12,0-.04-.02-.08-.06-.11Z"/></svg>