<?xml version="1.0" encoding="UTF-8"?><svg id="Layer_1" xmlns="http://www.w3.org/2000/svg" viewBox="0 0 30 30"><polygon points="23.6 23.74 23.6 23.74 23.6 23.74 23.6 23.74"/><path d="M26.31,20.72c.23-.61,0-1.3-.55-1.64-.09-.05-.11-.17-.06-.25,0-.01.02-.02.02-.03.12-.24.21-.49.26-.75.17-1.1.19-2.22.05-3.32-.08-.75-.45-1.43-1.02-1.92-.25-.21-.54-.38-.84-.51-.06-.02-.1-.08-.11-.14v-.05c-.02-.07-.03-.14-.04-.22-.23-1.79-.78-3.51-1.65-5.1-.13-.26-.37-.45-.65-.52-.38-.1-.69-.17-.98-.23-.09-.03-.17-.02-.24.01s-.12.09-.14.16c-.04.18.05.34.21.38,0,0,.04,0,.05,0,.29.07.55.13.79.18.23.04.43.2.52.42.61,1.17,1.07,2.43,1.34,3.74l.03.14c.06.26.11.54.12.82,0,.05-.01.1-.05.14-.03.04-.08.06-.13.06h-.36c-.07,0-.15,0-.23-.01-.07-.01-.12-.06-.14-.13-.01-.04-.02-.08-.03-.12-.21-1.35-.62-2.66-1.22-3.89-.07-.18-.22-.3-.4-.34-1.25-.27-2.54-.45-3.82-.54-1.37-.1-2.75-.1-4.12,0-1.27.08-2.54.27-3.79.54-.17.03-.31.14-.38.29-.47.96-.82,1.96-1.06,2.99-.06.25-.1.5-.15.76l-.06.28c-.02.09-.09.15-.18.15h-.55c-.05,0-.1-.02-.14-.06-.03-.04-.05-.09-.04-.15.23-1.61.72-3.17,1.47-4.62.1-.24.33-.43.6-.48,1.2-.29,2.43-.49,3.65-.59,1.59-.14,3.2-.16,4.78-.05.71.05,1.41.13,2.06.21.09.02.19,0,.26-.06.05-.04.08-.11.09-.18.01-.08-.01-.16-.06-.22-.05-.06-.12-.1-.19-.11l-.3-.03c-.45-.06-.98-.12-1.5-.16-1.58-.13-3.17-.13-4.74-.01-1.45.1-2.9.33-4.32.68-.34.08-.62.3-.77.61-.31.59-.59,1.21-.82,1.83-.12.32-.22.65-.32.97-.04.14-.08.25-.12.36l-.17.73c-.09.43-.16.87-.22,1.4,0,.06-.05.12-.11.14l-.07.03s-.04.02-.04.02c-.86.36-1.5,1.13-1.71,2.04-.1.44-.15.89-.14,1.34v.26c-.09.98.05,1.96.41,2.86.03.08,0,.18-.07.22-.53.33-.76.97-.58,1.55.18.68.79,1.1,1.49,1.04,0,0,.05,0,.06,0,.1,0,.17.07.18.17,0,.05,0,.09,0,.14v1.47c0,.28.1.54.29.74.19.2.45.31.73.32h.04c.81,0,1.65,0,2.48,0h.03c.57,0,1.04-.45,1.06-1.03v-1.57s0-.05,0-.08c0-.1.09-.17.18-.17h.82c.16,0,.29-.13.29-.29,0-.16-.13-.29-.29-.29h-5.91c-.05,0-.11,0-.18,0-.23-.02-.43-.12-.57-.29-.14-.17-.21-.39-.19-.61.03-.36.29-.65.64-.74.12-.02.24-.04.35-.03h19.67c.11,0,.25,0,.37.04.25.07.44.24.54.47.1.23.09.49-.03.71-.17.31-.5.49-.86.45h-12.23c-.44,0-.45.19-.45.28,0,.08.02.14.07.19.09.08.23.11.37.11h7.06s.03,0,.05,0c.02,0,.05,0,.07,0,.09.01.16.09.16.18v1.58c0,.57.43,1.04,1.01,1.07.4,0,.83.01,1.27.01h0c.44,0,.88,0,1.35-.01.49-.02.89-.36.98-.84.03-.17.04-.35.03-.52v-1.28c0-.1.08-.18.18-.18.69.07,1.31-.34,1.51-.96ZM5.99,21.86c0-.1.08-.18.18-.18h3.1c.1,0,.18.08.18.18v1.54c0,.33-.19.52-.51.52h-2.45c-.3,0-.5-.17-.5-.43,0-.41,0-.81,0-1.23v-.4ZM9.25,8.24c.02-.05.07-.09.13-.1,3.74-.77,7.52-.77,11.26,0,.06.01.1.05.13.1.56,1.14.94,2.36,1.13,3.61,0,.05,0,.11-.04.15s-.1.06-.14.06c-4.46-.12-8.97-.12-13.41,0h0s-.02,0-.03,0c-.1-.02-.17-.11-.15-.21.2-1.25.58-2.47,1.14-3.61ZM25.45,17.8s-.01.05-.03.07c-.05.32-.18.63-.37.9-.03.05-.09.08-.15.08H5.1c-.06,0-.12-.03-.15-.08-.28-.44-.43-.94-.43-1.46-.06-.81-.05-1.65.04-2.47.13-1.18,1.1-2.09,2.29-2.15,4.91-.17,10.1-.18,15.42-.03h.27c.3,0,.61.02.91.06,1.14.17,2,1.12,2.05,2.26.1.93.09,1.89-.03,2.83ZM24.05,23.4c.01.11-.02.23-.1.34-.08.1-.2.17-.32.18-.02,0-.04,0-.06,0-.02,0-.05,0-.07,0h-2.42c-.3,0-.5-.18-.51-.45,0-.4,0-.8,0-1.22v-.39c0-.1.08-.18.18-.18h3.12c.1,0,.18.08.18.18v1.54Z"/></svg>