<?xml version="1.0" encoding="UTF-8"?><svg id="Layer_1" xmlns="http://www.w3.org/2000/svg" viewBox="0 0 30 30"><polygon points="23.61 23.74 23.61 23.74 23.61 23.74 23.61 23.74"/><path d="M26.32,20.73c.23-.61,0-1.3-.55-1.65-.08-.05-.11-.17-.06-.25,0-.01.02-.02.02-.03.12-.24.21-.49.26-.75.17-1.1.19-2.22.05-3.32-.08-.75-.45-1.43-1.03-1.92-.25-.21-.54-.38-.84-.51-.06-.02-.1-.07-.11-.14v-.05c-.02-.1-.03-.16-.04-.22-.23-1.8-.78-3.51-1.65-5.1-.13-.26-.37-.45-.65-.52-.38-.1-.69-.17-.98-.23-.17-.05-.33.03-.38.17-.02.1-.01.18.03.24.04.07.11.11.18.13,0,0,.05,0,.05,0,.29.07.55.13.79.18.23.04.43.2.52.42.61,1.17,1.07,2.44,1.34,3.74l.03.14c.06.27.11.54.13.82,0,.05-.01.1-.05.14-.03.04-.08.06-.13.06h-.36c-.07,0-.15,0-.22-.01-.07-.01-.13-.06-.15-.13-.01-.04-.02-.08-.03-.13-.21-1.36-.62-2.66-1.22-3.89-.07-.18-.22-.3-.4-.34-1.26-.27-2.54-.46-3.82-.54-1.37-.1-2.75-.1-4.12,0-1.27.08-2.55.27-3.79.54-.17.03-.31.14-.38.29-.47.95-.82,1.96-1.06,2.99-.05.23-.09.45-.14.68l-.07.36c-.02.09-.09.15-.18.15h-.55c-.05,0-.1-.02-.14-.06s-.05-.09-.04-.15c.23-1.61.72-3.17,1.47-4.62.11-.24.33-.43.6-.48,1.19-.29,2.42-.49,3.65-.59,1.59-.14,3.2-.16,4.79-.05.71.05,1.41.13,2.06.21.1.02.19,0,.26-.06.05-.04.09-.11.09-.18.02-.16-.09-.31-.25-.33l-.3-.03c-.46-.06-.99-.12-1.5-.16-1.57-.13-3.17-.13-4.74-.01-1.45.1-2.91.33-4.32.68-.34.08-.62.3-.77.61-.31.6-.59,1.22-.82,1.83-.12.32-.23.66-.33,1-.03.11-.07.22-.11.33l-.17.73c-.08.42-.16.87-.23,1.41,0,.06-.05.12-.11.14l-.07.03s-.04.02-.04.02c-.86.37-1.5,1.13-1.71,2.04-.1.44-.15.89-.14,1.34v.26c-.09.98.05,1.97.42,2.86.03.08,0,.18-.07.22-.52.33-.76.97-.57,1.55.18.68.8,1.12,1.49,1.05,0,0,.05,0,.06,0,.1,0,.17.07.18.17,0,.05,0,.09,0,.14v1.47c0,.28.1.54.29.74s.45.31.73.32h.05c.81,0,1.64,0,2.48,0h.03c.57,0,1.04-.45,1.06-1.03,0-.02,0-.04,0-.06v-1.51s0-.05,0-.08c0-.09.09-.17.18-.17h.83c.08,0,.15-.03.2-.08.06-.05.08-.13.08-.2,0-.16-.13-.29-.29-.29h-5.92c-.05,0-.11,0-.18,0-.23-.02-.43-.12-.57-.29s-.21-.39-.19-.61c.03-.36.29-.66.64-.74.12-.03.24-.04.35-.03h19.68c.11,0,.24,0,.37.04.25.07.45.24.55.47.1.23.09.49-.03.71-.17.31-.51.49-.86.45h-12.24c-.45,0-.45.19-.45.28,0,.08.02.14.07.19.09.08.23.12.37.11h7.06s.03,0,.05,0c.02,0,.05,0,.08,0,.09.01.16.09.16.18v1.58c0,.57.43,1.04,1.01,1.07.4,0,.83.01,1.27.01h0c.44,0,.88,0,1.36-.01.48-.02.89-.37.98-.84.03-.17.04-.35.03-.52v-1.28c0-.1.08-.18.18-.18.68.06,1.31-.34,1.51-.96ZM5.98,21.86c0-.1.08-.18.18-.18h3.1c.1,0,.18.08.18.18v1.54c0,.33-.19.52-.51.52h-2.45c-.3,0-.5-.17-.5-.43-.01-.4,0-.81,0-1.23v-.4ZM9.25,8.23c.02-.05.07-.09.13-.1,3.74-.77,7.53-.77,11.27,0,.06.01.1.05.13.1.56,1.14.94,2.36,1.14,3.61,0,.05,0,.11-.04.15-.04.04-.09.06-.14.06-4.46-.12-8.98-.12-13.42,0h0s-.02,0-.03,0c-.1-.02-.17-.11-.15-.21.2-1.25.58-2.47,1.14-3.61ZM25.46,17.8s-.01.05-.03.07c-.05.32-.18.63-.37.9-.03.05-.09.08-.15.08H5.09c-.06,0-.12-.03-.15-.08-.28-.44-.43-.94-.43-1.46-.06-.81-.05-1.64.04-2.47.14-1.19,1.1-2.09,2.29-2.15,4.92-.17,10.11-.18,15.43-.03h.27c.3,0,.61.02.91.06,1.14.17,2,1.12,2.05,2.26.1.94.09,1.89-.04,2.83ZM24.05,23.4c.03.25-.16.49-.43.52-.02,0-.04,0-.06,0-.02,0-.04,0-.07,0h-2.42c-.3,0-.5-.18-.51-.45-.01-.4,0-.8,0-1.22v-.39c0-.1.08-.18.18-.18h3.12c.1,0,.18.08.18.18v1.54Z"/><path d="M7.58,14.31h0c-1.07,0-1.95.88-1.95,1.95,0,1.07.87,1.94,1.94,1.94h0c1.07,0,1.94-.87,1.94-1.94,0-.52-.2-1.01-.57-1.38s-.85-.57-1.37-.57ZM7.58,17.64h0c-.37,0-.72-.15-.98-.41-.26-.26-.4-.61-.4-.98,0-.76.62-1.37,1.37-1.37h.02c.76,0,1.38.63,1.37,1.39,0,.76-.63,1.37-1.38,1.37Z"/><path d="M22.45,14.3h0c-1.07,0-1.94.87-1.94,1.94,0,.52.2,1.01.57,1.38.37.37.86.57,1.37.57h0c1.07,0,1.94-.87,1.94-1.94,0-1.07-.87-1.95-1.94-1.95ZM22.45,17.63h0c-.75,0-1.37-.61-1.38-1.37,0,0,0,0,0,0,0,0,0,0,0,0,0-.75.6-1.37,1.35-1.38h.01c.38,0,.73.14.99.4.26.26.41.61.41.97,0,.77-.61,1.38-1.37,1.39Z"/></svg>