<?xml version="1.0" encoding="UTF-8"?><svg id="Layer_1" xmlns="http://www.w3.org/2000/svg" viewBox="0 0 30 30"><path id="Path_12217" d="M16.26,9.39c.29,0,.59.01.88,0,.61-.05,1.2.23,1.54.74.26.38.65.66,1.09.79.6.18,1,.75.97,1.38.02.28,0,.55,0,.83s-.13.39-.41.39c-.43,0-.86,0-1.28,0-.11-.02-.21.05-.24.16-.28.67-1.05.99-1.72.72-.32-.13-.58-.39-.71-.71-.03-.11-.13-.18-.24-.16-.64,0-1.28,0-1.91,0-.11-.01-.21.05-.24.16-.28.67-1.05.99-1.72.72-.32-.13-.58-.39-.71-.71-.03-.11-.15-.18-.26-.16-.54,0-1.07,0-1.61,0-.34,0-.47-.16-.41-.5.02-.11.04-.21.07-.32.1-1.04.95-1.85,2-1.89.45-.07.89-.14,1.34-.21.27-.02.53-.13.73-.31.66-.71,1.62-1.05,2.58-.91.09,0,.18,0,.28,0h0M19.44,12.84c.7,0,.75-.08.57-.77-.03-.22-.19-.4-.4-.47-.63-.17-1.17-.57-1.53-1.11-.02-.03-.04-.05-.07-.07-.16-.19-.38-.31-.63-.32-.57-.06-1.14,0-1.71-.03-.65-.06-1.3.19-1.74.67-.3.3-.69.49-1.11.54-.56.09-1.12.19-1.69.29-.56.07-1.01.51-1.1,1.06-.04.16-.03.23.16.22.37-.01.74,0,1.11,0,.11.01.21-.06.24-.17.28-.67,1.05-.99,1.72-.71.32.13.57.38.7.7.04.12.16.19.28.18.6,0,1.19,0,1.79,0,.16.03.31-.07.36-.22.18-.44.6-.73,1.08-.75.49-.08.98.17,1.21.61.1.28.4.43.68.36.02,0,.05,0,.08,0M18.22,13.18c-.01-.35-.3-.62-.65-.61-.33.01-.6.27-.61.6-.02.35.25.65.6.66.35.02.65-.25.66-.6,0-.02,0-.03,0-.05M12.12,13.18c0,.35.29.64.64.64.35,0,.64-.29.63-.64,0-.35-.27-.63-.62-.64,0,0-.01,0-.02,0-.35,0-.64.29-.64.64h0"/><path id="Path_12216" d="M6.74,16.53v-7.44c-.1-.83.48-1.58,1.3-1.72,3.43-.99,6.87-1.97,10.3-2.96.79-.29,1.67.12,1.96.91.02.07.04.14.06.21.15.53.32,1.07.46,1.61.01.15.14.26.28.25.02,0,.03,0,.05,0,.23-.01.46-.01.69,0,.73.04,1.32.61,1.4,1.33.01.11.02.22.02.33v14.95c.07.78-.46,1.49-1.23,1.65-.13.02-.27.03-.4.03h-13.25c-.84.06-1.57-.57-1.63-1.41,0-.07,0-.15,0-.22v-7.51M7.39,16.5v7.51c-.07.49.27.94.76,1.01.08.01.17.01.25,0h13.18c.49.07.95-.27,1.02-.77.01-.09.01-.18,0-.26v-14.97c.07-.49-.27-.94-.76-1.01-.08-.01-.17-.01-.25,0h-13.18c-.49-.07-.95.26-1.02.75-.01.09-.01.18,0,.28,0,2.49,0,4.97,0,7.46M10.58,7.32v.05h6.37c1.01,0,2.02,0,3.04,0,.2,0,.22-.05.17-.23-.15-.47-.28-.95-.41-1.42-.07-.49-.53-.82-1.01-.75-.08.01-.15.03-.22.06-1.93.55-3.86,1.11-5.79,1.66l-2.15.62"/><path id="Path_12218" d="M15.02,15.56h4.49c.67,0,.96.29.96.97v.65c.01.43-.31.79-.74.82-.04,0-.08,0-.12,0h-9.18c-.29.02-.58-.12-.74-.37-.2-.55-.2-1.16,0-1.71.17-.25.46-.39.76-.36,1.2,0,2.39,0,3.59,0h.99M15.01,16.2h-4.44c-.35,0-.37.02-.37.38v.38c0,.37,0,.38.37.38h8.67c.1,0,.21,0,.31,0,.21.02.29-.08.28-.28,0-.18,0-.35,0-.53,0-.31-.03-.34-.35-.34h-4.47"/><path id="Path_12219" d="M15.03,22.46h4.92c.08,0,.16,0,.24,0,.16.02.27.16.26.32,0,.15-.1.28-.25.31-.08.02-.16.02-.24.02h-9.94c-.08,0-.16,0-.24-.02-.15-.03-.25-.16-.24-.31,0-.15.1-.28.25-.31.08-.01.16-.02.24-.01h4.99"/><path id="Path_12220" d="M14.98,20.55h-4.95c-.08,0-.16,0-.24,0-.15-.02-.26-.16-.25-.31-.01-.15.1-.29.25-.31.09-.01.19-.02.29-.01h10.03c.17-.02.32.11.34.28,0,.01,0,.03,0,.04,0,.19-.13.31-.34.32h-5.14"/></svg>