<?xml version="1.0" encoding="UTF-8"?><svg id="Layer_1" xmlns="http://www.w3.org/2000/svg" viewBox="0 0 30 30"><path d="M11.52,9.69c0,.15,0,.31,0,.46v.45c0,.17,0,.34,0,.51,0,.14.06.2.2.2.18,0,.33,0,.48,0,.25,0,.42-.12.52-.33.1-.22.07-.42-.08-.61-.06-.07-.06-.12-.03-.2.06-.16.04-.33-.05-.47-.09-.14-.25-.22-.43-.22-.06,0-.11,0-.17,0-.07,0-.14,0-.21,0-.17,0-.22.05-.22.22ZM12.43,10.74c0,.13-.1.23-.24.24-.04,0-.07,0-.11,0-.06,0-.12,0-.19,0-.02,0-.04-.02-.04-.04v-.4s.02-.04.04-.04c.03,0,.07,0,.1,0,.07,0,.15,0,.22,0,.13.01.21.1.22.24ZM11.86,9.82s0-.02.01-.03c0,0,.02-.01.03,0,.03,0,.06.01.09.02.09.02.17.03.25.06.02,0,.03.02.04.04.01.04.02.11,0,.16-.06.11-.16.11-.25.1-.04,0-.08,0-.12,0,0,0,0,0,0,0,0,0-.02,0-.02,0,0,0-.01-.02-.01-.03v-.31Z"/><path d="M10.63,10.98c.06.04.1.12.11.22,0,.02.01.03.02.04.01,0,.03.01.04.02.05.02.11.05.15.03.03,0,.07-.05.09-.09,0-.01.02-.02.02-.03,0-.01,0-.03,0-.04,0-.03,0-.04-.01-.05-.18-.49-.37-.98-.55-1.46-.03-.09-.1-.14-.19-.14h0c-.1,0-.16.05-.2.14-.19.48-.37.97-.55,1.45-.02.05-.02.1,0,.14.02.04.05.07.09.08.05.02.1.01.14,0,.03-.01.06-.04.07-.1.06-.27.25-.28.41-.26.03,0,.06,0,.08,0,.13-.02.22,0,.29.05ZM10.49,10.57s-.02.02-.03.02h-.31s-.02,0-.03-.02c0-.01,0-.02,0-.04.05-.13.09-.25.15-.41h0s.06-.04.07-.01l.16.42s0,.02,0,.04Z"/><path d="M14.67,10.81c-.07-.07-.15-.07-.25.02-.19.16-.39.19-.61.08-.21-.11-.33-.34-.31-.57.02-.2.13-.37.29-.46.18-.1.39-.09.58,0,.07.04.2.08.27-.04.02-.04.03-.09.01-.13-.02-.05-.06-.09-.12-.12-.1-.05-.21-.08-.31-.11-.04-.01-.09-.03-.13-.04-.33.01-.63.19-.8.47-.16.28-.18.6-.04.88.13.27.39.45.7.5.27.04.52-.04.69-.22.09-.09.09-.19.02-.26Z"/><path id="Path_12216" d="M6.74,16.53v-7.44c-.1-.83.48-1.58,1.3-1.72,3.43-.99,6.87-1.97,10.3-2.96.79-.29,1.67.12,1.96.91.02.07.04.14.06.21.15.53.32,1.07.46,1.61.01.15.14.26.28.25.02,0,.03,0,.05,0,.23-.01.46-.01.69,0,.73.04,1.32.61,1.4,1.33.01.11.02.22.02.33v14.95c.07.78-.46,1.49-1.23,1.65-.13.02-.27.03-.4.03h-13.25c-.84.06-1.57-.57-1.63-1.41,0-.07,0-.15,0-.22v-7.51M7.39,16.5v7.51c-.07.49.27.94.76,1.01.08.01.17.01.25,0h13.18c.49.07.95-.27,1.02-.77.01-.09.01-.18,0-.26v-14.97c.07-.49-.27-.94-.76-1.01-.08-.01-.17-.01-.25,0h-13.18c-.49-.07-.95.26-1.02.75-.01.09-.01.18,0,.28,0,2.49,0,4.97,0,7.46M10.58,7.32v.05h6.37c1.01,0,2.02,0,3.04,0,.2,0,.22-.05.17-.23-.15-.47-.28-.95-.41-1.42-.07-.49-.53-.82-1.01-.75-.08.01-.15.03-.22.06-1.93.55-3.86,1.11-5.79,1.66l-2.15.62"/><path id="Path_12219" d="M15.03,22.46h4.92c.08,0,.16,0,.24,0,.16.02.27.16.26.32,0,.15-.1.28-.25.31-.08.02-.16.02-.24.02h-9.94c-.08,0-.16,0-.24-.02-.15-.03-.25-.16-.24-.31,0-.15.1-.28.25-.31.08-.01.16-.02.24-.01h4.99"/><path id="Path_12220" d="M14.98,20.55h-4.95c-.08,0-.16,0-.24,0-.15-.02-.26-.16-.25-.31-.01-.15.1-.29.25-.31.09-.01.19-.02.29-.01h10.03c.17-.02.32.11.34.28,0,.01,0,.03,0,.04,0,.19-.13.31-.34.32h-5.14"/><path id="Path_12218" d="M15.02,13.06h4.49c.67,0,.96.29.96.97v.65c.01.43-.31.79-.74.82-.04,0-.08,0-.12,0h-9.18c-.29.02-.58-.12-.74-.37-.2-.55-.2-1.16,0-1.71.17-.25.46-.39.76-.36,1.2,0,2.39,0,3.59,0h.99M15.01,13.7h-4.44c-.35,0-.37.02-.37.38v.38c0,.37,0,.38.37.38h8.67c.1,0,.21,0,.31,0,.21.02.29-.08.28-.28,0-.18,0-.35,0-.53,0-.31-.03-.34-.35-.34h-4.47"/><path id="Path_12220-2" d="M14.98,18.05h-4.95c-.08,0-.16,0-.24,0-.15-.02-.26-.16-.25-.31-.01-.15.1-.29.25-.31.09-.01.19-.02.29-.01h10.03c.17-.02.32.11.34.28,0,.01,0,.03,0,.04,0,.19-.13.31-.34.32h-5.14"/></svg>