<?xml version="1.0" encoding="UTF-8"?><svg id="Layer_1" xmlns="http://www.w3.org/2000/svg" viewBox="0 0 30 30"><path d="M5.7,9.84c-.06,0-.12,0-.17,0-.1,0-.2,0-.29,0-.88.04-1.54.73-1.54,1.6,0,2.65,0,4.87,0,7.11,0,.25.08.53.21.77.3.57.81.83,1.59.83h0c4.4,0,8.81,0,13.21,0h5.78c.12,0,.24,0,.35-.01.66-.05,1.2-.48,1.4-1.12.01-.05.03-.09.05-.14l.03-.08v-1.17c-.13-.21-.26-.2-.35-.17-.14.05-.2.15-.19.37,0,.13,0,.27,0,.4v.18c0,.78-.43,1.2-1.2,1.2-6.38,0-12.77,0-19.14,0-.78,0-1.2-.42-1.2-1.21v-6.8c0-.83.4-1.23,1.23-1.23h9.35c.2,0,.33-.03.39-.1.04-.04.06-.1.06-.18,0-.16-.08-.26-.44-.26H5.7Z"/><path d="M25.95,16.41c.15.06.25-.02.36-.15v-5.06s-.02-.02-.02-.04c-.27-.92-.79-1.32-1.75-1.32h-7.82c-.07,0-.14,0-.21,0-.14.02-.21.11-.21.25,0,.1.03.23.19.26.09.02.19.02.28.02h0c1.57,0,3.13,0,4.7,0h3.13c.75,0,1.17.43,1.17,1.18,0,1.49,0,2.98,0,4.46,0,.18.01.32.18.38Z"/><path d="M24.98,11.64c0-.42-.05-.46-.47-.46-6.34,0-12.67,0-19.01,0h-.04c-.07,0-.13,0-.2,0-.14.02-.23.1-.23.23-.01.59-.01,1.12,0,1.62,0,.13.1.22.25.22h.01c.15,0,.23-.08.26-.23,0-.06,0-.11,0-.18,0-.03,0-.05,0-.08,0-.22,0-.43,0-.65v-.33s.03-.06.06-.06h18.73s.06.03.06.06v6.42s-.03.06-.06.06H5.63s-.06-.03-.06-.06v-3.53s0-.09,0-.14c-.01-.16-.12-.27-.27-.27h0c-.14,0-.25.11-.27.26,0,.03,0,.07,0,.11v3.75c0,.36.07.43.44.43,6.36,0,12.72,0,19.08,0,.37,0,.44-.06.44-.43v-6.75Z"/><path d="M10.36,13.86c0,.25,0,.5,0,.75v.73c0,.27,0,.55,0,.82,0,.23.09.32.32.32.29,0,.54,0,.78,0,.4,0,.68-.19.85-.54.17-.35.12-.69-.13-.99-.09-.11-.11-.2-.05-.33.1-.26.07-.54-.08-.76-.15-.22-.41-.36-.69-.36-.09,0-.18,0-.27,0-.12,0-.23,0-.34,0-.27,0-.36.09-.36.35ZM11.84,15.56c0,.21-.16.37-.39.38-.06,0-.12,0-.18,0-.1,0-.2,0-.3,0-.03,0-.06-.03-.06-.06v-.65s.03-.06.06-.06c.05,0,.11,0,.16,0,.12,0,.24,0,.36,0,.22.02.35.17.35.39ZM10.91,14.08s0-.04.02-.05c.01-.01.03-.02.05-.01.05.01.1.02.14.03.14.03.27.05.4.1.03,0,.05.03.06.07.02.06.04.19,0,.25-.1.18-.26.17-.41.16-.07,0-.13,0-.2,0,0,0,0,0-.01,0-.01,0-.03,0-.04-.01-.01-.01-.02-.03-.02-.05v-.5Z"/><path d="M8.91,15.95c.1.07.16.19.18.35,0,.02.02.06.03.06.02,0,.05.02.07.03.08.04.18.08.24.06.05-.01.11-.08.15-.14.01-.02.03-.03.04-.05,0-.02,0-.04,0-.06,0-.04-.01-.07-.02-.09-.3-.8-.6-1.59-.9-2.38-.06-.15-.16-.22-.32-.23h0c-.16,0-.27.08-.32.23-.3.79-.6,1.57-.9,2.36-.03.09-.03.17,0,.24.03.06.08.11.15.13.08.03.16.02.23-.02.04-.02.09-.07.11-.16.09-.44.4-.46.66-.42.05,0,.09,0,.14,0,.21-.03.37,0,.48.08ZM8.68,15.3s-.03.03-.05.03h-.51s-.04,0-.05-.03c-.01-.02-.01-.04,0-.06.08-.21.15-.41.25-.66v-.02s.11-.05.12,0l.26.68s0,.04,0,.06Z"/><path d="M22.87,16.25c.01-.05-.02-.15-.09-.25-.17-.26-.36-.52-.54-.77l-.2-.28s-.02-.05,0-.07l.04-.06c.19-.28.38-.54.57-.81.08-.11.11-.21.09-.3-.01-.06-.05-.11-.11-.16-.14-.1-.29-.05-.42.14-.12.16-.23.32-.35.5l-.13.18s-.03.03-.05.03-.04,0-.05-.03l-.13-.19c-.13-.18-.24-.35-.36-.51-.05-.07-.14-.16-.26-.16-.05,0-.1.01-.15.05-.14.1-.15.25-.03.42l.02.04c.16.23.33.48.5.7.1.14.1.25,0,.38-.24.32-.47.66-.66.94-.1.14-.08.3.04.39.13.1.28.07.4-.08.04-.04.07-.09.1-.14l.04-.06c.16-.23.32-.45.49-.7.01-.02.03-.03.05-.03h0s.04,0,.05.03l.02.03c.05.07.1.13.14.19.05.07.09.13.14.2.11.16.22.33.35.48.06.07.21.12.3.11.06,0,.15-.12.18-.21Z"/><path d="M15.49,15.68c-.12-.12-.25-.11-.41.03-.31.27-.64.31-.99.13-.34-.18-.54-.55-.51-.92.03-.33.21-.6.48-.75.29-.16.63-.15.95.01.12.06.33.13.43-.07.04-.07.05-.14.02-.21-.03-.08-.09-.14-.2-.19-.16-.07-.34-.13-.51-.18-.07-.02-.15-.05-.22-.07-.54.02-1.02.31-1.3.77-.27.45-.29.97-.06,1.43.22.44.64.74,1.13.81.44.07.85-.07,1.12-.36.14-.15.15-.31.04-.42Z"/><path d="M18.29,16.48c.35.01.73.01,1.2,0,.08,0,.15-.03.2-.08.05-.05.07-.12.07-.2,0-.15-.11-.25-.27-.25-.11,0-.23,0-.36,0-.06,0-.13,0-.19,0-.02,0-.04-.01-.05-.03-.01-.02-.01-.04,0-.06l.04-.06s.05-.09.08-.12c.06-.09.12-.18.19-.27.13-.19.27-.39.38-.6.12-.24.14-.5.05-.73-.09-.23-.26-.4-.5-.49-.24-.09-.51-.08-.74.04-.22.12-.38.32-.44.55-.04.17.03.31.17.36.14.04.27-.02.34-.17,0,0,0-.02.01-.03,0-.02,0-.03.02-.05.05-.1.12-.18.21-.21.03-.01.07-.02.1-.02.05,0,.1.01.15.04.19.09.24.25.15.46-.06.12-.13.25-.22.37-.11.16-.23.32-.34.48-.15.21-.29.42-.44.63-.07.11-.09.23-.04.31.04.08.14.14.26.14Z"/><path d="M16.56,16.22c0,.15.09.24.25.25,0,0,.01,0,.02,0,.18,0,.24-.12.26-.23,0-.06,0-.12,0-.18v-.03c0-.41,0-.83,0-1.24v-.62c0-.33,0-.51-.08-.59-.07-.07-.21-.08-.47-.08-.04,0-.08,0-.12,0-.33,0-.38.15-.38.26,0,.11.03.26.36.28.02,0,.03,0,.06,0h.05s.05.04.05.07v1.2c0,.3,0,.6,0,.89Z"/><path d="M6.63,12.51h0c-.07,0-.14.03-.19.08s-.08.12-.08.19c0,.14.12.26.26.26h0c.07,0,.14-.03.19-.08.05-.05.08-.12.08-.19,0-.14-.12-.26-.26-.26Z"/><path d="M23.38,12.51h0c-.15,0-.26.12-.26.26,0,.07.03.14.08.19.05.05.12.08.19.08h0c.15,0,.26-.12.26-.26,0-.07-.03-.14-.08-.19-.05-.05-.12-.08-.19-.08Z"/><path d="M6.63,16.95h0c-.07,0-.14.03-.19.08s-.08.12-.08.19c0,.14.12.26.27.26h0c.14,0,.26-.11.27-.26,0-.07-.02-.14-.07-.19-.05-.05-.12-.08-.19-.08Z"/><path d="M23.36,17.48s0,0,.01,0c.07,0,.14-.03.19-.07.05-.05.08-.12.08-.19h0c0-.14-.11-.26-.25-.27,0,0,0,0-.01,0-.07,0-.14.03-.19.07-.05.05-.08.12-.08.19,0,.14.11.26.26.27Z"/></svg>