<?xml version="1.0" encoding="UTF-8"?><svg id="Layer_1" xmlns="http://www.w3.org/2000/svg" viewBox="0 0 30 30"><path id="Path_12219" d="M12.6,14.26h6.42c.1,0,.21,0,.31.01.21.03.36.19.35.39,0,.18-.13.34-.32.37-.1.02-.21.03-.31.02H6.08c-.1,0-.21,0-.31-.02-.19-.03-.33-.19-.32-.38,0-.18.13-.34.32-.37.1-.02.21-.02.31-.02h6.51"/><path id="Path_12219-2" d="M11.18,17.87h5.15c.08,0,.17,0,.25.01.16.03.29.19.28.39,0,.18-.1.34-.26.37-.08.02-.16.03-.25.02H5.95c-.08,0-.17,0-.25-.02-.15-.03-.26-.19-.25-.38,0-.18.1-.34.26-.37.08-.02.16-.02.25-.02h5.22"/><path id="Path_11959" d="M3.61,8.23c.18-.81.94-1.34,1.76-1.26h19.3c.61-.04,1.19.26,1.5.78.14.23.22.49.22.76v12.98c-.02.84-.7,1.52-1.54,1.53H5.33c-.64.05-1.25-.28-1.55-.85-.06-.13-.12-.27-.17-.41v-13.54M14.28,10.7H4.61c-.2,0-.29.03-.29.26,0,3.47,0,6.95,0,10.42-.04.45.28.84.73.89.01,0,.03,0,.04,0,.08.01.16.02.24.02h19.3c.5.07.96-.28,1.03-.78.01-.08.01-.16,0-.24-.01-3.41,0-6.83,0-10.24q0-.33-.33-.33h-11.05ZM14.99,9.96h10.39c.23,0,.3-.07.29-.29-.02-.37,0-.74,0-1.11,0-.4-.28-.75-.68-.81-.15-.03-.29-.04-.44-.03H5.45c-.12,0-.24,0-.35.02-.45.03-.8.41-.77.86,0,0,0,.02,0,.03v1q0,.33.33.33h10.34"/><path id="Path_11961" d="M22.67,17.07h-1.65c-.32,0-.44-.13-.44-.45v-2.18c0-.32.13-.46.46-.46,1.09,0,2.18,0,3.27,0,.33,0,.47.15.48.48v2.16c0,.31-.14.45-.45.46h-1.67M22.64,16.34h1.15c.17,0,.22-.06.22-.23,0-.39,0-.77,0-1.16,0-.15-.06-.21-.21-.21-.76,0-1.52,0-2.29,0-.16,0-.21.06-.21.21,0,.39,0,.77,0,1.16,0,.16.06.23.22.22.37,0,.74,0,1.11,0"/><path id="Path_11964" d="M22.65,18.63h-1.64c-.27,0-.42-.11-.42-.34-.02-.2.14-.38.34-.39.03,0,.05,0,.08,0h3.29c.21-.02.39.14.41.35,0,0,0,.02,0,.03,0,.22-.16.36-.42.36h-1.62"/><path id="Path_11966" d="M5.45,12.56c0-.54.45-.97.99-.96.54,0,.97.45.96.99,0,.53-.44.96-.98.96-.54,0-.97-.44-.97-.98,0,0,0,0,0-.01M6.41,13c.24.01.44-.17.45-.41,0,0,0-.01,0-.02,0-.24-.19-.44-.43-.45-.24,0-.44.19-.45.43,0,.23.17.43.4.44,0,0,.02,0,.03,0"/></svg>