<?xml version="1.0" encoding="UTF-8"?><svg id="Layer_1" xmlns="http://www.w3.org/2000/svg" viewBox="0 0 30 30"><defs><style>.cls-1{fill:#d0ff6f;font-family:Poppins-Medium, Poppins;font-size:3.1px;font-weight:500;}</style></defs><text class="cls-1" transform="translate(6.49 -1.55)"><tspan x="0" y="0">Withdrawn</tspan></text><path d="M24.48,10.64s.1,0,.15,0c1.06-.08,1.85-.94,1.76-1.91v-2.71c0-.09,0-.17,0-.25-.04-.46-.27-.89-.66-1.19-.39-.3-.87-.45-1.39-.42H5.6c-.06,0-.12,0-.17,0-.51.02-.98.22-1.32.56-.34.34-.52.78-.5,1.24v2.91c0,.42.15.82.45,1.14.36.39.9.62,1.46.63h.15v.39c0,.24,0,.47,0,.71.01.52.02,1.05-.02,1.58-.05.25-.05.48,0,.71.21,1.02,1.28,1.69,2.41,1.5.13-.03.28-.01.41.05l.08.04v1.37c0,.69,0,1.38,0,2.06,0,.9.46,1.76,1.26,2.29.09.05.21.1.22.25v.07s-.06.05-.06.05c-.41.28-.63.73-.6,1.2-.02.51,0,1,0,1.41,0,.75.68,1.35,1.5,1.34,2.61,0,5.22,0,7.84,0h0c.4,0,.77-.14,1.05-.39.28-.25.44-.59.44-.95.01-.3.01-.6.01-.89.14-.66-.11-1.31-.64-1.73l-.15-.12.17-.1c.98-.6,1.53-1.63,1.45-2.7-.02-.62-.01-1.24,0-1.85,0-.27,0-.54,0-.81v-.58h.61c.29,0,.57,0,.85,0,.84-.02,1.57-.56,1.78-1.3.04-.17.06-.36.06-.54v-2.85s0-.02,0-.03c0-.08.07-.14.16-.14ZM7.71,15.03c-.08,0-.17,0-.28,0-.77-.08-1.33-.71-1.25-1.41v-5.99s2.6,0,2.6,0l-.21.23c-.22.24-.54.39-.89.41-.33.04-.37.07-.37.36v3.52c0,.28.05.33.37.36.68.06,1.22.55,1.27,1.17.03.28.08.32.4.32h7.84v.93s-.06.04-.06.04c-.08.05-.16.06-.23.06-.03,0-.06,0-.08,0-.02,0-.04,0-.06,0H7.71ZM19.69,22.89v1.34s0,.07,0,.11c-.04.47-.47.83-.97.83-.02,0-.04,0-.07,0h-7.72s-.07,0-.11,0c-.54-.03-.95-.45-.92-.94,0-.47,0-.95,0-1.42,0-.02,0-.06,0-.09.01-.23.13-.45.32-.61.19-.16.45-.24.7-.22h3.88s.01,0,.02,0h3.77c.07,0,.15,0,.23,0,.55.06.94.51.87,1.01ZM20.51,18.93c0,.06,0,.13,0,.2-.03.64-.33,1.23-.85,1.66-.49.41-1.11.63-1.77.63-.04,0-.08,0-.12,0h-5.97c-.07,0-.14,0-.22,0-.7-.03-1.35-.3-1.82-.77s-.72-1.08-.69-1.72v-3.4s6.24,0,6.24,0l-.38.26c-.4.27-.75.59-1.04.96-.5.65-.78,1.41-.8,2.2,0,.12.03.21.08.27.04.04.1.06.17.06h0c.16,0,.25-.11.26-.33.06-1.87,1.71-3.38,3.77-3.42.28,0,.35-.07.35-.34v-2.79c-.03-.39.14-.78.46-1.06.21-.17.47-.28.75-.31.36-.05.72.05,1.01.25.29.2.47.5.52.83.05.53.07,1.06.06,1.59,0,1.75,0,3.5,0,5.25ZM20.89,11.69c-.28-.67-.98-1.1-1.77-1.1h0c-1.05,0-1.9.77-1.9,1.73v1.21h-.16s-7.58,0-7.58,0l-.03-.11c-.16-.67-.75-1.21-1.49-1.35l-.12-.02v-3.3l.12-.02c.6-.12,1.1-.5,1.36-1l.04-.08h4l.04.1c.05.14-.04.23-.08.27-.83,1.1-.84,2.51-.05,3.61.17.26.41.48.68.63.46.25,1,.33,1.52.22.52-.11.96-.41,1.24-.82.81-1.1.8-2.55-.03-3.63l-.28-.36h4.22l.04.08c.27.51.77.87,1.37,1l.12.03v3.28l-.11.03c-.27.07-.52.17-.75.31l-.2.12-.04-.22c-.03-.19-.08-.38-.16-.58ZM13.78,8.2c.1-.13.22-.24.37-.34.67-.43,1.6-.28,2.07.33.38.45.59,1.01.59,1.59,0,.01,0,.03,0,.04,0,.59-.2,1.17-.6,1.64-.1.13-.22.24-.37.33-.25.16-.54.24-.84.24-.09,0-.18,0-.27-.02-.39-.07-.73-.27-.95-.56-.78-.97-.78-2.27,0-3.24ZM23.81,8v5.65c0,.07,0,.15,0,.23-.07.66-.68,1.16-1.39,1.16-.04,0-.08,0-.13,0h-1.09s-.02,0-.02,0c-.08,0-.14-.07-.14-.14,0-.14,0-.27,0-.4,0-.3-.01-.58.01-.86.07-.62.61-1.1,1.29-1.14.3-.02.35-.08.35-.35v-3.54c0-.25-.06-.31-.34-.34-.35-.02-.68-.17-.92-.41l-.24-.24h2.52l.05.06c.08.1.07.2.07.27v.04ZM24.33,9.95v-2.25s.16-.06.16-.06c.04-.01.07-.03.1-.04.11-.04.16-.14.14-.24-.02-.11-.11-.19-.23-.2-.07,0-.14,0-.21,0H5.65c-.36,0-.38.13-.39.2-.01.06-.03.18.3.3l.1.03v2.45h-.15s-.02,0-.03,0c-.72,0-1.32-.53-1.35-1.19-.02-1.04-.02-2.09,0-3.13.03-.66.61-1.19,1.33-1.21h18.84c.1-.01.23-.01.35,0,.37.04.71.22.94.49s.33.61.28.95v.93c0,.63,0,1.26,0,1.89v.03c0,.33-.15.64-.41.87-.26.23-.59.35-.95.35-.08,0-.15-.05-.16-.11-.01-.03-.02-.06-.02-.08Z"/></svg>